<svg width="41" height="34" viewBox="0 0 41 34" fill="none" xmlns="http://www.w3.org/2000/svg">
<path d="M34.9714 23.697H4.11426V32.9698H34.9714V23.697Z" fill="#F0F0F0"/>
<path d="M21.6001 25.7577H17.4858V32.9698H21.6001V25.7577Z" fill="#CACACA"/>
<path d="M32.9142 13.3939H6.17139V21.6364H32.9142V13.3939Z" fill="#F0F0F0"/>
<path d="M35.729 13.394H3.35664C3.3026 13.394 3.24979 13.3779 3.205 13.3479C3.16021 13.3179 3.12549 13.2752 3.10531 13.2254C3.08512 13.1756 3.08038 13.121 3.09171 13.0685C3.10304 13.016 3.12991 12.9681 3.16888 12.9309L12.0163 4.48576V0.807227C12.0164 0.735888 12.0449 0.667495 12.0957 0.617051C12.1465 0.566607 12.2154 0.538232 12.2872 0.538152H14.0334C14.1052 0.53823 14.1741 0.566604 14.2249 0.617049C14.2757 0.667493 14.3043 0.735888 14.3044 0.807227V2.30174L14.9726 1.66385C16.0662 0.620014 17.517 0.0258695 19.0336 0.000825072C20.5502 -0.0242193 22.0202 0.521691 23.148 1.52885L35.9102 12.9248C35.951 12.9612 35.9796 13.009 35.9925 13.0619C36.0053 13.1149 36.0016 13.1704 35.982 13.2212C35.9624 13.272 35.9277 13.3158 35.8825 13.3466C35.8374 13.3775 35.7838 13.394 35.729 13.394V13.394Z" fill="#CACACA"/>
<path d="M13.3714 15.4546C13.6415 15.4546 13.909 15.4999 14.1586 15.588C14.4082 15.6761 14.635 15.8053 14.826 15.968C15.017 16.1308 15.1685 16.3241 15.2719 16.5368C15.3753 16.7495 15.4285 16.9774 15.4285 17.2076V19.5758H11.3142V17.2076C11.3142 16.9774 11.3674 16.7495 11.4708 16.5368C11.5742 16.3241 11.7257 16.1308 11.9167 15.968C12.1078 15.8053 12.3345 15.6761 12.5841 15.588C12.8337 15.4999 13.1012 15.4546 13.3714 15.4546Z" fill="white"/>
<path d="M19.543 15.4546C20.0886 15.4546 20.6118 15.6393 20.9976 15.968C21.3834 16.2968 21.6001 16.7427 21.6001 17.2076V19.5758H17.4858V17.2076C17.4858 16.7427 17.7026 16.2968 18.0884 15.968C18.4742 15.6393 18.9974 15.4546 19.543 15.4546Z" fill="white"/>
<path d="M26.2287 15.4546C26.6378 15.4546 27.0303 15.6393 27.3196 15.968C27.609 16.2968 27.7715 16.7427 27.7715 17.2076V19.5758H24.6858V17.2076C24.6858 16.7427 24.8483 16.2968 25.1377 15.968C25.427 15.6393 25.8195 15.4546 26.2287 15.4546Z" fill="white"/>
<path d="M28.8001 25.7577C29.3457 25.7577 29.8689 25.9424 30.2547 26.2711C30.6405 26.5999 30.8572 27.0458 30.8572 27.5107V29.8789H26.7429V27.5107C26.7429 27.0458 26.9597 26.5999 27.3454 26.2711C27.7312 25.9424 28.2545 25.7577 28.8001 25.7577Z" fill="white"/>
<path d="M10.7999 25.7577C11.2091 25.7577 11.6016 25.9424 11.8909 26.2711C12.1802 26.5999 12.3428 27.0458 12.3428 27.5107V29.8789H9.25708V27.5107C9.25708 27.2805 9.29699 27.0526 9.37452 26.8399C9.45206 26.6272 9.56571 26.4339 9.70897 26.2711C9.85224 26.1084 10.0223 25.9792 10.2095 25.8911C10.3967 25.803 10.5973 25.7577 10.7999 25.7577Z" fill="white"/>
<path d="M39.9692 24.228L34.1879 21.6573C34.1569 21.6435 34.1233 21.6364 34.0893 21.6364H6.53658C6.50513 21.6363 6.47397 21.6425 6.44483 21.6544L0.151879 24.225C0.099537 24.2464 0.0562182 24.2854 0.0293376 24.3354C0.00245697 24.3853 -0.00631404 24.4431 0.00452626 24.4988C0.0153666 24.5545 0.0451438 24.6047 0.0887612 24.6408C0.132379 24.6769 0.187124 24.6967 0.243626 24.6967H1.87635V33.1431H1.69362V34H38.4207V33.1431H38.1162V24.6967H39.8707C39.9265 24.6967 39.9807 24.6774 40.0241 24.642C40.0675 24.6067 40.0975 24.5574 40.109 24.5025C40.1206 24.4475 40.113 24.3903 40.0875 24.3403C40.0621 24.2903 40.0203 24.2507 39.9692 24.228ZM37.6289 33.1431H2.3636V24.6967H37.6289V33.1431Z" fill="#CACACA"/>
<path d="M15.4285 18.5454H10.2856V19.5757H15.4285V18.5454Z" fill="#CACACA"/>
<path d="M21.6001 18.5454H17.4858V19.5757H21.6001V18.5454Z" fill="#CACACA"/>
<path d="M28.8001 18.5454H23.6572V19.5757H28.8001V18.5454Z" fill="#CACACA"/>
<path d="M30.8572 29.8788H25.7144V30.9091H30.8572V29.8788Z" fill="#CACACA"/>
<path d="M13.3714 29.8788H9.25708V30.9091H13.3714V29.8788Z" fill="#CACACA"/>
<path d="M29.8285 13.4782C29.8285 13.5257 29.8277 13.574 29.827 13.6215C29.8262 13.6787 29.8247 13.7351 29.8224 13.7923C29.8201 13.842 29.8178 13.891 29.8148 13.94C29.8056 14.1041 29.7912 14.2675 29.7714 14.4316C29.7668 14.4732 29.7615 14.514 29.7554 14.5556C29.7508 14.5875 29.7462 14.6202 29.7409 14.6528C29.7356 14.6892 29.7302 14.7256 29.7241 14.762C29.712 14.8392 29.6983 14.9164 29.683 14.9937C29.6754 15.0323 29.6678 15.0709 29.6594 15.1095C29.6434 15.186 29.6259 15.2632 29.6076 15.3397C29.6061 15.3456 29.6046 15.3523 29.6031 15.3582C29.5939 15.3961 29.5848 15.4332 29.5749 15.4711C29.5718 15.4822 29.5696 15.4926 29.5658 15.5038C29.5589 15.532 29.5513 15.5602 29.5437 15.5884C29.533 15.6278 29.5223 15.6664 29.5109 15.7057C29.4926 15.7666 29.4744 15.8268 29.4553 15.8876C29.453 15.894 29.4509 15.9004 29.4492 15.9069C29.4127 16.022 29.3738 16.1356 29.3312 16.2485C29.3091 16.3079 29.2855 16.368 29.2619 16.4274C29.2383 16.4868 29.2139 16.5463 29.1888 16.6049C29.1644 16.6621 29.1393 16.7193 29.1142 16.7757C29.1081 16.7891 29.102 16.8024 29.0951 16.8158C29.0685 16.8744 29.041 16.9316 29.0129 16.9888C29.0121 16.9895 29.0121 16.991 29.0113 16.9918C28.9893 17.0378 28.9656 17.0838 28.942 17.1291C28.942 17.1305 28.9415 17.1318 28.9405 17.1328C28.9177 17.1774 28.8941 17.2219 28.8697 17.2657L28.8308 17.3378L28.8263 17.3459C28.7775 17.4343 28.7273 17.5219 28.674 17.6088C28.6625 17.6281 28.6511 17.6474 28.6397 17.666C28.6283 17.6853 28.6161 17.7046 28.6039 17.7231C28.5963 17.7365 28.5879 17.7499 28.5788 17.7632C28.5628 17.7885 28.5468 17.8145 28.53 17.8397C28.527 17.8449 28.5232 17.8501 28.5201 17.8553C28.4912 17.8991 28.4623 17.9422 28.4333 17.986C28.3975 18.0387 28.361 18.0907 28.3237 18.1427L27.4966 19.4331L27.4608 19.4042L27.4509 19.3953H27.4502L27.4174 19.3685L27.3275 19.2943C27.3001 19.3203 27.2735 19.3463 27.246 19.3715C27.2354 19.3819 27.224 19.3916 27.2133 19.4019C27.2049 19.4094 27.1973 19.4168 27.1889 19.4242C25.7591 20.7856 23.8572 21.574 21.8596 21.6332H21.8573C20.3451 21.6737 18.8482 21.3292 17.5142 20.6338C17.4845 20.6189 17.4555 20.6041 17.4266 20.587C17.253 20.4949 17.0831 20.3977 16.9164 20.2937C16.9156 20.293 16.9148 20.293 16.9141 20.2922C16.7206 20.1586 16.5318 20.016 16.3475 19.8645C15.3588 19.052 14.5766 18.0272 14.0622 16.8704C13.5478 15.7137 13.3152 14.4565 13.3828 13.1975C13.385 13.1477 13.3881 13.0987 13.3919 13.049C13.4041 12.8693 13.4229 12.6904 13.4482 12.5122C13.4551 12.4624 13.4627 12.4127 13.4703 12.3636H29.7508C29.7828 12.5909 29.8049 12.8193 29.8171 13.049C29.8247 13.1923 29.8285 13.3349 29.8285 13.4782Z" fill="#F0F0F0"/>
<path d="M29.7621 11.7062C29.4684 9.88299 28.4837 8.21871 26.987 7.01588C25.4903 5.81304 23.5809 5.15149 21.606 5.15149C19.6311 5.15149 17.7217 5.81304 16.225 7.01588C14.7283 8.21871 13.7436 9.88299 13.4499 11.7062C13.4423 11.7532 13.4347 11.8009 13.4278 11.8486C13.4026 12.0196 13.3838 12.1912 13.3713 12.3636H29.8285C29.8163 12.1435 29.7941 11.9244 29.7621 11.7062Z" fill="#0040BD"/>
<path d="M21.6001 20.6061H17.4858V17.1138C17.5618 15.5177 18.8473 15.3889 20.0552 15.4745C20.2581 15.4745 20.459 15.5169 20.6464 15.5993C20.8339 15.6816 21.0042 15.8024 21.1476 15.9546C21.2911 16.1068 21.4049 16.2875 21.4825 16.4864C21.5602 16.6853 21.6001 16.8985 21.6001 17.1138V20.6061Z" fill="#0040BD"/>
<path d="M17.4113 17.7416V17.7423C17.4113 17.7431 17.412 17.7431 17.4128 17.7431L17.4113 17.7416ZM15.5214 12.0781C15.5184 12.0967 15.5146 12.1153 15.5115 12.1339C15.5146 12.1153 15.5184 12.0967 15.5222 12.0781H15.5214ZM15.4273 12.7645C15.4251 12.7928 15.4228 12.8211 15.4213 12.8493C15.4228 12.8211 15.4251 12.7928 15.4281 12.7645C15.428 12.7593 15.4282 12.7541 15.4289 12.7489C15.4281 12.7541 15.4281 12.7593 15.4273 12.7645ZM17.4113 17.7423C17.4113 17.7431 17.412 17.7431 17.4128 17.7431L17.4113 17.7416V17.7423ZM15.5214 12.0781C15.5184 12.0967 15.5146 12.1153 15.5115 12.1339C15.5146 12.1153 15.5184 12.0967 15.5222 12.0781H15.5214ZM15.4213 12.8493C15.4228 12.8211 15.4251 12.7928 15.4281 12.7645C15.428 12.7593 15.4282 12.7541 15.4289 12.7489C15.4281 12.7541 15.4281 12.7593 15.4273 12.7645C15.4251 12.7928 15.4228 12.8211 15.4213 12.8493ZM38.8597 26.531C38.845 26.5156 38.8293 26.5012 38.8127 26.4878L38.8119 26.4871L35.055 23.379L34.9579 23.2987L34.5884 22.993L34.4958 22.9164L33.9693 22.4806L33.8252 22.3616L33.527 22.1147L33.3745 21.9883L31.9361 20.799L31.1114 20.117L31.0006 20.0256L28.5706 18.0153C28.6078 17.9632 28.6442 17.9111 28.6798 17.8583C28.7087 17.8145 28.7375 17.7713 28.7663 17.7274C28.7693 17.7222 28.7731 17.717 28.7762 17.7118C28.7929 17.6865 28.8088 17.6605 28.8247 17.6352C28.8338 17.6218 28.8422 17.6084 28.8498 17.5951C28.8619 17.5765 28.8741 17.5571 28.8854 17.5378C28.8968 17.5192 28.9082 17.4999 28.9196 17.4805C28.9727 17.3935 29.0228 17.3057 29.0713 17.2172L29.0759 17.2091L29.1145 17.1369C29.1388 17.093 29.1624 17.0484 29.1851 17.0038C29.1861 17.0028 29.1866 17.0015 29.1866 17.0001C29.2101 16.9547 29.2337 16.9086 29.2557 16.8625C29.2564 16.8617 29.2564 16.8603 29.2572 16.8595C29.2852 16.8022 29.3126 16.745 29.3391 16.6862C29.3459 16.6728 29.352 16.6595 29.3581 16.6461C29.3831 16.5895 29.4082 16.5323 29.4324 16.475C29.4575 16.4163 29.4818 16.3568 29.5053 16.2972C29.5288 16.2378 29.5523 16.1775 29.5743 16.118C29.616 16.0042 29.6552 15.8902 29.6919 15.7759C29.6936 15.7694 29.6956 15.7629 29.698 15.7566C29.7169 15.6956 29.7351 15.6353 29.7534 15.5743C29.7647 15.5349 29.7754 15.4963 29.786 15.4568C29.7936 15.4286 29.8012 15.4003 29.808 15.3721C29.8118 15.3609 29.814 15.3505 29.8171 15.3393C29.8269 15.3014 29.836 15.2642 29.8452 15.2263C29.8467 15.2203 29.8482 15.2136 29.8497 15.2077C29.8679 15.1311 29.8854 15.0537 29.9013 14.9771C29.9097 14.9385 29.9172 14.8998 29.9248 14.8611C29.9392 14.7838 29.9536 14.7064 29.9658 14.6291C29.9718 14.5926 29.9772 14.5562 29.9825 14.5197C29.9878 14.487 29.9923 14.4543 29.9969 14.4223C30.003 14.3807 30.0083 14.3398 30.0128 14.2981C30.0325 14.1337 30.047 13.9701 30.0561 13.8058C30.0591 13.7567 30.0614 13.7076 30.0636 13.6578C30.0659 13.6005 30.0674 13.544 30.0682 13.4867C30.069 13.4391 30.0697 13.3908 30.0697 13.3432C30.0697 13.1996 30.0659 13.0568 30.0583 12.9133C30.0462 12.6835 30.0242 12.4547 29.9923 12.2268C29.7205 10.2793 28.7428 8.49279 27.238 7.19374C25.7332 5.89468 23.8018 5.16989 21.7967 5.15183C19.7917 5.13378 17.847 5.82368 16.3181 7.09543C14.7892 8.36717 13.7782 10.1358 13.4699 12.0781C13.4624 12.1272 13.4548 12.177 13.4479 12.2268C13.4229 12.4053 13.4042 12.5846 13.3918 12.7645C13.388 12.8144 13.385 12.8635 13.3827 12.9133C13.3155 14.1744 13.5471 15.4336 14.0596 16.5922C14.572 17.7508 15.3512 18.7773 16.3362 19.5912C16.5198 19.743 16.708 19.8857 16.9007 20.0196C16.9014 20.0204 16.9022 20.0204 16.9029 20.0211C16.9674 20.0657 17.0319 20.1096 17.0972 20.1527C17.2011 20.2197 17.3058 20.2851 17.4112 20.3476C17.4196 20.3521 17.428 20.3573 17.4363 20.3617C17.5273 20.4153 17.6191 20.4666 17.7109 20.5164H17.7117C18.0534 20.7006 18.4081 20.8607 18.7731 20.9954C19.8439 21.3903 20.9859 21.566 22.1287 21.5115H22.131C23.4647 21.4483 24.7634 21.0715 25.9175 20.413C26.0852 20.3179 26.2506 20.216 26.4122 20.1074C26.4524 20.0806 26.4933 20.0531 26.5328 20.0256C26.5813 19.9921 26.6299 19.9571 26.6785 19.9222C26.6792 19.9222 26.6792 19.9214 26.68 19.9214C26.6836 19.9185 26.6874 19.9157 26.6913 19.9133C26.724 19.8887 26.7573 19.8642 26.7892 19.8404C26.7976 19.8344 26.8059 19.8285 26.8142 19.8218C26.8165 19.8203 26.8185 19.8185 26.8203 19.8166C26.8393 19.8032 26.8575 19.7883 26.8765 19.7742C26.8954 19.76 26.9136 19.7452 26.9326 19.7303C26.9358 19.7283 26.9389 19.7261 26.9417 19.7236C26.963 19.7065 26.9842 19.6901 27.0054 19.673C27.0274 19.6559 27.0487 19.6381 27.0692 19.621C27.0904 19.6039 27.1109 19.5868 27.1321 19.5689C27.1503 19.554 27.1693 19.5384 27.1875 19.5221C27.1936 19.5176 27.1989 19.5124 27.205 19.5072C27.2073 19.505 27.2098 19.503 27.2126 19.5012C27.2376 19.4804 27.2619 19.4588 27.2862 19.4373C27.2922 19.4321 27.2975 19.4269 27.3036 19.4216C27.3408 19.3889 27.378 19.3562 27.4144 19.322C27.4227 19.3145 27.4318 19.3064 27.4402 19.2989C27.4485 19.2915 27.4561 19.2841 27.4644 19.2766C27.4751 19.2662 27.4864 19.2565 27.4971 19.2461C27.5244 19.2208 27.5509 19.1948 27.5782 19.1688L27.6678 19.2432L27.7004 19.2699H27.7011L27.711 19.2789L27.7467 19.3079L28.2762 19.7467L28.2876 19.7563L28.2967 19.763L28.3566 19.8128L28.4765 19.9125L28.5964 20.0114L28.6138 20.0256L29.1715 20.4867L29.2488 20.5506L29.7867 20.9954L32.5711 23.2987L32.6682 23.379L36.479 26.531L37.4562 27.3394L37.8196 27.6399C37.8967 27.7039 37.9859 27.7523 38.0822 27.7825C38.1784 27.8126 38.2798 27.8239 38.3805 27.8156C38.4812 27.8073 38.5792 27.7796 38.669 27.7342C38.7588 27.6887 38.8385 27.6263 38.9037 27.5506C38.9583 27.4878 39.0016 27.4164 39.0319 27.3394C39.087 27.2029 39.1001 27.0536 39.0695 26.9099C39.0388 26.7662 38.9659 26.6344 38.8597 26.531ZM16.8832 9.29057C17.6443 8.40639 18.6451 7.75133 19.7699 7.40106C20.8947 7.05079 22.0976 7.01961 23.2397 7.31112C24.3818 7.60263 25.4165 8.20493 26.2242 9.04845C27.0319 9.89197 27.5797 10.9423 27.8043 12.0781C27.8142 12.1279 27.8233 12.177 27.8316 12.2268C27.8627 12.4046 27.8855 12.5846 27.8992 12.7645C27.903 12.8144 27.9067 12.8634 27.909 12.9133C27.9158 13.0248 27.9189 13.1371 27.9189 13.2487C27.9193 13.9254 27.805 14.5975 27.5805 15.2374V15.2382C27.3297 15.9557 26.9445 16.6211 26.4448 17.2001C26.4342 17.212 26.4235 17.2247 26.4122 17.2366C26.312 17.3526 26.2066 17.4642 26.0981 17.5705C26.0973 17.5713 26.0965 17.5728 26.0958 17.5735C26.0586 17.6099 26.0207 17.6471 25.9827 17.6813C25.9054 17.755 25.8265 17.8249 25.746 17.8918C25.6254 17.9952 25.5017 18.0921 25.3751 18.1826C25.3326 18.2131 25.2901 18.2429 25.2468 18.2726C25.2044 18.3024 25.1611 18.3306 25.1179 18.3589C25.0314 18.4154 24.9434 18.4697 24.8546 18.521C24.8106 18.547 24.7651 18.5723 24.7203 18.5969C24.6755 18.6221 24.63 18.6459 24.5845 18.669C24.539 18.6928 24.4935 18.7159 24.4472 18.7382C24.3554 18.7835 24.2628 18.8259 24.1688 18.8653C24.1217 18.8862 24.0747 18.9055 24.0276 18.9234C23.9981 18.9353 23.9692 18.9472 23.9396 18.9576C23.9281 18.9628 23.9162 18.9673 23.904 18.971C23.888 18.9777 23.8721 18.9836 23.8562 18.9888C23.851 18.9911 23.8457 18.9931 23.8403 18.9948C23.8076 19.0074 23.7758 19.0186 23.7424 19.0297C23.6946 19.0468 23.6468 19.0624 23.5982 19.0773C23.5497 19.0929 23.5019 19.1078 23.4533 19.1212C23.4048 19.1361 23.3555 19.1495 23.3069 19.1621C23.2576 19.1755 23.209 19.1881 23.1597 19.1993C23.1074 19.2127 23.055 19.2246 23.0019 19.2357C22.9556 19.2462 22.9101 19.2551 22.8638 19.2633C22.8206 19.2722 22.7766 19.2796 22.7333 19.2871C22.6727 19.2975 22.612 19.3071 22.5505 19.3153C22.5171 19.3205 22.4845 19.325 22.4511 19.328C22.4367 19.3302 22.423 19.3317 22.4094 19.3332C22.3669 19.3391 22.3244 19.3436 22.2827 19.3473C22.2713 19.348 22.2607 19.3495 22.2501 19.3503C22.2038 19.3547 22.1568 19.3585 22.1105 19.3622C22.0111 19.3689 21.9125 19.3733 21.8131 19.3756C21.763 19.3763 21.7122 19.377 21.6621 19.377C21.612 19.377 21.5619 19.3763 21.5119 19.3748C21.5119 19.3748 21.5119 19.3756 21.5111 19.3748C21.5104 19.3756 21.5104 19.3756 21.5096 19.3748C21.5095 19.3749 21.5094 19.375 21.5093 19.375C21.5091 19.3751 21.509 19.3751 21.5088 19.3751C21.5087 19.3751 21.5086 19.3751 21.5084 19.375C21.5083 19.375 21.5082 19.3749 21.5081 19.3748C21.5056 19.3756 21.503 19.3756 21.5005 19.3748C21.4649 19.3748 21.4292 19.3733 21.3943 19.3711C21.3685 19.3703 21.3419 19.3696 21.3154 19.3674C21.2797 19.3659 21.2441 19.3637 21.2084 19.3607C21.197 19.3607 21.1857 19.3592 21.1743 19.3585C21.1689 19.3583 21.1636 19.3578 21.1583 19.357C21.1219 19.354 21.0848 19.351 21.0483 19.3473C21.0301 19.3458 21.0112 19.3443 20.9929 19.3421C20.9376 19.3361 20.8822 19.3294 20.8276 19.322C20.7653 19.3146 20.7031 19.3056 20.6417 19.2945C20.6129 19.2908 20.5848 19.2856 20.5567 19.2804C20.5195 19.2744 20.4824 19.2677 20.4452 19.2603C20.4065 19.2528 20.3678 19.2454 20.3291 19.2365C20.298 19.2298 20.2661 19.2231 20.235 19.2157C20.2199 19.2127 20.2047 19.209 20.1903 19.2052C20.1106 19.1867 20.0317 19.1666 19.9536 19.1443C19.9043 19.1309 19.8549 19.1167 19.8064 19.1019C19.7396 19.0818 19.6736 19.0602 19.6076 19.0372C19.5818 19.029 19.5568 19.0201 19.531 19.0104C19.5052 19.0022 19.4801 18.9925 19.4544 18.9829C19.4308 18.9747 19.4073 18.9658 19.3846 18.9568C19.3466 18.9427 19.3094 18.9278 19.2723 18.913C19.1956 18.8825 19.1205 18.8505 19.0454 18.8163C19.0029 18.7962 18.9605 18.7769 18.9187 18.7568C18.7541 18.6787 18.592 18.5919 18.4324 18.4965C18.393 18.4734 18.3535 18.4489 18.3141 18.4243C18.2647 18.3946 18.217 18.3633 18.1692 18.3321C18.1426 18.3143 18.1168 18.2972 18.091 18.2793C18.0432 18.2466 17.9962 18.2131 17.9499 18.1796C17.9256 18.1625 17.9013 18.1447 17.8778 18.1268C17.7936 18.0644 17.7109 17.9989 17.6297 17.932C17.5911 17.9 17.5524 17.8673 17.5144 17.8338C17.4985 17.8204 17.4826 17.8063 17.4666 17.7922C17.4484 17.7758 17.4302 17.7602 17.4128 17.7431L17.4112 17.7416C17.3847 17.7185 17.3581 17.694 17.3323 17.6694C17.2921 17.6323 17.2527 17.5943 17.2148 17.5557C17.1753 17.5177 17.1374 17.4783 17.1002 17.4396C17.0623 17.401 17.0258 17.3615 16.9902 17.3214C16.9538 17.282 16.9181 17.2418 16.8832 17.2009C16.8491 17.1622 16.8157 17.1221 16.7838 17.0826C16.7064 16.9889 16.6326 16.8935 16.5623 16.7963C16.5297 16.7517 16.4986 16.707 16.4682 16.6617C16.4356 16.6156 16.4045 16.5687 16.3749 16.5219C16.3438 16.475 16.3142 16.4274 16.2854 16.3791C16.2846 16.3774 16.2836 16.3759 16.2823 16.3746C16.2254 16.2802 16.1708 16.185 16.12 16.0883C16.0676 15.9901 16.0183 15.8909 15.972 15.7908C15.9485 15.7409 15.9258 15.6904 15.9045 15.6398C15.8605 15.5379 15.8195 15.436 15.7816 15.3326C15.7626 15.2828 15.7452 15.233 15.7277 15.1824C15.7272 15.1791 15.7262 15.1758 15.7247 15.1727C15.6898 15.0701 15.658 14.9667 15.6299 14.8626C15.6291 14.8611 15.6291 14.8596 15.6284 14.8582C15.6139 14.8068 15.6003 14.7555 15.5882 14.7034C15.576 14.6581 15.5654 14.6127 15.5555 14.5666C15.5442 14.5153 15.5328 14.464 15.5229 14.4119C15.5176 14.3851 15.5123 14.3584 15.5077 14.3316C15.5032 14.3093 15.4994 14.2862 15.4956 14.2639C15.4918 14.2416 15.488 14.2185 15.4842 14.1955C15.4766 14.1501 15.4698 14.1047 15.4637 14.0594C15.4561 14.0058 15.4501 13.9523 15.444 13.898C15.4372 13.8333 15.4311 13.7686 15.4258 13.7031C15.422 13.6592 15.4197 13.6146 15.4175 13.57C15.4152 13.5291 15.4129 13.4882 15.4121 13.4473C15.4114 13.4451 15.4114 13.4428 15.4121 13.4406C15.412 13.4405 15.412 13.4404 15.4119 13.4403C15.4119 13.4401 15.4118 13.44 15.4118 13.4399C15.4118 13.4397 15.4119 13.4396 15.4119 13.4394C15.412 13.4393 15.412 13.4392 15.4121 13.4391C15.4114 13.4384 15.4114 13.4384 15.4121 13.4376C15.412 13.4375 15.412 13.4374 15.4119 13.4373C15.4119 13.4372 15.4118 13.437 15.4118 13.4369C15.4118 13.4367 15.4119 13.4366 15.4119 13.4365C15.412 13.4363 15.412 13.4362 15.4121 13.4361C15.4114 13.4198 15.4106 13.4034 15.4106 13.3871C15.4091 13.3387 15.4084 13.2904 15.4084 13.242C15.4084 13.1981 15.4091 13.155 15.4099 13.1111C15.4114 13.0501 15.4137 12.9892 15.4167 12.9282C15.4167 12.9148 15.4182 12.9021 15.419 12.8888C15.4197 12.8754 15.4205 12.8627 15.4212 12.8493C15.4228 12.8211 15.425 12.7928 15.4281 12.7645C15.428 12.7593 15.4282 12.7541 15.4288 12.7489C15.4311 12.7169 15.4341 12.685 15.4372 12.653C15.4432 12.589 15.4508 12.5243 15.4592 12.4604C15.4637 12.4284 15.4675 12.3964 15.4728 12.3644C15.4759 12.3421 15.4797 12.3191 15.4835 12.296C15.4865 12.2729 15.4903 12.2499 15.4948 12.2268C15.5001 12.1963 15.5055 12.1651 15.5115 12.1339C15.5145 12.1153 15.5183 12.0967 15.5221 12.0781C15.5366 12.0037 15.5525 11.9293 15.5699 11.855C15.5874 11.7799 15.6071 11.7055 15.6284 11.6311C15.6488 11.556 15.6716 11.4809 15.6959 11.4058C15.7073 11.3678 15.7194 11.3306 15.7331 11.2935C15.7581 11.2183 15.7846 11.144 15.8142 11.0703C15.8279 11.0339 15.8423 10.9967 15.8582 10.9603C15.8886 10.8866 15.9205 10.813 15.9531 10.7409C15.9698 10.7044 15.9865 10.668 16.0047 10.6315C16.0388 10.5594 16.0745 10.4872 16.1132 10.4166C16.1503 10.3445 16.1905 10.2738 16.2315 10.2039C16.2725 10.134 16.315 10.0641 16.3597 9.9949C16.3802 9.96069 16.403 9.92573 16.4265 9.89227C16.472 9.82384 16.5198 9.75542 16.5684 9.68848C16.6663 9.55311 16.7717 9.41998 16.8832 9.29057ZM15.4273 12.7645C15.4251 12.7928 15.4228 12.8211 15.4213 12.8493C15.4228 12.8211 15.4251 12.7928 15.4281 12.7645C15.428 12.7593 15.4282 12.7541 15.4289 12.7489C15.4281 12.7541 15.4281 12.7593 15.4273 12.7645ZM15.5214 12.0781C15.5184 12.0967 15.5146 12.1153 15.5115 12.1339C15.5146 12.1153 15.5184 12.0967 15.5222 12.0781H15.5214ZM17.4113 17.7416V17.7423C17.4113 17.7431 17.412 17.7431 17.4128 17.7431L17.4113 17.7416Z" fill="#3F3D56"/>
<path opacity="0.3" d="M18.0408 17.3944C16.9534 16.4164 16.2509 15.0382 16.0727 13.5336C15.8945 12.0291 16.2537 10.5081 17.079 9.27271C16.9706 9.38904 16.8658 9.51087 16.7646 9.6382C16.2846 10.2446 15.9213 10.9458 15.6955 11.7018C15.4697 12.4578 15.3859 13.2537 15.4487 14.0443C15.5115 14.8348 15.7199 15.6044 16.0618 16.3092C16.4037 17.0139 16.8724 17.64 17.4414 18.1516C18.5903 19.1849 20.0774 19.6894 21.5753 19.5542C23.0733 19.4189 24.4595 18.655 25.429 17.4304C25.53 17.3029 25.625 17.1723 25.7142 17.0387C24.7105 18.1135 23.3642 18.7468 21.9427 18.8127C20.5211 18.8786 19.1283 18.3723 18.0408 17.3944Z" fill="black"/>
</svg>
