<svg width="34" height="30" viewBox="0 0 34 30" fill="none" xmlns="http://www.w3.org/2000/svg">
<path fill-rule="evenodd" clip-rule="evenodd" d="M30.3335 0H3.66683C1.8335 0 0.333496 1.5 0.333496 3.33333V26.6667C0.333496 28.5 1.8335 30 3.66683 30H30.3335C32.1668 30 33.6668 28.5 33.6668 26.6667V3.33333C33.6668 1.5 32.1668 0 30.3335 0ZM30.3335 26.6667H3.66683V3.33333H30.3335V26.6667Z" fill="current"/>
<path fill-rule="evenodd" clip-rule="evenodd" d="M29.35 12.3667L26.9833 10L21.7 15.2833L19.35 12.9167L17 15.2667L21.7 20L29.35 12.3667Z" fill="current"/>
<path d="M13.6668 6.66699H5.3335V10.0003H13.6668V6.66699Z" fill="current"/>
<path d="M13.6668 13.333H5.3335V16.6663H13.6668V13.333Z" fill="current"/>
<path d="M13.6668 20H5.3335V23.3333H13.6668V20Z" fill="current"/>
</svg>
