<svg width="34" height="30" viewBox="0 0 34 30" fill="none" xmlns="http://www.w3.org/2000/svg">
<path fill-rule="evenodd" clip-rule="evenodd" d="M30.3333 0H3.66659C1.83325 0 0.333252 1.5 0.333252 3.33333V26.6667C0.333252 28.5 1.83325 30 3.66659 30H30.3333C32.1666 30 33.6666 28.5 33.6666 26.6667V3.33333C33.6666 1.5 32.1666 0 30.3333 0ZM30.3333 26.6667H3.66659V3.33333H30.3333V26.6667Z" fill="#0040BD"/>
<path fill-rule="evenodd" clip-rule="evenodd" d="M29.35 12.3667L26.9833 10L21.7 15.2833L19.35 12.9167L17 15.2667L21.7 20L29.35 12.3667Z" fill="#0040BD"/>
<path d="M13.6666 6.66699H5.33325V10.0003H13.6666V6.66699Z" fill="#0040BD"/>
<path d="M13.6666 13.333H5.33325V16.6663H13.6666V13.333Z" fill="#0040BD"/>
<path d="M13.6666 20H5.33325V23.3333H13.6666V20Z" fill="#0040BD"/>
</svg>
