<svg width="16" height="17" viewBox="0 0 16 17" fill="none" xmlns="http://www.w3.org/2000/svg">
<path d="M9.04958 8.48895L9.03853 8.5L9.04958 8.51105L12.9155 12.377C13.0069 12.4684 13.0069 12.6169 12.9155 12.7083L12.2083 13.4155C12.1169 13.5069 11.9684 13.5069 11.877 13.4155L11.216 12.7546L8.01105 9.54958L8 9.53853L7.98895 9.54958L4.1227 13.4155C4.0313 13.5069 3.88276 13.5069 3.79136 13.4155L3.08417 12.7083C2.99278 12.6169 2.99278 12.4684 3.08417 12.377L6.95042 8.51105L6.96147 8.5L6.95042 8.48895L3.08417 4.6227C2.99278 4.5313 2.99278 4.38276 3.08417 4.29136L3.79167 3.58418L3.79167 3.58417C3.88307 3.49278 4.03162 3.49278 4.12301 3.58417L7.98895 7.45042L8 7.46147L8.01105 7.45042L11.877 3.58449C11.9684 3.49309 12.1169 3.49309 12.2083 3.58449L12.9155 4.29167C13.0069 4.38307 13.0069 4.53162 12.9155 4.62301L12.2546 5.28395L9.04958 8.48895Z" fill="#9D9D99" stroke="#9D9D99" stroke-width="0.03125"/>
</svg>
