<svg width="308" height="56" viewBox="0 0 308 56" fill="none" xmlns="http://www.w3.org/2000/svg">
<g filter="url(#filter0_d_25_359)">
<rect x="4" width="300" height="48" rx="4" fill="#0040BD" shape-rendering="crispEdges"/>
<path d="M100.904 19.112H99.3043V21.72C99.3043 24.184 98.3123 26.776 96.2643 27.992L97.2723 29.24C98.6643 28.392 99.6083 26.872 100.12 25.096C100.616 26.712 101.48 28.12 102.792 28.92L103.72 27.64C101.784 26.424 100.904 23.976 100.904 21.64V19.112ZM104.296 22.84H102.168V24.184H104.296V31.56H105.848V18.056H104.296V22.84ZM107.24 17.784V32.232H108.808V17.784H107.24ZM120.515 23.336H113.907V21.496H120.515V23.336ZM122.163 18.344H120.515V20.168H113.907V18.344H112.259V24.664H122.163V18.344ZM123.779 26.232H110.675V27.56H116.355V32.248H118.003V27.56H123.779V26.232ZM132.67 21.416V22.76H135.23V26.392H136.878V17.784H135.23V21.416H132.67ZM133.502 24.632C131.342 23.88 130.11 22.088 130.11 20.28V20.088H133.118V18.76H125.39V20.088H128.446V20.296C128.446 22.28 127.15 24.2 124.91 25L125.758 26.312C127.47 25.704 128.686 24.424 129.326 22.84C129.934 24.232 131.086 25.368 132.686 25.928L133.502 24.632ZM132.078 30.968C130.014 30.968 128.846 30.456 128.846 29.512C128.846 28.568 130.014 28.056 132.078 28.056C134.11 28.056 135.294 28.568 135.294 29.512C135.294 30.456 134.11 30.968 132.078 30.968ZM132.078 26.776C129.054 26.776 127.198 27.8 127.198 29.512C127.198 31.24 129.054 32.248 132.078 32.248C135.086 32.248 136.942 31.24 136.942 29.512C136.942 27.8 135.086 26.776 132.078 26.776ZM142.233 22.504H149.081V24.872H142.233V22.504ZM146.473 29.112V26.2H150.713V18.744H149.081V21.176H142.233V18.744H140.601V26.2H144.825V29.112H139.129V30.472H152.217V29.112H146.473ZM164.937 19H161.657V17.656H159.993V19H156.681V20.2H164.937V19ZM158.921 22.808C158.921 22.152 159.657 21.752 160.809 21.752C161.961 21.752 162.697 22.152 162.697 22.808C162.697 23.448 161.961 23.832 160.809 23.832C159.657 23.832 158.921 23.448 158.921 22.808ZM165.337 25.464C164.169 25.64 162.905 25.72 161.657 25.784V24.888C163.257 24.696 164.249 23.944 164.249 22.808C164.249 21.464 162.889 20.648 160.809 20.648C158.729 20.648 157.369 21.464 157.369 22.808C157.369 23.944 158.361 24.712 159.993 24.888V25.848C158.665 25.88 157.401 25.88 156.313 25.88L156.505 27.192C159.033 27.176 162.409 27.16 165.465 26.616L165.337 25.464ZM158.105 29.512H166.105V32.248H167.753V28.2H158.105V29.512ZM169.737 22.056H167.753V17.8H166.105V27.56H167.753V23.416H169.737V22.056ZM182.564 17.784H180.916V28.28H182.564V17.784ZM172.548 22.36C172.548 21.032 173.492 20.168 174.772 20.168C176.036 20.168 176.996 21.032 176.996 22.36C176.996 23.672 176.036 24.552 174.772 24.552C173.492 24.552 172.548 23.672 172.548 22.36ZM178.596 22.36C178.596 20.248 176.948 18.744 174.772 18.744C172.596 18.744 170.932 20.248 170.932 22.36C170.932 24.456 172.596 25.976 174.772 25.976C176.948 25.976 178.596 24.456 178.596 22.36ZM174.788 30.616V27.224H173.124V31.96H182.98V30.616H174.788ZM189.087 27.768C187.919 27.768 187.071 26.968 187.071 25.752C187.071 24.536 187.919 23.736 189.087 23.736C190.255 23.736 191.103 24.536 191.103 25.752C191.103 26.968 190.255 27.768 189.087 27.768ZM189.087 22.376C187.007 22.376 185.503 23.784 185.503 25.752C185.503 27.736 187.007 29.128 189.087 29.128C191.151 29.128 192.671 27.736 192.671 25.752C192.671 23.784 191.151 22.376 189.087 22.376ZM189.887 18.008H188.239V20.008H184.799V21.352H193.263V20.008H189.887V18.008ZM198.319 23.592H196.095V17.784H194.431V32.248H196.095V24.968H198.319V23.592ZM199.913 19.304V20.648H205.065C204.777 23.976 202.985 26.52 199.193 28.344L200.073 29.656C205.033 27.256 206.761 23.608 206.761 19.304H199.913ZM209.369 17.784V32.232H211.017V17.784H209.369Z" fill="white"/>
</g>
<defs>
<filter id="filter0_d_25_359" x="0" y="0" width="308" height="56" filterUnits="userSpaceOnUse" color-interpolation-filters="sRGB">
<feFlood flood-opacity="0" result="BackgroundImageFix"/>
<feColorMatrix in="SourceAlpha" type="matrix" values="0 0 0 0 0 0 0 0 0 0 0 0 0 0 0 0 0 0 127 0" result="hardAlpha"/>
<feOffset dy="4"/>
<feGaussianBlur stdDeviation="2"/>
<feComposite in2="hardAlpha" operator="out"/>
<feColorMatrix type="matrix" values="0 0 0 0 0 0 0 0 0 0 0 0 0 0 0 0 0 0 0.25 0"/>
<feBlend mode="normal" in2="BackgroundImageFix" result="effect1_dropShadow_25_359"/>
<feBlend mode="normal" in="SourceGraphic" in2="effect1_dropShadow_25_359" result="shape"/>
</filter>
</defs>
</svg>
