<svg width="16" height="17" viewBox="0 0 16 17" fill="none" xmlns="http://www.w3.org/2000/svg">
<g clip-path="url(#clip0_197_857)">
<path fill-rule="evenodd" clip-rule="evenodd" d="M0.25 8.5C0.25 4.22134 3.72009 0.75 8 0.75C12.2799 0.75 15.75 4.22134 15.75 8.5C15.75 12.7812 12.2799 16.25 8 16.25C3.72009 16.25 0.25 12.7812 0.25 8.5ZM7.25 11.5H6.875C6.66791 11.5 6.5 11.6679 6.5 11.875V12.125C6.5 12.3321 6.66791 12.5 6.875 12.5H9.125C9.33209 12.5 9.5 12.3321 9.5 12.125V11.875C9.5 11.6679 9.33209 11.5 9.125 11.5H8.75V7.125C8.75 6.91791 8.58209 6.75 8.375 6.75H6.875C6.66791 6.75 6.5 6.91791 6.5 7.125V7.375C6.5 7.58209 6.66791 7.75 6.875 7.75H7.25V11.5ZM7 5C7 4.44772 7.44772 4 8 4C8.55228 4 9 4.44772 9 5C9 5.55228 8.55228 6 8 6C7.44772 6 7 5.55228 7 5Z" fill="#0040BD"/>
</g>
<defs>
<clipPath id="clip0_197_857">
<rect width="16" height="16" fill="white" transform="translate(0 0.5)"/>
</clipPath>
</defs>
</svg>
