<svg width="34" height="34" viewBox="0 0 34 34" fill="none" xmlns="http://www.w3.org/2000/svg">
<path d="M17.0002 0.333008C7.80016 0.333008 0.333496 7.79967 0.333496 16.9997C0.333496 26.1997 7.80016 33.6663 17.0002 33.6663C26.2002 33.6663 33.6668 26.1997 33.6668 16.9997C33.6668 7.79967 26.2002 0.333008 17.0002 0.333008ZM8.7835 27.4663C9.50016 25.9663 13.8668 24.4997 17.0002 24.4997C20.1335 24.4997 24.5168 25.9663 25.2168 27.4663C22.9502 29.2663 20.1002 30.333 17.0002 30.333C13.9002 30.333 11.0502 29.2663 8.7835 27.4663ZM27.6002 25.0497C25.2168 22.1497 19.4335 21.1663 17.0002 21.1663C14.5668 21.1663 8.7835 22.1497 6.40016 25.0497C4.70016 22.8163 3.66683 20.033 3.66683 16.9997C3.66683 9.64967 9.65016 3.66634 17.0002 3.66634C24.3502 3.66634 30.3335 9.64967 30.3335 16.9997C30.3335 20.033 29.3002 22.8163 27.6002 25.0497ZM17.0002 6.99967C13.7668 6.99967 11.1668 9.59967 11.1668 12.833C11.1668 16.0663 13.7668 18.6663 17.0002 18.6663C20.2335 18.6663 22.8335 16.0663 22.8335 12.833C22.8335 9.59967 20.2335 6.99967 17.0002 6.99967ZM17.0002 15.333C15.6168 15.333 14.5002 14.2163 14.5002 12.833C14.5002 11.4497 15.6168 10.333 17.0002 10.333C18.3835 10.333 19.5002 11.4497 19.5002 12.833C19.5002 14.2163 18.3835 15.333 17.0002 15.333Z" fill="#0040BD"/>
</svg>
