<svg width="479" height="166" viewBox="0 0 479 166" fill="none" xmlns="http://www.w3.org/2000/svg">
<path d="M181.552 161H183.312V155.448C183.312 154.168 183.168 152.808 183.072 151.592H183.152L184.384 154.056L188.288 161H190.192V149.208H188.432V154.712C188.432 155.992 188.576 157.416 188.672 158.632H188.592L187.36 156.136L183.456 149.208H181.552V161ZM196.162 161.208C198.338 161.208 200.306 159.528 200.306 156.6C200.306 153.672 198.338 151.976 196.162 151.976C193.986 151.976 192.018 153.672 192.018 156.6C192.018 159.528 193.986 161.208 196.162 161.208ZM196.162 159.704C194.786 159.704 193.922 158.472 193.922 156.6C193.922 154.744 194.786 153.496 196.162 153.496C197.554 153.496 198.418 154.744 198.418 156.6C198.418 158.472 197.554 159.704 196.162 159.704ZM205.064 161H206.904V155.512C207.448 154.12 208.312 153.624 209.032 153.624C209.384 153.624 209.608 153.672 209.912 153.768L210.248 152.168C209.976 152.04 209.688 151.976 209.256 151.976C208.312 151.976 207.384 152.648 206.76 153.784H206.712L206.568 152.2H205.064V161ZM214.603 161.208C215.755 161.208 216.763 160.824 217.579 160.28L216.939 159.112C216.299 159.528 215.627 159.768 214.843 159.768C213.323 159.768 212.267 158.76 212.123 157.08H217.835C217.883 156.856 217.931 156.504 217.931 156.136C217.931 153.656 216.667 151.976 214.331 151.976C212.283 151.976 210.315 153.752 210.315 156.6C210.315 159.512 212.219 161.208 214.603 161.208ZM212.107 155.8C212.283 154.264 213.259 153.416 214.363 153.416C215.643 153.416 216.331 154.296 216.331 155.8H212.107ZM221.87 161.208C224.046 161.208 225.214 160.008 225.214 158.536C225.214 156.872 223.854 156.328 222.622 155.864C221.662 155.512 220.798 155.224 220.798 154.472C220.798 153.864 221.246 153.384 222.222 153.384C222.942 153.384 223.566 153.704 224.174 154.152L225.038 153.016C224.334 152.456 223.358 151.976 222.19 151.976C220.238 151.976 219.054 153.08 219.054 154.552C219.054 156.04 220.35 156.664 221.534 157.112C222.478 157.48 223.47 157.832 223.47 158.632C223.47 159.304 222.974 159.816 221.918 159.816C220.974 159.816 220.206 159.416 219.422 158.808L218.558 159.992C219.422 160.696 220.654 161.208 221.87 161.208ZM229.265 161.208C230.465 161.208 231.329 160.6 232.129 159.672H232.177L232.321 161H233.825V152.2H231.985V158.312C231.249 159.24 230.689 159.624 229.873 159.624C228.833 159.624 228.401 159.016 228.401 157.512V152.2H226.561V157.736C226.561 159.976 227.377 161.208 229.265 161.208ZM237.919 161.208C238.383 161.208 238.687 161.144 238.911 161.064L238.671 159.672C238.511 159.704 238.447 159.704 238.367 159.704C238.143 159.704 237.935 159.528 237.935 159.032V148.248H236.095V158.936C236.095 160.36 236.591 161.208 237.919 161.208ZM243.321 161.208C243.961 161.208 244.553 161.048 245.049 160.888L244.713 159.528C244.457 159.64 244.073 159.736 243.769 159.736C242.857 159.736 242.489 159.192 242.489 158.136V153.672H244.777V152.2H242.489V149.768H240.953L240.745 152.2L239.369 152.296V153.672H240.649V158.12C240.649 159.976 241.337 161.208 243.321 161.208ZM248.417 161.208C250.593 161.208 251.761 160.008 251.761 158.536C251.761 156.872 250.401 156.328 249.169 155.864C248.209 155.512 247.345 155.224 247.345 154.472C247.345 153.864 247.793 153.384 248.769 153.384C249.489 153.384 250.113 153.704 250.721 154.152L251.585 153.016C250.881 152.456 249.905 151.976 248.737 151.976C246.785 151.976 245.601 153.08 245.601 154.552C245.601 156.04 246.897 156.664 248.081 157.112C249.025 157.48 250.017 157.832 250.017 158.632C250.017 159.304 249.521 159.816 248.465 159.816C247.521 159.816 246.753 159.416 245.969 158.808L245.105 159.992C245.969 160.696 247.201 161.208 248.417 161.208ZM256.618 161H258.458V153.672H260.234V152.2H258.458V151.08C258.458 150.008 258.842 149.496 259.626 149.496C259.93 149.496 260.266 149.576 260.586 149.72L260.954 148.328C260.554 148.168 259.994 148.04 259.402 148.04C257.434 148.04 256.618 149.288 256.618 151.096V152.2L255.418 152.296V153.672H256.618V161ZM264.678 161.208C266.854 161.208 268.822 159.528 268.822 156.6C268.822 153.672 266.854 151.976 264.678 151.976C262.502 151.976 260.534 153.672 260.534 156.6C260.534 159.528 262.502 161.208 264.678 161.208ZM264.678 159.704C263.302 159.704 262.438 158.472 262.438 156.6C262.438 154.744 263.302 153.496 264.678 153.496C266.07 153.496 266.934 154.744 266.934 156.6C266.934 158.472 266.07 159.704 264.678 159.704ZM273.078 161.208C274.278 161.208 275.142 160.6 275.942 159.672H275.99L276.134 161H277.638V152.2H275.798V158.312C275.062 159.24 274.502 159.624 273.686 159.624C272.646 159.624 272.214 159.016 272.214 157.512V152.2H270.374V157.736C270.374 159.976 271.19 161.208 273.078 161.208ZM279.908 161H281.748V154.76C282.516 153.976 283.076 153.56 283.892 153.56C284.932 153.56 285.38 154.168 285.38 155.688V161H287.22V155.464C287.22 153.224 286.388 151.976 284.516 151.976C283.316 151.976 282.42 152.632 281.604 153.416H281.556L281.412 152.2H279.908V161ZM292.432 161.208C293.424 161.208 294.336 160.68 294.992 160.008H295.056L295.2 161H296.704V148.248H294.864V151.512L294.944 152.968C294.224 152.36 293.584 151.976 292.576 151.976C290.608 151.976 288.8 153.752 288.8 156.6C288.8 159.528 290.224 161.208 292.432 161.208ZM292.864 159.688C291.488 159.688 290.704 158.584 290.704 156.584C290.704 154.68 291.696 153.512 292.928 153.512C293.584 153.512 294.208 153.72 294.864 154.312V158.616C294.224 159.352 293.6 159.688 292.864 159.688Z" fill="#0040BD"/>
<path d="M0 121.363C0 121.716 0.283903 122 0.637439 122H474.831C475.184 122 475.468 121.716 475.468 121.363C475.468 121.01 475.184 120.726 474.831 120.726H0.637439C0.283903 120.726 0 121.01 0 121.363Z" fill="#3F3D56"/>
<path d="M225.256 53.1322V119.886H13.2115V61.6678L20.2482 47.6667H222.355L225.256 53.1322Z" fill="#E6E6E6"/>
<path d="M237.964 77.0623L225.256 68.1565L202.744 52.3845L169.34 77.7881L13.2115 78.6591L4.6463 78.7062L13.2115 61.6678L20.2482 47.6667L28.8244 14.6421L212.911 13.9163L222.355 47.6667L225.256 53.1322L237.964 77.0623Z" fill="#2F2E41"/>
<path d="M145.376 68.1439H61.1393V32.5788L103.258 17.1824L145.376 32.5788V68.1439Z" fill="#E6E6E6"/>
<path d="M56.9638 83.4132H19.9286V119.885H56.9638V83.4132Z" fill="white"/>
<path d="M138.296 83.4132H71.1243V119.885H138.296V83.4132Z" fill="white"/>
<path d="M162.26 86.3165H151.004V119.886H162.26V86.3165Z" fill="white"/>
<path d="M211.113 78.7048H188.212V101.858H211.113V78.7048Z" fill="#0040BD"/>
<path d="M200.32 78.7048H198.741V101.858H200.32V78.7048Z" fill="#E6E6E6"/>
<path d="M138.132 38.7849H115.231V61.9379H138.132V38.7849Z" fill="#0040BD"/>
<path d="M127.339 38.7849H125.76V61.9379H127.339V38.7849Z" fill="#E6E6E6"/>
<path d="M96.0136 38.7849H73.1122V61.9379H96.0136V38.7849Z" fill="#0040BD"/>
<path d="M85.221 38.7849H83.6416V61.9379H85.221V38.7849Z" fill="#E6E6E6"/>
<path d="M466.292 53.1322V119.886H254.248V61.6678L261.284 47.6667H463.391L466.292 53.1322Z" fill="#E6E6E6"/>
<path d="M479 77.0623L466.292 68.1565L443.78 52.3845L410.376 77.7881L254.248 78.6591L245.682 78.7062L254.248 61.6678L261.284 47.6667L269.86 14.6421L453.947 13.9163L463.391 47.6667L466.292 53.1322L479 77.0623Z" fill="#2F2E41"/>
<path d="M386.412 68.1439H302.175V32.5788L344.294 17.1824L386.412 32.5788V68.1439Z" fill="#E6E6E6"/>
<path d="M298 83.4132H260.965V119.885H298V83.4132Z" fill="white"/>
<path d="M379.332 83.4132H312.16V119.885H379.332V83.4132Z" fill="white"/>
<path d="M403.296 86.3165H392.04V119.886H403.296V86.3165Z" fill="white"/>
<path d="M452.149 78.7048H429.248V101.858H452.149V78.7048Z" fill="#0040BD"/>
<path d="M441.356 78.7048H439.777V101.858H441.356V78.7048Z" fill="#E6E6E6"/>
<path d="M379.168 38.7849H356.267V61.9379H379.168V38.7849Z" fill="#0040BD"/>
<path d="M368.375 38.7849H366.796V61.9379H368.375V38.7849Z" fill="#E6E6E6"/>
<path d="M337.05 38.7849H314.148V61.9379H337.05V38.7849Z" fill="#0040BD"/>
<path d="M326.257 38.7849H324.678V61.9379H326.257V38.7849Z" fill="#E6E6E6"/>
<path d="M445.791 59.9242H435.078V70.6316H445.791V59.9242Z" fill="#3F3D56"/>
<path d="M207.433 59.9242H196.72V70.6316H207.433V59.9242Z" fill="#3F3D56"/>
<path d="M126.928 0H121.572V17.1318H126.928V0Z" fill="#2F2E41"/>
<path d="M358.858 0H353.502V17.1318H358.858V0Z" fill="#2F2E41"/>
</svg>
