<svg width="54" height="55" viewBox="0 0 54 55" fill="none" xmlns="http://www.w3.org/2000/svg">
<rect x="9" width="36" height="36" rx="18" fill="#D9D9D9"/>
<path d="M24.7266 6.72657C24.6516 6.79689 24.6094 6.89532 24.6094 6.98439C24.6094 7.09689 24.5438 7.20001 24.3094 7.44845C23.9344 7.84689 23.8547 8.00626 23.8219 8.37657C23.7891 8.79845 23.8922 9.03751 24.2953 9.45939C24.6047 9.78282 24.6188 9.81095 24.5906 9.97501C24.5719 10.1016 24.4969 10.2094 24.3 10.4016C23.9859 10.7016 23.8125 11.0391 23.8125 11.3531C23.8125 11.5406 23.8313 11.5875 23.9625 11.6953C24.2203 11.9109 24.5391 11.775 24.5953 11.4234C24.6188 11.2734 24.6938 11.1563 24.9375 10.8984C25.5703 10.2141 25.5563 9.58595 24.8953 8.92501C24.6469 8.67189 24.6094 8.61095 24.6094 8.46095C24.6094 8.30626 24.6469 8.25001 24.8859 8.02032C25.0359 7.87501 25.1906 7.6922 25.2328 7.61251C25.3453 7.39689 25.4203 7.05001 25.3875 6.91407C25.3125 6.61407 24.9422 6.50626 24.7266 6.72657Z" fill="white"/>
<path d="M27.1968 6.6422C27.1171 6.67501 26.9999 6.90939 26.9999 7.03126C26.9999 7.0922 26.8828 7.25157 26.7234 7.42032C26.2499 7.9172 26.1187 8.31564 26.2687 8.82657C26.3296 9.03751 26.414 9.16407 26.6718 9.44064C27.1078 9.90939 27.1078 9.97501 26.6906 10.4063C26.2265 10.8891 26.0765 11.3813 26.3156 11.6531C26.5453 11.925 26.9999 11.7469 26.9999 11.3859C26.9999 11.2781 27.0703 11.1703 27.3187 10.9078C27.7031 10.5047 27.8249 10.2141 27.7828 9.82032C27.7499 9.48751 27.6046 9.2297 27.2765 8.90157C26.8968 8.52657 26.9062 8.34845 27.3328 7.97814C27.5578 7.78126 27.7499 7.41095 27.7828 7.10626C27.8062 6.87657 27.7968 6.83907 27.689 6.73126C27.5718 6.61407 27.3609 6.57657 27.1968 6.6422Z" fill="white"/>
<path d="M29.5125 6.75469C29.4422 6.83906 29.3906 6.95625 29.3906 7.03594C29.3906 7.13906 29.325 7.2375 29.1094 7.45312C28.7484 7.80469 28.6219 8.07656 28.6219 8.48437C28.6219 8.86406 28.7672 9.15937 29.1375 9.51562C29.4984 9.86719 29.4891 9.97031 29.0719 10.4203C28.7484 10.7719 28.5938 11.0859 28.5938 11.3953C28.5938 11.5641 28.7672 11.7562 28.95 11.7937C29.1328 11.8266 29.3906 11.6297 29.3906 11.4562C29.3906 11.2781 29.5078 11.0906 29.7141 10.9266C29.9719 10.7203 30.1875 10.2797 30.1875 9.96094C30.1875 9.58594 30.0656 9.29531 29.7938 9.02812C29.2922 8.53125 29.2828 8.45625 29.6906 8.02031C30.0563 7.63125 30.1453 7.46719 30.1734 7.12031C30.1969 6.87656 30.1875 6.83906 30.0797 6.73125C29.9016 6.55312 29.6719 6.5625 29.5125 6.75469Z" fill="white"/>
<path d="M19.7109 12.7218C19.4343 12.853 19.2093 13.078 19.0921 13.3358C19.0218 13.4905 19.0078 13.6968 18.9937 14.5546C18.9749 15.7311 19.0312 16.5233 19.1953 17.1843C19.3171 17.6999 19.4015 17.8124 19.6734 17.8124C19.7812 17.8124 19.8703 17.7749 19.9499 17.6905C20.0859 17.5593 20.0859 17.4796 19.9499 16.8983C19.9078 16.7155 19.8609 16.3968 19.8421 16.1811L19.814 15.7968H20.8734C21.9093 15.7968 21.9328 15.7921 22.0546 15.689C22.2328 15.539 22.2328 15.2577 22.0546 15.1077C21.9328 14.9999 21.9093 14.9999 20.8546 14.9999H19.7765L19.7906 14.3155C19.8046 13.6311 19.8046 13.6311 19.9359 13.5186L20.0671 13.4061H26.9999H33.9328L34.064 13.5186C34.1953 13.6311 34.1953 13.6311 34.2093 14.3155L34.2234 14.9999H29.1328H24.0421L23.9296 15.1171C23.7703 15.2718 23.7703 15.5249 23.9296 15.6796L24.0421 15.7968H29.1093H34.1718V16.0358C34.1718 16.3124 34.0171 17.0999 33.8859 17.5077C33.7359 17.9624 33.3046 18.7874 32.9906 19.2186C31.9874 20.6015 31.2234 22.4155 30.8437 24.3421L30.7921 24.6093H30.1828C29.5968 24.6093 29.5687 24.614 29.4609 24.7265C29.2874 24.8952 29.3015 25.1296 29.489 25.2843L29.6343 25.4061H32.3953H35.1609L35.2734 25.5233C35.4281 25.6733 35.4328 25.9218 35.2874 26.0765C35.1093 26.2686 33.7593 27.328 33.6328 27.3749C33.5578 27.403 32.5078 27.4218 30.9328 27.4218C28.4343 27.4218 28.3546 27.4265 28.2656 27.5155C28.0406 27.7405 28.1343 28.0827 28.4437 28.1718C28.5609 28.2093 29.4187 28.2186 31.1953 28.2093C33.6984 28.1952 33.7781 28.1905 33.9843 28.0968C34.1765 28.0077 35.4328 27.0421 35.8078 26.6999C36.1828 26.3577 36.2953 25.753 36.0749 25.289C35.9437 25.0077 35.7656 24.8343 35.4843 24.7077C35.2828 24.614 35.1843 24.6093 33.4593 24.6093C32.0156 24.6093 31.6406 24.5952 31.6406 24.5483C31.6406 24.4358 31.9734 23.7936 32.1796 23.503C32.6203 22.8843 33.3234 22.4249 34.0312 22.289C34.2234 22.2561 34.6828 22.2046 35.0484 22.1765C36.014 22.1061 36.5999 21.8999 37.2703 21.389C38.0156 20.8265 38.5968 19.8702 38.8921 18.7358C39.089 17.9718 38.9765 17.4608 38.5265 17.039C38.0812 16.6265 38.0578 16.6171 36.389 16.603L34.9265 16.589L34.9593 16.3686C34.9781 16.2468 34.9921 15.5671 34.9921 14.8593C34.9921 13.889 34.9781 13.5233 34.9265 13.3874C34.8374 13.1343 34.5656 12.8483 34.289 12.7218L34.0546 12.6093H26.9999H19.9453L19.7109 12.7218ZM37.7484 17.4561C37.9499 17.5405 38.1468 17.7749 38.1843 17.9811C38.2031 18.0936 38.1843 18.2858 38.1187 18.5343C37.8281 19.7155 37.1859 20.6108 36.3187 21.0468C35.8593 21.2765 35.4515 21.3608 34.5937 21.4171C34.0265 21.4499 33.8343 21.4827 33.4734 21.6046C33.0374 21.7499 32.7374 21.8999 32.4421 22.1155L32.2874 22.2327L32.3203 22.1202C32.4937 21.5671 33.0468 20.5265 33.5249 19.8515C34.0874 19.0546 34.4296 18.4077 34.6453 17.728L34.7531 17.3905H36.1734C37.2703 17.3905 37.6312 17.4046 37.7484 17.4561Z" fill="white"/>
<path d="M18.4265 18.6797C17.789 18.825 17.0952 19.2375 16.5655 19.7859C15.8249 20.5594 15.3515 21.525 15.1077 22.7578C14.9812 23.3953 14.9952 24.7078 15.1312 25.3453C15.6749 27.8672 17.353 29.4797 19.3359 29.3812C20.0952 29.339 20.2218 29.2219 20.1515 28.6172C20.0812 28.0312 19.8984 27.6422 19.3687 26.939C19.0359 26.5031 18.914 26.1047 18.9515 25.5515C18.9796 25.0359 19.0968 24.7406 19.4624 24.2578C19.978 23.5734 20.1655 23.0672 20.1655 22.3359C20.1655 21.6234 19.9734 21.0797 19.4999 20.4656C19.2515 20.1422 18.9843 19.6359 18.9843 19.4859C18.9843 19.4203 19.0265 19.4062 19.2327 19.4062C20.1187 19.4062 21.1687 20.0953 21.703 21.0281C21.8905 21.3469 22.003 21.4406 22.2046 21.4406C22.3312 21.4406 22.4015 21.4078 22.4859 21.3047C22.6499 21.1172 22.6077 20.939 22.2984 20.4703C21.7265 19.6172 20.9296 18.9937 20.0624 18.7265C19.7015 18.6187 18.8155 18.5906 18.4265 18.6797ZM18.239 19.7906C18.3187 20.1047 18.5437 20.5265 18.8202 20.8875C18.9609 21.0703 19.1343 21.3422 19.2046 21.4969C19.3265 21.75 19.3359 21.8203 19.3359 22.3359C19.3359 22.8515 19.3265 22.9219 19.2093 23.1703C19.139 23.3203 18.9562 23.6109 18.8015 23.8125C18.328 24.4406 18.1405 24.9609 18.1405 25.664C18.1405 26.3625 18.328 26.8828 18.7968 27.5062C19.0921 27.9 19.228 28.1484 19.303 28.4156L19.3499 28.5937H19.1109C17.9484 28.589 16.8187 27.6562 16.214 26.2078C16.1343 26.0203 16.0171 25.6265 15.9468 25.3406C15.7827 24.6375 15.7734 23.475 15.9234 22.7812C16.2374 21.3609 16.9968 20.2125 17.9765 19.6969C18.0796 19.6406 18.1687 19.5984 18.1734 19.5937C18.178 19.5937 18.2062 19.6828 18.239 19.7906Z" fill="white"/>
<path d="M24.7635 21.1592C23.1182 21.4733 21.5667 22.6686 20.812 24.2014C20.2823 25.2889 20.1276 26.4983 20.4182 27.3608C20.8073 28.5186 21.8573 29.3155 23.0854 29.3764C25.162 29.4796 27.2714 28.0967 28.1854 26.0249C28.4479 25.4389 28.5604 24.8858 28.5651 24.1639C28.5698 23.5592 28.5604 23.4796 28.4385 23.1327C28.2651 22.6405 28.0448 22.2842 27.6979 21.9421C27.3839 21.6327 26.8589 21.3327 26.4135 21.2155C26.0198 21.1077 25.1807 21.0796 24.7635 21.1592ZM26.1229 21.9608C26.2729 21.9983 26.4979 22.0827 26.6245 22.1483C26.8589 22.2655 27.187 22.528 27.187 22.5936C27.187 22.6592 26.7839 22.7811 26.3526 22.8514C25.6354 22.9686 25.2042 23.1749 24.7776 23.6014C24.3604 24.0139 24.126 24.5108 24.0464 25.1483C23.976 25.6921 23.8401 25.9967 23.512 26.3249C23.1792 26.6577 22.9073 26.7796 22.3073 26.8592C22.0917 26.8874 21.787 26.9671 21.6323 27.028C21.4776 27.0936 21.3229 27.1499 21.2854 27.1546C21.1776 27.1686 21.1026 26.8358 21.0979 26.3389C21.0792 24.0889 23.226 21.9327 25.5229 21.8952C25.7057 21.8952 25.9776 21.9233 26.1229 21.9608ZM27.7026 23.4702C27.9229 24.2296 27.712 25.3311 27.1589 26.2686C26.9292 26.6624 26.3245 27.328 25.8979 27.6561C24.9323 28.4014 23.7182 28.7389 22.7714 28.528C22.4104 28.4483 21.9698 28.2233 21.7542 28.0077L21.637 27.8952L21.8479 27.8014C21.9604 27.7499 22.2557 27.6749 22.4995 27.6374C23.2214 27.5202 23.587 27.3561 24.0182 26.9577C24.4823 26.5264 24.7448 25.9827 24.8432 25.2514C24.8995 24.8061 25.0542 24.4639 25.3214 24.1921C25.612 23.9014 25.9307 23.7327 26.3151 23.6717C26.8495 23.5827 27.2479 23.4842 27.4214 23.3905C27.6417 23.2686 27.6417 23.2733 27.7026 23.4702Z" fill="white"/>
<path d="M15.54 42.78V43.718H20.062C20.02 44.488 19.894 45.216 19.684 45.916L14.91 46.238L15.106 47.246L19.334 46.84C18.564 48.52 17.178 49.948 14.854 51.096L15.484 51.978C19.978 49.738 21.21 46.42 21.21 42.78H15.54ZM26.418 46.574H24.402V41.478H23.254V54.036H24.402V47.526H26.418V46.574ZM29.3189 43.998H30.8869V49.892C30.3549 49.92 29.8369 49.934 29.3189 49.948V43.998ZM31.9369 43.998H32.9729V43.074H27.2329V43.998H28.2689V49.976C27.7929 49.99 27.3729 49.99 26.9949 49.99L27.1069 50.942C28.7449 50.942 31.3769 50.886 33.3229 50.522L33.2529 49.682C32.8469 49.738 32.3849 49.78 31.9369 49.822V43.998ZM34.3169 46.266H32.5949V47.274H34.3169V53.378H35.3949V41.786H34.3169V46.266ZM36.7389 41.492V54.036H37.8449V41.492H36.7389Z" fill="#3F3D56"/>
</svg>
