<svg width="36" height="36" viewBox="0 0 36 36" fill="none" xmlns="http://www.w3.org/2000/svg">
<rect width="36" height="36" rx="18" fill="#FFC75F"/>
<path d="M15.7266 6.72657C15.6516 6.79689 15.6094 6.89532 15.6094 6.98439C15.6094 7.09689 15.5438 7.20001 15.3094 7.44845C14.9344 7.84689 14.8547 8.00626 14.8219 8.37657C14.7891 8.79845 14.8922 9.03751 15.2953 9.45939C15.6047 9.78282 15.6188 9.81095 15.5906 9.97501C15.5719 10.1016 15.4969 10.2094 15.3 10.4016C14.9859 10.7016 14.8125 11.0391 14.8125 11.3531C14.8125 11.5406 14.8313 11.5875 14.9625 11.6953C15.2203 11.9109 15.5391 11.775 15.5953 11.4234C15.6188 11.2734 15.6938 11.1563 15.9375 10.8984C16.5703 10.2141 16.5563 9.58595 15.8953 8.92501C15.6469 8.67189 15.6094 8.61095 15.6094 8.46095C15.6094 8.30626 15.6469 8.25001 15.8859 8.02032C16.0359 7.87501 16.1906 7.6922 16.2328 7.61251C16.3453 7.39689 16.4203 7.05001 16.3875 6.91407C16.3125 6.61407 15.9422 6.50626 15.7266 6.72657Z" fill="white"/>
<path d="M18.1968 6.6422C18.1171 6.67501 17.9999 6.90939 17.9999 7.03126C17.9999 7.0922 17.8828 7.25157 17.7234 7.42032C17.2499 7.9172 17.1187 8.31564 17.2687 8.82657C17.3296 9.03751 17.414 9.16407 17.6718 9.44064C18.1078 9.90939 18.1078 9.97501 17.6906 10.4063C17.2265 10.8891 17.0765 11.3813 17.3156 11.6531C17.5453 11.925 17.9999 11.7469 17.9999 11.3859C17.9999 11.2781 18.0703 11.1703 18.3187 10.9078C18.7031 10.5047 18.8249 10.2141 18.7828 9.82032C18.7499 9.48751 18.6046 9.2297 18.2765 8.90157C17.8968 8.52657 17.9062 8.34845 18.3328 7.97814C18.5578 7.78126 18.7499 7.41095 18.7828 7.10626C18.8062 6.87657 18.7968 6.83907 18.689 6.73126C18.5718 6.61407 18.3609 6.57657 18.1968 6.6422Z" fill="white"/>
<path d="M20.5125 6.75469C20.4422 6.83906 20.3906 6.95625 20.3906 7.03594C20.3906 7.13906 20.325 7.2375 20.1094 7.45312C19.7484 7.80469 19.6219 8.07656 19.6219 8.48437C19.6219 8.86406 19.7672 9.15937 20.1375 9.51562C20.4984 9.86719 20.4891 9.97031 20.0719 10.4203C19.7484 10.7719 19.5938 11.0859 19.5938 11.3953C19.5938 11.5641 19.7672 11.7562 19.95 11.7937C20.1328 11.8266 20.3906 11.6297 20.3906 11.4562C20.3906 11.2781 20.5078 11.0906 20.7141 10.9266C20.9719 10.7203 21.1875 10.2797 21.1875 9.96094C21.1875 9.58594 21.0656 9.29531 20.7938 9.02812C20.2922 8.53125 20.2828 8.45625 20.6906 8.02031C21.0563 7.63125 21.1453 7.46719 21.1734 7.12031C21.1969 6.87656 21.1875 6.83906 21.0797 6.73125C20.9016 6.55312 20.6719 6.5625 20.5125 6.75469Z" fill="white"/>
<path d="M10.7109 12.7218C10.4343 12.853 10.2093 13.078 10.0921 13.3358C10.0218 13.4905 10.0078 13.6968 9.99369 14.5546C9.97494 15.7311 10.0312 16.5233 10.1953 17.1843C10.3171 17.6999 10.4015 17.8124 10.6734 17.8124C10.7812 17.8124 10.8703 17.7749 10.9499 17.6905C11.0859 17.5593 11.0859 17.4796 10.9499 16.8983C10.9078 16.7155 10.8609 16.3968 10.8421 16.1811L10.814 15.7968H11.8734C12.9093 15.7968 12.9328 15.7921 13.0546 15.689C13.2328 15.539 13.2328 15.2577 13.0546 15.1077C12.9328 14.9999 12.9093 14.9999 11.8546 14.9999H10.7765L10.7906 14.3155C10.8046 13.6311 10.8046 13.6311 10.9359 13.5186L11.0671 13.4061H17.9999H24.9328L25.064 13.5186C25.1953 13.6311 25.1953 13.6311 25.2093 14.3155L25.2234 14.9999H20.1328H15.0421L14.9296 15.1171C14.7703 15.2718 14.7703 15.5249 14.9296 15.6796L15.0421 15.7968H20.1093H25.1718V16.0358C25.1718 16.3124 25.0171 17.0999 24.8859 17.5077C24.7359 17.9624 24.3046 18.7874 23.9906 19.2186C22.9874 20.6015 22.2234 22.4155 21.8437 24.3421L21.7921 24.6093H21.1828C20.5968 24.6093 20.5687 24.614 20.4609 24.7265C20.2874 24.8952 20.3015 25.1296 20.489 25.2843L20.6343 25.4061H23.3953H26.1609L26.2734 25.5233C26.4281 25.6733 26.4328 25.9218 26.2874 26.0765C26.1093 26.2686 24.7593 27.328 24.6328 27.3749C24.5578 27.403 23.5078 27.4218 21.9328 27.4218C19.4343 27.4218 19.3546 27.4265 19.2656 27.5155C19.0406 27.7405 19.1343 28.0827 19.4437 28.1718C19.5609 28.2093 20.4187 28.2186 22.1953 28.2093C24.6984 28.1952 24.7781 28.1905 24.9843 28.0968C25.1765 28.0077 26.4328 27.0421 26.8078 26.6999C27.1828 26.3577 27.2953 25.753 27.0749 25.289C26.9437 25.0077 26.7656 24.8343 26.4843 24.7077C26.2828 24.614 26.1843 24.6093 24.4593 24.6093C23.0156 24.6093 22.6406 24.5952 22.6406 24.5483C22.6406 24.4358 22.9734 23.7936 23.1796 23.503C23.6203 22.8843 24.3234 22.4249 25.0312 22.289C25.2234 22.2561 25.6828 22.2046 26.0484 22.1765C27.014 22.1061 27.5999 21.8999 28.2703 21.389C29.0156 20.8265 29.5968 19.8702 29.8921 18.7358C30.089 17.9718 29.9765 17.4608 29.5265 17.039C29.0812 16.6265 29.0578 16.6171 27.389 16.603L25.9265 16.589L25.9593 16.3686C25.9781 16.2468 25.9921 15.5671 25.9921 14.8593C25.9921 13.889 25.9781 13.5233 25.9265 13.3874C25.8374 13.1343 25.5656 12.8483 25.289 12.7218L25.0546 12.6093H17.9999H10.9453L10.7109 12.7218ZM28.7484 17.4561C28.9499 17.5405 29.1468 17.7749 29.1843 17.9811C29.2031 18.0936 29.1843 18.2858 29.1187 18.5343C28.8281 19.7155 28.1859 20.6108 27.3187 21.0468C26.8593 21.2765 26.4515 21.3608 25.5937 21.4171C25.0265 21.4499 24.8343 21.4827 24.4734 21.6046C24.0374 21.7499 23.7374 21.8999 23.4421 22.1155L23.2874 22.2327L23.3203 22.1202C23.4937 21.5671 24.0468 20.5265 24.5249 19.8515C25.0874 19.0546 25.4296 18.4077 25.6453 17.728L25.7531 17.3905H27.1734C28.2703 17.3905 28.6312 17.4046 28.7484 17.4561Z" fill="white"/>
<path d="M9.42648 18.6797C8.78898 18.825 8.09523 19.2375 7.56554 19.7859C6.82492 20.5594 6.35148 21.525 6.10773 22.7578C5.98117 23.3953 5.99523 24.7078 6.13117 25.3453C6.67492 27.8672 8.35304 29.4797 10.3359 29.3812C11.0952 29.339 11.2218 29.2219 11.1515 28.6172C11.0812 28.0312 10.8984 27.6422 10.3687 26.939C10.0359 26.5031 9.91398 26.1047 9.95148 25.5515C9.9796 25.0359 10.0968 24.7406 10.4624 24.2578C10.978 23.5734 11.1655 23.0672 11.1655 22.3359C11.1655 21.6234 10.9734 21.0797 10.4999 20.4656C10.2515 20.1422 9.98429 19.6359 9.98429 19.4859C9.98429 19.4203 10.0265 19.4062 10.2327 19.4062C11.1187 19.4062 12.1687 20.0953 12.703 21.0281C12.8905 21.3469 13.003 21.4406 13.2046 21.4406C13.3312 21.4406 13.4015 21.4078 13.4859 21.3047C13.6499 21.1172 13.6077 20.939 13.2984 20.4703C12.7265 19.6172 11.9296 18.9937 11.0624 18.7265C10.7015 18.6187 9.81554 18.5906 9.42648 18.6797ZM9.23898 19.7906C9.31867 20.1047 9.54367 20.5265 9.82023 20.8875C9.96085 21.0703 10.1343 21.3422 10.2046 21.4969C10.3265 21.75 10.3359 21.8203 10.3359 22.3359C10.3359 22.8515 10.3265 22.9219 10.2093 23.1703C10.139 23.3203 9.95617 23.6109 9.80148 23.8125C9.32804 24.4406 9.14054 24.9609 9.14054 25.664C9.14054 26.3625 9.32804 26.8828 9.79679 27.5062C10.0921 27.9 10.228 28.1484 10.303 28.4156L10.3499 28.5937H10.1109C8.94835 28.589 7.81867 27.6562 7.21398 26.2078C7.13429 26.0203 7.0171 25.6265 6.94679 25.3406C6.78273 24.6375 6.77335 23.475 6.92335 22.7812C7.23742 21.3609 7.99679 20.2125 8.97648 19.6969C9.0796 19.6406 9.16867 19.5984 9.17335 19.5937C9.17804 19.5937 9.20617 19.6828 9.23898 19.7906Z" fill="white"/>
<path d="M15.7635 21.1592C14.1182 21.4733 12.5667 22.6686 11.812 24.2014C11.2823 25.2889 11.1276 26.4983 11.4182 27.3608C11.8073 28.5186 12.8573 29.3155 14.0854 29.3764C16.162 29.4796 18.2714 28.0967 19.1854 26.0249C19.4479 25.4389 19.5604 24.8858 19.5651 24.1639C19.5698 23.5592 19.5604 23.4796 19.4385 23.1327C19.2651 22.6405 19.0448 22.2842 18.6979 21.9421C18.3839 21.6327 17.8589 21.3327 17.4135 21.2155C17.0198 21.1077 16.1807 21.0796 15.7635 21.1592ZM17.1229 21.9608C17.2729 21.9983 17.4979 22.0827 17.6245 22.1483C17.8589 22.2655 18.187 22.528 18.187 22.5936C18.187 22.6592 17.7839 22.7811 17.3526 22.8514C16.6354 22.9686 16.2042 23.1749 15.7776 23.6014C15.3604 24.0139 15.126 24.5108 15.0464 25.1483C14.976 25.6921 14.8401 25.9967 14.512 26.3249C14.1792 26.6577 13.9073 26.7796 13.3073 26.8592C13.0917 26.8874 12.787 26.9671 12.6323 27.028C12.4776 27.0936 12.3229 27.1499 12.2854 27.1546C12.1776 27.1686 12.1026 26.8358 12.0979 26.3389C12.0792 24.0889 14.226 21.9327 16.5229 21.8952C16.7057 21.8952 16.9776 21.9233 17.1229 21.9608ZM18.7026 23.4702C18.9229 24.2296 18.712 25.3311 18.1589 26.2686C17.9292 26.6624 17.3245 27.328 16.8979 27.6561C15.9323 28.4014 14.7182 28.7389 13.7714 28.528C13.4104 28.4483 12.9698 28.2233 12.7542 28.0077L12.637 27.8952L12.8479 27.8014C12.9604 27.7499 13.2557 27.6749 13.4995 27.6374C14.2214 27.5202 14.587 27.3561 15.0182 26.9577C15.4823 26.5264 15.7448 25.9827 15.8432 25.2514C15.8995 24.8061 16.0542 24.4639 16.3214 24.1921C16.612 23.9014 16.9307 23.7327 17.3151 23.6717C17.8495 23.5827 18.2479 23.4842 18.4214 23.3905C18.6417 23.2686 18.6417 23.2733 18.7026 23.4702Z" fill="white"/>
</svg>
