<svg width="54" height="55" viewBox="0 0 54 55" fill="none" xmlns="http://www.w3.org/2000/svg">
<rect x="9" width="36" height="36" rx="18" fill="#00C9A7"/>
<path d="M21.1172 6.86719L21 6.97969V10.2422V13.5H18.4922H15.9797L15.8672 13.6172L15.75 13.7297V21.375V29.0203L15.8672 29.1328L15.9797 29.25H27H38.0203L38.1328 29.1328L38.25 29.0203V21.375V13.7297L38.1328 13.6172L38.0203 13.5H35.5078H33V10.2422V6.97969L32.8828 6.86719L32.7703 6.75H27H21.2297L21.1172 6.86719ZM32.25 18V28.5H30.5625H28.875V26.625V24.75H29.25H29.625V24.375V24H27H24.375V24.375V24.75H24.75H25.125V26.625V28.5H23.4375H21.75V18V7.5H27H32.25V18ZM21 21.375V28.5H18.75H16.5V21.375V14.25H18.75H21V21.375ZM37.5 21.375V28.5H35.25H33V21.375V14.25H35.25H37.5V21.375ZM28.125 26.625V28.5H27H25.875V26.625V24.75H27H28.125V26.625Z" fill="white"/>
<path d="M25.9922 8.36719C25.8797 8.475 25.875 8.50312 25.875 9.11719V9.75H25.2422C24.6281 9.75 24.6 9.75469 24.4922 9.86719C24.375 9.97969 24.375 9.98906 24.375 10.875C24.375 11.7609 24.375 11.7703 24.4922 11.8828C24.6 11.9953 24.6281 12 25.2422 12H25.875V12.6328C25.875 13.2469 25.8797 13.275 25.9922 13.3828C26.1047 13.5 26.1141 13.5 27 13.5C27.8859 13.5 27.8953 13.5 28.0078 13.3828C28.1203 13.275 28.125 13.2469 28.125 12.6328V12H28.7578C29.3719 12 29.4 11.9953 29.5078 11.8828C29.625 11.7703 29.625 11.7609 29.625 10.875C29.625 9.98906 29.625 9.97969 29.5078 9.86719C29.4 9.75469 29.3719 9.75 28.7578 9.75H28.125V9.11719C28.125 8.50312 28.1203 8.475 28.0078 8.36719C27.8953 8.25 27.8859 8.25 27 8.25C26.1141 8.25 26.1047 8.25 25.9922 8.36719ZM27.375 9.63281C27.375 10.2469 27.3797 10.275 27.4922 10.3828C27.6 10.4953 27.6281 10.5 28.2422 10.5H28.875V10.875V11.25H28.2422C27.6281 11.25 27.6 11.2547 27.4922 11.3672C27.3797 11.475 27.375 11.5031 27.375 12.1172V12.75H27H26.625V12.1172C26.625 11.5031 26.6203 11.475 26.5078 11.3672C26.4 11.2547 26.3719 11.25 25.7578 11.25H25.125V10.875V10.5H25.7578C26.3719 10.5 26.4 10.4953 26.5078 10.3828C26.6203 10.275 26.625 10.2469 26.625 9.63281V9H27H27.375V9.63281Z" fill="white"/>
<path d="M22.6173 14.3671C22.5001 14.4796 22.5001 14.489 22.5001 15.3749C22.5001 16.5796 22.4204 16.4999 23.6251 16.4999C24.8298 16.4999 24.7501 16.5796 24.7501 15.3749C24.7501 14.1702 24.8298 14.2499 23.6251 14.2499C22.7392 14.2499 22.7298 14.2499 22.6173 14.3671ZM24.0001 15.3749V15.7499H23.6251H23.2501V15.3749V14.9999H23.6251H24.0001V15.3749Z" fill="white"/>
<path d="M25.9923 14.3671C25.8751 14.4796 25.8751 14.489 25.8751 15.3749C25.8751 16.5796 25.7954 16.4999 27.0001 16.4999C27.886 16.4999 27.8954 16.4999 28.0079 16.3827C28.1251 16.2702 28.1251 16.2608 28.1251 15.3749C28.1251 14.1702 28.2048 14.2499 27.0001 14.2499C26.1142 14.2499 26.1048 14.2499 25.9923 14.3671ZM27.3751 15.3749V15.7499H27.0001H26.6251V15.3749V14.9999H27.0001H27.3751V15.3749Z" fill="white"/>
<path d="M29.3673 14.3671C29.2501 14.4796 29.2501 14.489 29.2501 15.3749C29.2501 16.5796 29.1704 16.4999 30.3751 16.4999C31.261 16.4999 31.2704 16.4999 31.3829 16.3827C31.5001 16.2702 31.5001 16.2608 31.5001 15.3749C31.5001 14.1702 31.5798 14.2499 30.3751 14.2499C29.4892 14.2499 29.4798 14.2499 29.3673 14.3671ZM30.7501 15.3749V15.7499H30.3751H30.0001V15.3749V14.9999H30.3751H30.7501V15.3749Z" fill="white"/>
<path d="M22.6173 17.3671C22.5001 17.4796 22.5001 17.489 22.5001 18.3749C22.5001 19.5796 22.4204 19.4999 23.6251 19.4999C24.511 19.4999 24.5204 19.4999 24.6329 19.3827C24.7501 19.2702 24.7501 19.2608 24.7501 18.3749C24.7501 17.1702 24.8298 17.2499 23.6251 17.2499C22.7392 17.2499 22.7298 17.2499 22.6173 17.3671ZM24.0001 18.3749V18.7499H23.6251H23.2501V18.3749V17.9999H23.6251H24.0001V18.3749Z" fill="white"/>
<path d="M25.9923 17.3671C25.8751 17.4796 25.8751 17.489 25.8751 18.3749C25.8751 19.5796 25.7954 19.4999 27.0001 19.4999C28.2048 19.4999 28.1251 19.5796 28.1251 18.3749C28.1251 17.1702 28.2048 17.2499 27.0001 17.2499C26.1142 17.2499 26.1048 17.2499 25.9923 17.3671ZM27.3751 18.3749V18.7499H27.0001H26.6251V18.3749V17.9999H27.0001H27.3751V18.3749Z" fill="white"/>
<path d="M29.3673 17.3671C29.2501 17.4796 29.2501 17.489 29.2501 18.3749C29.2501 19.5796 29.1704 19.4999 30.3751 19.4999C31.5798 19.4999 31.5001 19.5796 31.5001 18.3749C31.5001 17.1702 31.5798 17.2499 30.3751 17.2499C29.4892 17.2499 29.4798 17.2499 29.3673 17.3671ZM30.7501 18.3749V18.7499H30.3751H30.0001V18.3749V17.9999H30.3751H30.7501V18.3749Z" fill="white"/>
<path d="M22.6173 20.3671C22.5001 20.4796 22.5001 20.489 22.5001 21.3749C22.5001 22.5796 22.4204 22.4999 23.6251 22.4999C24.511 22.4999 24.5204 22.4999 24.6329 22.3827C24.7501 22.2702 24.7501 22.2608 24.7501 21.3749C24.7501 20.1702 24.8298 20.2499 23.6251 20.2499C22.7392 20.2499 22.7298 20.2499 22.6173 20.3671ZM24.0001 21.3749V21.7499H23.6251H23.2501V21.3749V20.9999H23.6251H24.0001V21.3749Z" fill="white"/>
<path d="M25.9923 20.3671C25.8751 20.4796 25.8751 20.489 25.8751 21.3749C25.8751 22.5796 25.7954 22.4999 27.0001 22.4999C28.2048 22.4999 28.1251 22.5796 28.1251 21.3749C28.1251 20.1702 28.2048 20.2499 27.0001 20.2499C26.1142 20.2499 26.1048 20.2499 25.9923 20.3671ZM27.3751 21.3749V21.7499H27.0001H26.6251V21.3749V20.9999H27.0001H27.3751V21.3749Z" fill="white"/>
<path d="M29.3673 20.3671C29.2501 20.4796 29.2501 20.489 29.2501 21.3749C29.2501 22.5796 29.1704 22.4999 30.3751 22.4999C31.5798 22.4999 31.5001 22.5796 31.5001 21.3749C31.5001 20.1702 31.5798 20.2499 30.3751 20.2499C29.4892 20.2499 29.4798 20.2499 29.3673 20.3671ZM30.7501 21.3749V21.7499H30.3751H30.0001V21.3749V20.9999H30.3751H30.7501V21.3749Z" fill="white"/>
<path d="M30.75 24.375V24.75H31.125H31.5V24.375V24H31.125H30.75V24.375Z" fill="white"/>
<path d="M30.75 25.875V26.25H31.125H31.5V25.875V25.5H31.125H30.75V25.875Z" fill="white"/>
<path d="M30.75 27.375V27.75H31.125H31.5V27.375V27H31.125H30.75V27.375Z" fill="white"/>
<path d="M17.3672 15.1172L17.25 15.2297V16.5V17.7703L17.3672 17.8828L17.4797 18H18.75H20.0203L20.1328 17.8828L20.25 17.7703V16.5V15.2297L20.1328 15.1172L20.0203 15H18.75H17.4797L17.3672 15.1172ZM19.5 16.5V17.25H18.75H18V16.5V15.75H18.75H19.5V16.5Z" fill="white"/>
<path d="M17.3672 18.8672L17.25 18.9797V20.25V21.5203L17.3672 21.6328L17.4797 21.75H18.75H20.0203L20.1328 21.6328L20.25 21.5203V20.25V18.9797L20.1328 18.8672L20.0203 18.75H18.75H17.4797L17.3672 18.8672ZM19.5 20.25V21H18.75H18V20.25V19.5H18.75H19.5V20.25Z" fill="white"/>
<path d="M17.3672 22.6172L17.25 22.7297V24V25.2703L17.3672 25.3828L17.4797 25.5H18.75H20.0203L20.1328 25.3828L20.25 25.2703V24V22.7297L20.1328 22.6172L20.0203 22.5H18.75H17.4797L17.3672 22.6172ZM19.5 24V24.75H18.75H18V24V23.25H18.75H19.5V24Z" fill="white"/>
<path d="M33.8672 15.1172L33.75 15.2297V16.5V17.7703L33.8672 17.8828L33.9797 18H35.25H36.5203L36.6328 17.8828L36.75 17.7703V16.5V15.2297L36.6328 15.1172L36.5203 15H35.25H33.9797L33.8672 15.1172ZM36 16.5V17.25H35.25H34.5V16.5V15.75H35.25H36V16.5Z" fill="white"/>
<path d="M33.8672 18.8672L33.75 18.9797V20.25V21.5203L33.8672 21.6328L33.9797 21.75H35.25H36.5203L36.6328 21.6328L36.75 21.5203V20.25V18.9797L36.6328 18.8672L36.5203 18.75H35.25H33.9797L33.8672 18.8672ZM36 20.25V21H35.25H34.5V20.25V19.5H35.25H36V20.25Z" fill="white"/>
<path d="M33.8672 22.6172L33.75 22.7297V24V25.2703L33.8672 25.3828L33.9797 25.5H35.25H36.5203L36.6328 25.3828L36.75 25.2703V24V22.7297L36.6328 22.6172L36.5203 22.5H35.25H33.9797L33.8672 22.6172ZM36 24V24.75H35.25H34.5V24V23.25H35.25H36V24Z" fill="white"/>
<path d="M23.926 44.46V46.098H21.028V44.46H23.926ZM19.894 47.232H16.506V45.174H19.894V47.232ZM21.028 47.036H23.926V49.094H25.088V41.492H23.926V43.536H21.028V42.262H19.894V44.264H16.506V42.262H15.372V48.156H21.028V47.036ZM20.93 53.126C19.054 53.126 17.906 52.594 17.906 51.684C17.906 50.774 19.054 50.228 20.93 50.228C22.834 50.228 23.982 50.774 23.982 51.684C23.982 52.594 22.834 53.126 20.93 53.126ZM20.93 49.346C18.354 49.346 16.758 50.2 16.758 51.684C16.758 53.168 18.354 54.022 20.93 54.022C23.52 54.022 25.13 53.168 25.13 51.684C25.13 50.2 23.52 49.346 20.93 49.346ZM33.7009 48.898V49.752H36.2489V51.04H37.3969V41.478H36.2489V48.898H33.7009ZM31.1389 42.836C32.3289 42.836 33.1409 43.368 33.1409 44.166C33.1409 44.978 32.3289 45.51 31.1389 45.51C29.9489 45.51 29.1369 44.978 29.1369 44.166C29.1369 43.368 29.9489 42.836 31.1389 42.836ZM31.1389 46.364C32.9729 46.364 34.2329 45.51 34.2329 44.166C34.2329 42.85 32.9729 41.982 31.1389 41.982C29.3049 41.982 28.0449 42.85 28.0449 44.166C28.0449 45.51 29.3049 46.364 31.1389 46.364ZM30.6909 50.592H31.8389V48.114C32.9729 48.044 34.1349 47.918 35.2409 47.75L35.1429 46.924C32.4829 47.26 29.3749 47.288 27.0509 47.288L27.2049 48.24C28.2409 48.24 29.4449 48.226 30.6909 48.17V50.592ZM29.9909 52.818V50.102H28.8429V53.756H37.7189V52.818H29.9909Z" fill="#3F3D56"/>
</svg>
