<svg width="36" height="36" viewBox="0 0 36 36" fill="none" xmlns="http://www.w3.org/2000/svg">
<rect width="36" height="36" rx="18" fill="#00C9A7"/>
<path d="M12.1172 6.86719L12 6.97969V10.2422V13.5H9.49219H6.97969L6.86719 13.6172L6.75 13.7297V21.375V29.0203L6.86719 29.1328L6.97969 29.25H18H29.0203L29.1328 29.1328L29.25 29.0203V21.375V13.7297L29.1328 13.6172L29.0203 13.5H26.5078H24V10.2422V6.97969L23.8828 6.86719L23.7703 6.75H18H12.2297L12.1172 6.86719ZM23.25 18V28.5H21.5625H19.875V26.625V24.75H20.25H20.625V24.375V24H18H15.375V24.375V24.75H15.75H16.125V26.625V28.5H14.4375H12.75V18V7.5H18H23.25V18ZM12 21.375V28.5H9.75H7.5V21.375V14.25H9.75H12V21.375ZM28.5 21.375V28.5H26.25H24V21.375V14.25H26.25H28.5V21.375ZM19.125 26.625V28.5H18H16.875V26.625V24.75H18H19.125V26.625Z" fill="white"/>
<path d="M16.9922 8.36719C16.8797 8.475 16.875 8.50312 16.875 9.11719V9.75H16.2422C15.6281 9.75 15.6 9.75469 15.4922 9.86719C15.375 9.97969 15.375 9.98906 15.375 10.875C15.375 11.7609 15.375 11.7703 15.4922 11.8828C15.6 11.9953 15.6281 12 16.2422 12H16.875V12.6328C16.875 13.2469 16.8797 13.275 16.9922 13.3828C17.1047 13.5 17.1141 13.5 18 13.5C18.8859 13.5 18.8953 13.5 19.0078 13.3828C19.1203 13.275 19.125 13.2469 19.125 12.6328V12H19.7578C20.3719 12 20.4 11.9953 20.5078 11.8828C20.625 11.7703 20.625 11.7609 20.625 10.875C20.625 9.98906 20.625 9.97969 20.5078 9.86719C20.4 9.75469 20.3719 9.75 19.7578 9.75H19.125V9.11719C19.125 8.50312 19.1203 8.475 19.0078 8.36719C18.8953 8.25 18.8859 8.25 18 8.25C17.1141 8.25 17.1047 8.25 16.9922 8.36719ZM18.375 9.63281C18.375 10.2469 18.3797 10.275 18.4922 10.3828C18.6 10.4953 18.6281 10.5 19.2422 10.5H19.875V10.875V11.25H19.2422C18.6281 11.25 18.6 11.2547 18.4922 11.3672C18.3797 11.475 18.375 11.5031 18.375 12.1172V12.75H18H17.625V12.1172C17.625 11.5031 17.6203 11.475 17.5078 11.3672C17.4 11.2547 17.3719 11.25 16.7578 11.25H16.125V10.875V10.5H16.7578C17.3719 10.5 17.4 10.4953 17.5078 10.3828C17.6203 10.275 17.625 10.2469 17.625 9.63281V9H18H18.375V9.63281Z" fill="white"/>
<path d="M13.6173 14.3671C13.5001 14.4796 13.5001 14.489 13.5001 15.3749C13.5001 16.5796 13.4204 16.4999 14.6251 16.4999C15.8298 16.4999 15.7501 16.5796 15.7501 15.3749C15.7501 14.1702 15.8298 14.2499 14.6251 14.2499C13.7392 14.2499 13.7298 14.2499 13.6173 14.3671ZM15.0001 15.3749V15.7499H14.6251H14.2501V15.3749V14.9999H14.6251H15.0001V15.3749Z" fill="white"/>
<path d="M16.9923 14.3671C16.8751 14.4796 16.8751 14.489 16.8751 15.3749C16.8751 16.5796 16.7954 16.4999 18.0001 16.4999C18.886 16.4999 18.8954 16.4999 19.0079 16.3827C19.1251 16.2702 19.1251 16.2608 19.1251 15.3749C19.1251 14.1702 19.2048 14.2499 18.0001 14.2499C17.1142 14.2499 17.1048 14.2499 16.9923 14.3671ZM18.3751 15.3749V15.7499H18.0001H17.6251V15.3749V14.9999H18.0001H18.3751V15.3749Z" fill="white"/>
<path d="M20.3673 14.3671C20.2501 14.4796 20.2501 14.489 20.2501 15.3749C20.2501 16.5796 20.1704 16.4999 21.3751 16.4999C22.261 16.4999 22.2704 16.4999 22.3829 16.3827C22.5001 16.2702 22.5001 16.2608 22.5001 15.3749C22.5001 14.1702 22.5798 14.2499 21.3751 14.2499C20.4892 14.2499 20.4798 14.2499 20.3673 14.3671ZM21.7501 15.3749V15.7499H21.3751H21.0001V15.3749V14.9999H21.3751H21.7501V15.3749Z" fill="white"/>
<path d="M13.6173 17.3671C13.5001 17.4796 13.5001 17.489 13.5001 18.3749C13.5001 19.5796 13.4204 19.4999 14.6251 19.4999C15.511 19.4999 15.5204 19.4999 15.6329 19.3827C15.7501 19.2702 15.7501 19.2608 15.7501 18.3749C15.7501 17.1702 15.8298 17.2499 14.6251 17.2499C13.7392 17.2499 13.7298 17.2499 13.6173 17.3671ZM15.0001 18.3749V18.7499H14.6251H14.2501V18.3749V17.9999H14.6251H15.0001V18.3749Z" fill="white"/>
<path d="M16.9923 17.3671C16.8751 17.4796 16.8751 17.489 16.8751 18.3749C16.8751 19.5796 16.7954 19.4999 18.0001 19.4999C19.2048 19.4999 19.1251 19.5796 19.1251 18.3749C19.1251 17.1702 19.2048 17.2499 18.0001 17.2499C17.1142 17.2499 17.1048 17.2499 16.9923 17.3671ZM18.3751 18.3749V18.7499H18.0001H17.6251V18.3749V17.9999H18.0001H18.3751V18.3749Z" fill="white"/>
<path d="M20.3673 17.3671C20.2501 17.4796 20.2501 17.489 20.2501 18.3749C20.2501 19.5796 20.1704 19.4999 21.3751 19.4999C22.5798 19.4999 22.5001 19.5796 22.5001 18.3749C22.5001 17.1702 22.5798 17.2499 21.3751 17.2499C20.4892 17.2499 20.4798 17.2499 20.3673 17.3671ZM21.7501 18.3749V18.7499H21.3751H21.0001V18.3749V17.9999H21.3751H21.7501V18.3749Z" fill="white"/>
<path d="M13.6173 20.3671C13.5001 20.4796 13.5001 20.489 13.5001 21.3749C13.5001 22.5796 13.4204 22.4999 14.6251 22.4999C15.511 22.4999 15.5204 22.4999 15.6329 22.3827C15.7501 22.2702 15.7501 22.2608 15.7501 21.3749C15.7501 20.1702 15.8298 20.2499 14.6251 20.2499C13.7392 20.2499 13.7298 20.2499 13.6173 20.3671ZM15.0001 21.3749V21.7499H14.6251H14.2501V21.3749V20.9999H14.6251H15.0001V21.3749Z" fill="white"/>
<path d="M16.9923 20.3671C16.8751 20.4796 16.8751 20.489 16.8751 21.3749C16.8751 22.5796 16.7954 22.4999 18.0001 22.4999C19.2048 22.4999 19.1251 22.5796 19.1251 21.3749C19.1251 20.1702 19.2048 20.2499 18.0001 20.2499C17.1142 20.2499 17.1048 20.2499 16.9923 20.3671ZM18.3751 21.3749V21.7499H18.0001H17.6251V21.3749V20.9999H18.0001H18.3751V21.3749Z" fill="white"/>
<path d="M20.3673 20.3671C20.2501 20.4796 20.2501 20.489 20.2501 21.3749C20.2501 22.5796 20.1704 22.4999 21.3751 22.4999C22.5798 22.4999 22.5001 22.5796 22.5001 21.3749C22.5001 20.1702 22.5798 20.2499 21.3751 20.2499C20.4892 20.2499 20.4798 20.2499 20.3673 20.3671ZM21.7501 21.3749V21.7499H21.3751H21.0001V21.3749V20.9999H21.3751H21.7501V21.3749Z" fill="white"/>
<path d="M21.75 24.375V24.75H22.125H22.5V24.375V24H22.125H21.75V24.375Z" fill="white"/>
<path d="M21.75 25.875V26.25H22.125H22.5V25.875V25.5H22.125H21.75V25.875Z" fill="white"/>
<path d="M21.75 27.375V27.75H22.125H22.5V27.375V27H22.125H21.75V27.375Z" fill="white"/>
<path d="M8.36719 15.1172L8.25 15.2297V16.5V17.7703L8.36719 17.8828L8.47969 18H9.75H11.0203L11.1328 17.8828L11.25 17.7703V16.5V15.2297L11.1328 15.1172L11.0203 15H9.75H8.47969L8.36719 15.1172ZM10.5 16.5V17.25H9.75H9V16.5V15.75H9.75H10.5V16.5Z" fill="white"/>
<path d="M8.36719 18.8672L8.25 18.9797V20.25V21.5203L8.36719 21.6328L8.47969 21.75H9.75H11.0203L11.1328 21.6328L11.25 21.5203V20.25V18.9797L11.1328 18.8672L11.0203 18.75H9.75H8.47969L8.36719 18.8672ZM10.5 20.25V21H9.75H9V20.25V19.5H9.75H10.5V20.25Z" fill="white"/>
<path d="M8.36719 22.6172L8.25 22.7297V24V25.2703L8.36719 25.3828L8.47969 25.5H9.75H11.0203L11.1328 25.3828L11.25 25.2703V24V22.7297L11.1328 22.6172L11.0203 22.5H9.75H8.47969L8.36719 22.6172ZM10.5 24V24.75H9.75H9V24V23.25H9.75H10.5V24Z" fill="white"/>
<path d="M24.8672 15.1172L24.75 15.2297V16.5V17.7703L24.8672 17.8828L24.9797 18H26.25H27.5203L27.6328 17.8828L27.75 17.7703V16.5V15.2297L27.6328 15.1172L27.5203 15H26.25H24.9797L24.8672 15.1172ZM27 16.5V17.25H26.25H25.5V16.5V15.75H26.25H27V16.5Z" fill="white"/>
<path d="M24.8672 18.8672L24.75 18.9797V20.25V21.5203L24.8672 21.6328L24.9797 21.75H26.25H27.5203L27.6328 21.6328L27.75 21.5203V20.25V18.9797L27.6328 18.8672L27.5203 18.75H26.25H24.9797L24.8672 18.8672ZM27 20.25V21H26.25H25.5V20.25V19.5H26.25H27V20.25Z" fill="white"/>
<path d="M24.8672 22.6172L24.75 22.7297V24V25.2703L24.8672 25.3828L24.9797 25.5H26.25H27.5203L27.6328 25.3828L27.75 25.2703V24V22.7297L27.6328 22.6172L27.5203 22.5H26.25H24.9797L24.8672 22.6172ZM27 24V24.75H26.25H25.5V24V23.25H26.25H27V24Z" fill="white"/>
</svg>
