<svg width="36" height="36" viewBox="0 0 36 36" fill="none" xmlns="http://www.w3.org/2000/svg">
<rect width="36" height="36" rx="18" fill="#FF6F91"/>
<path d="M11.2355 7.55156C10.7058 7.67812 10.6121 7.77187 8.90113 9.91875C7.90738 11.1609 7.32144 11.8594 7.26988 11.8594C7.10581 11.8594 6.61363 12.1453 6.42144 12.3562C6.02769 12.7828 6.023 12.8062 6.00894 14.5359C5.99488 16.1906 6.01831 16.4625 6.248 16.9688C6.41206 17.3438 6.76363 17.7797 7.07769 18.0094L7.35425 18.2109V22.8844L7.35894 27.5625H6.82456C6.33238 27.5625 6.27613 27.5719 6.16363 27.6703C6.08394 27.7359 6.03238 27.8391 6.01363 27.9656C5.99019 28.1344 6.00894 28.1812 6.13081 28.3172L6.27144 28.4766H17.9996H29.7277L29.8636 28.3219C30.0136 28.1531 30.0324 27.9984 29.9292 27.7969C29.8214 27.5906 29.7277 27.5625 29.1605 27.5625H28.6402V26.2453C28.6402 25.3687 28.6214 24.8953 28.5886 24.8297C28.4386 24.5344 28.0683 24.4688 27.8386 24.6984L27.7027 24.8344V26.1984V27.5625H21.2808H14.8589V23.9859C14.8589 20.6719 14.8496 20.4047 14.7746 20.3156C14.6105 20.1141 14.5824 20.1094 12.3043 20.1094H10.1152L9.95581 20.2687L9.79644 20.4281V23.9953V27.5625H9.04644H8.29644V23.0719V18.5766L8.63863 18.5953C9.40269 18.6422 10.1574 18.3422 10.7339 17.7656L11.0808 17.4141L11.4371 17.7703C12.1449 18.4828 13.0918 18.7594 14.0339 18.5156C14.5636 18.3797 14.9246 18.1734 15.3371 17.7656L15.698 17.4047L15.9089 17.6531C16.1949 17.9812 16.7293 18.3328 17.1605 18.4734C17.4371 18.5625 17.6058 18.5859 17.9996 18.5859C18.3933 18.5859 18.5621 18.5625 18.8386 18.4734C19.2699 18.3328 19.8043 17.9812 20.0902 17.6531L20.3011 17.4047L20.6621 17.7656C21.7824 18.8859 23.4558 18.8859 24.5621 17.7703L24.9183 17.4141L25.2652 17.7656C25.8417 18.3422 26.5964 18.6422 27.3652 18.5953L27.7027 18.5766V19.7906C27.7027 21.1266 27.7214 21.2203 27.9792 21.3281C28.1621 21.4031 28.3636 21.3516 28.5042 21.2062L28.6167 21.0844L28.6308 19.65L28.6496 18.2109L28.9214 18.0094C29.2308 17.7844 29.5589 17.3766 29.7417 16.9875C29.9761 16.4906 30.0042 16.2094 29.9902 14.5359C29.9761 13.0687 29.9714 12.9984 29.873 12.7828C29.6761 12.3562 29.2964 12.0187 28.8933 11.9062C28.6871 11.8453 28.6308 11.7844 27.1355 9.93281C26.2824 8.87812 25.5042 7.94531 25.3964 7.85625C25.2933 7.76719 25.1105 7.65469 24.9886 7.60781C24.7871 7.52812 24.4121 7.52344 18.0933 7.51406C14.273 7.51406 11.3386 7.52812 11.2355 7.55156ZM12.6089 8.47031C12.6089 8.49375 12.2011 9.24375 11.7043 10.1484L10.7996 11.7891L9.71206 11.8031C9.11206 11.8078 8.62456 11.8031 8.62456 11.7891C8.62456 11.7797 9.20581 11.0391 9.91363 10.1531C10.7996 9.0375 11.2402 8.52656 11.3293 8.49375C11.4793 8.4375 12.6089 8.41875 12.6089 8.47031ZM15.6558 8.55C15.6558 8.70937 15.2855 11.775 15.2668 11.7984C15.2574 11.8078 14.4886 11.8078 13.5605 11.8031L11.873 11.7891L12.7918 10.1156L13.7105 8.4375H14.6855H15.6558V8.55ZM19.5277 9.9375C19.6308 10.7484 19.7293 11.5031 19.7433 11.6109L19.7714 11.8125H17.9949H16.2136L16.2418 11.6578C16.2511 11.5781 16.3402 10.8656 16.4293 10.0781C16.523 9.29062 16.6074 8.60156 16.6168 8.54062L16.6402 8.4375L17.9855 8.44687L19.3308 8.46094L19.5277 9.9375ZM23.1793 10.0781C23.6714 10.9828 24.0793 11.7422 24.0839 11.7656C24.0933 11.7984 23.5074 11.8125 22.4105 11.8125H20.723L20.6949 11.6578C20.6527 11.3906 20.2964 8.61094 20.2964 8.52187C20.2964 8.44219 20.3621 8.4375 21.2949 8.4375H22.2886L23.1793 10.0781ZM24.6699 8.50312C24.7824 8.54531 25.1667 8.99062 26.0902 10.1297C26.7839 10.9922 27.3699 11.7234 27.3933 11.7516C27.4214 11.7984 27.1917 11.8125 26.3058 11.8125H25.1855L24.2902 10.1578C23.7933 9.24844 23.3902 8.48906 23.3902 8.47031C23.3902 8.40937 24.5105 8.43281 24.6699 8.50312ZM10.5933 13.6172V14.4844H8.78863H6.98394V13.8516C6.98394 13.1016 7.02613 12.9797 7.32613 12.8391C7.50425 12.7594 7.64956 12.75 9.0605 12.75H10.5933V13.6172ZM15.2339 13.6172V14.4844H13.3824H11.5308V13.6172V12.75H13.3824H15.2339V13.6172ZM19.8277 13.6172V14.4844H17.9996H16.1714V13.6172V12.75H17.9996H19.8277V13.6172ZM24.4589 13.6266L24.4683 14.4844H22.6168H20.7652V13.6172V12.75L22.6074 12.7594L24.4449 12.7734L24.4589 13.6266ZM28.748 12.8578C29.0152 13.0312 29.0621 13.1812 29.0621 13.8609V14.4844H27.2339H25.4058V13.6172V12.7453L27.0136 12.7594C28.4714 12.7734 28.6355 12.7828 28.748 12.8578ZM10.5839 15.8766C10.5652 16.275 10.5464 16.3734 10.4199 16.6172C9.8855 17.6625 8.6105 17.9859 7.7105 17.3062C7.20894 16.9266 6.93706 16.3781 6.93706 15.7453V15.4219H8.76988H10.6027L10.5839 15.8766ZM15.2199 15.8484C15.1964 16.1812 15.1636 16.3359 15.0558 16.5656C14.5074 17.7375 13.0636 18.0234 12.1214 17.1562C11.7605 16.8234 11.5308 16.2281 11.5308 15.6187V15.4219H13.3871H15.248L15.2199 15.8484ZM19.8183 15.8531C19.7902 16.5141 19.5511 16.9688 19.0496 17.325C18.7824 17.5172 18.3089 17.6719 17.9996 17.6719C17.6902 17.6719 17.2168 17.5172 16.9496 17.325C16.448 16.9688 16.2089 16.5141 16.1808 15.8531L16.1621 15.4219H17.9996H19.8371L19.8183 15.8531ZM24.4683 15.6187C24.4683 16.4859 24.098 17.1281 23.3996 17.4703C23.0714 17.6344 23.0105 17.6484 22.6449 17.6484C22.1621 17.6484 21.8714 17.5594 21.5386 17.3062C21.0511 16.9359 20.8214 16.4953 20.7793 15.8297L20.7511 15.4219H22.6121H24.4683V15.6187ZM29.0621 15.7453C29.0621 16.3781 28.7902 16.9266 28.2886 17.3062C27.9558 17.5594 27.6652 17.6484 27.1871 17.6484C26.8402 17.6484 26.7511 17.6297 26.4746 17.4984C26.0808 17.3156 25.748 16.9875 25.5699 16.6172C25.4574 16.3828 25.4293 16.2609 25.4152 15.8766L25.3964 15.4219H27.2292H29.0621V15.7453ZM13.9214 24.3047V27.5625H12.3277H10.7339V24.3047V21.0469H12.3277H13.9214V24.3047Z" fill="white"/>
<path d="M11.3855 24.0421C11.0059 24.4265 11.5168 25.0218 11.9715 24.7265C12.2105 24.5671 12.2387 24.2296 12.0371 24.0093C11.8824 23.8499 11.5637 23.864 11.3855 24.0421Z" fill="white"/>
<path d="M16.8891 21.0656L16.7578 21.1781L16.7437 22.8421L16.7297 24.5062L16.5469 24.5343C16.1906 24.5906 16.0453 25.0171 16.2844 25.2984L16.3969 25.4296L18.4406 25.4437L20.4797 25.4578L20.6297 25.3218C20.7516 25.2093 20.7797 25.1531 20.7797 24.9843C20.7797 24.8156 20.7516 24.7593 20.6297 24.6468C20.5406 24.5671 20.4281 24.5156 20.3437 24.5156H20.2031V22.8703V21.225L20.0672 21.089L19.9312 20.9531H18.4734H17.0203L16.8891 21.0656ZM19.2656 23.2031V24.5156H18.4687H17.6719V23.2031V21.8906H18.4687H19.2656V23.2031Z" fill="white"/>
<path d="M22.6822 21.0891L22.5463 21.225V22.8703V24.5156H22.4057C22.3213 24.5156 22.2088 24.5672 22.1197 24.6469C21.9979 24.7594 21.9697 24.8156 21.9697 24.9844C21.9697 25.1531 21.9979 25.2094 22.1197 25.3219L22.265 25.4531H24.2854H26.3057L26.4416 25.3172C26.7135 25.0453 26.5729 24.5953 26.2025 24.5344L26.0197 24.5062L26.0057 22.8422L25.9916 21.1781L25.8604 21.0656L25.7291 20.9531H24.276H22.8182L22.6822 21.0891ZM25.0775 23.2031V24.5156H24.2807H23.4838V23.2031V21.8906H24.2807H25.0775V23.2031Z" fill="white"/>
<path d="M27.8391 22.5891C27.7406 22.6922 27.7031 22.7719 27.7031 22.8984C27.7031 23.1422 27.9094 23.3438 28.1578 23.3438C28.3734 23.3438 28.5141 23.2547 28.5938 23.0672C28.7812 22.6078 28.1953 22.2375 27.8391 22.5891Z" fill="white"/>
</svg>
