<svg width="54" height="55" viewBox="0 0 54 55" fill="none" xmlns="http://www.w3.org/2000/svg">
<rect x="9" width="36" height="36" rx="18" fill="#D9D9D9"/>
<path d="M20.2355 7.55156C19.7058 7.67812 19.6121 7.77187 17.9011 9.91875C16.9074 11.1609 16.3214 11.8594 16.2699 11.8594C16.1058 11.8594 15.6136 12.1453 15.4214 12.3562C15.0277 12.7828 15.023 12.8062 15.0089 14.5359C14.9949 16.1906 15.0183 16.4625 15.248 16.9688C15.4121 17.3438 15.7636 17.7797 16.0777 18.0094L16.3543 18.2109V22.8844L16.3589 27.5625H15.8246C15.3324 27.5625 15.2761 27.5719 15.1636 27.6703C15.0839 27.7359 15.0324 27.8391 15.0136 27.9656C14.9902 28.1344 15.0089 28.1812 15.1308 28.3172L15.2714 28.4766H26.9996H38.7277L38.8636 28.3219C39.0136 28.1531 39.0324 27.9984 38.9292 27.7969C38.8214 27.5906 38.7277 27.5625 38.1605 27.5625H37.6402V26.2453C37.6402 25.3687 37.6214 24.8953 37.5886 24.8297C37.4386 24.5344 37.0683 24.4688 36.8386 24.6984L36.7027 24.8344V26.1984V27.5625H30.2808H23.8589V23.9859C23.8589 20.6719 23.8496 20.4047 23.7746 20.3156C23.6105 20.1141 23.5824 20.1094 21.3043 20.1094H19.1152L18.9558 20.2687L18.7964 20.4281V23.9953V27.5625H18.0464H17.2964V23.0719V18.5766L17.6386 18.5953C18.4027 18.6422 19.1574 18.3422 19.7339 17.7656L20.0808 17.4141L20.4371 17.7703C21.1449 18.4828 22.0918 18.7594 23.0339 18.5156C23.5636 18.3797 23.9246 18.1734 24.3371 17.7656L24.698 17.4047L24.9089 17.6531C25.1949 17.9812 25.7293 18.3328 26.1605 18.4734C26.4371 18.5625 26.6058 18.5859 26.9996 18.5859C27.3933 18.5859 27.5621 18.5625 27.8386 18.4734C28.2699 18.3328 28.8043 17.9812 29.0902 17.6531L29.3011 17.4047L29.6621 17.7656C30.7824 18.8859 32.4558 18.8859 33.5621 17.7703L33.9183 17.4141L34.2652 17.7656C34.8417 18.3422 35.5964 18.6422 36.3652 18.5953L36.7027 18.5766V19.7906C36.7027 21.1266 36.7214 21.2203 36.9792 21.3281C37.1621 21.4031 37.3636 21.3516 37.5042 21.2062L37.6167 21.0844L37.6308 19.65L37.6496 18.2109L37.9214 18.0094C38.2308 17.7844 38.5589 17.3766 38.7417 16.9875C38.9761 16.4906 39.0042 16.2094 38.9902 14.5359C38.9761 13.0687 38.9714 12.9984 38.873 12.7828C38.6761 12.3562 38.2964 12.0187 37.8933 11.9062C37.6871 11.8453 37.6308 11.7844 36.1355 9.93281C35.2824 8.87812 34.5042 7.94531 34.3964 7.85625C34.2933 7.76719 34.1105 7.65469 33.9886 7.60781C33.7871 7.52812 33.4121 7.52344 27.0933 7.51406C23.273 7.51406 20.3386 7.52812 20.2355 7.55156ZM21.6089 8.47031C21.6089 8.49375 21.2011 9.24375 20.7043 10.1484L19.7996 11.7891L18.7121 11.8031C18.1121 11.8078 17.6246 11.8031 17.6246 11.7891C17.6246 11.7797 18.2058 11.0391 18.9136 10.1531C19.7996 9.0375 20.2402 8.52656 20.3293 8.49375C20.4793 8.4375 21.6089 8.41875 21.6089 8.47031ZM24.6558 8.55C24.6558 8.70937 24.2855 11.775 24.2668 11.7984C24.2574 11.8078 23.4886 11.8078 22.5605 11.8031L20.873 11.7891L21.7918 10.1156L22.7105 8.4375H23.6855H24.6558V8.55ZM28.5277 9.9375C28.6308 10.7484 28.7293 11.5031 28.7433 11.6109L28.7714 11.8125H26.9949H25.2136L25.2418 11.6578C25.2511 11.5781 25.3402 10.8656 25.4293 10.0781C25.523 9.29062 25.6074 8.60156 25.6168 8.54062L25.6402 8.4375L26.9855 8.44687L28.3308 8.46094L28.5277 9.9375ZM32.1793 10.0781C32.6714 10.9828 33.0793 11.7422 33.0839 11.7656C33.0933 11.7984 32.5074 11.8125 31.4105 11.8125H29.723L29.6949 11.6578C29.6527 11.3906 29.2964 8.61094 29.2964 8.52187C29.2964 8.44219 29.3621 8.4375 30.2949 8.4375H31.2886L32.1793 10.0781ZM33.6699 8.50312C33.7824 8.54531 34.1667 8.99062 35.0902 10.1297C35.7839 10.9922 36.3699 11.7234 36.3933 11.7516C36.4214 11.7984 36.1917 11.8125 35.3058 11.8125H34.1855L33.2902 10.1578C32.7933 9.24844 32.3902 8.48906 32.3902 8.47031C32.3902 8.40937 33.5105 8.43281 33.6699 8.50312ZM19.5933 13.6172V14.4844H17.7886H15.9839V13.8516C15.9839 13.1016 16.0261 12.9797 16.3261 12.8391C16.5043 12.7594 16.6496 12.75 18.0605 12.75H19.5933V13.6172ZM24.2339 13.6172V14.4844H22.3824H20.5308V13.6172V12.75H22.3824H24.2339V13.6172ZM28.8277 13.6172V14.4844H26.9996H25.1714V13.6172V12.75H26.9996H28.8277V13.6172ZM33.4589 13.6266L33.4683 14.4844H31.6168H29.7652V13.6172V12.75L31.6074 12.7594L33.4449 12.7734L33.4589 13.6266ZM37.748 12.8578C38.0152 13.0312 38.0621 13.1812 38.0621 13.8609V14.4844H36.2339H34.4058V13.6172V12.7453L36.0136 12.7594C37.4714 12.7734 37.6355 12.7828 37.748 12.8578ZM19.5839 15.8766C19.5652 16.275 19.5464 16.3734 19.4199 16.6172C18.8855 17.6625 17.6105 17.9859 16.7105 17.3062C16.2089 16.9266 15.9371 16.3781 15.9371 15.7453V15.4219H17.7699H19.6027L19.5839 15.8766ZM24.2199 15.8484C24.1964 16.1812 24.1636 16.3359 24.0558 16.5656C23.5074 17.7375 22.0636 18.0234 21.1214 17.1562C20.7605 16.8234 20.5308 16.2281 20.5308 15.6187V15.4219H22.3871H24.248L24.2199 15.8484ZM28.8183 15.8531C28.7902 16.5141 28.5511 16.9688 28.0496 17.325C27.7824 17.5172 27.3089 17.6719 26.9996 17.6719C26.6902 17.6719 26.2168 17.5172 25.9496 17.325C25.448 16.9688 25.2089 16.5141 25.1808 15.8531L25.1621 15.4219H26.9996H28.8371L28.8183 15.8531ZM33.4683 15.6187C33.4683 16.4859 33.098 17.1281 32.3996 17.4703C32.0714 17.6344 32.0105 17.6484 31.6449 17.6484C31.1621 17.6484 30.8714 17.5594 30.5386 17.3062C30.0511 16.9359 29.8214 16.4953 29.7793 15.8297L29.7511 15.4219H31.6121H33.4683V15.6187ZM38.0621 15.7453C38.0621 16.3781 37.7902 16.9266 37.2886 17.3062C36.9558 17.5594 36.6652 17.6484 36.1871 17.6484C35.8402 17.6484 35.7511 17.6297 35.4746 17.4984C35.0808 17.3156 34.748 16.9875 34.5699 16.6172C34.4574 16.3828 34.4293 16.2609 34.4152 15.8766L34.3964 15.4219H36.2292H38.0621V15.7453ZM22.9214 24.3047V27.5625H21.3277H19.7339V24.3047V21.0469H21.3277H22.9214V24.3047Z" fill="white"/>
<path d="M20.3855 24.0421C20.0059 24.4265 20.5168 25.0218 20.9715 24.7265C21.2105 24.5671 21.2387 24.2296 21.0371 24.0093C20.8824 23.8499 20.5637 23.864 20.3855 24.0421Z" fill="white"/>
<path d="M25.8891 21.0656L25.7578 21.1781L25.7437 22.8421L25.7297 24.5062L25.5469 24.5343C25.1906 24.5906 25.0453 25.0171 25.2844 25.2984L25.3969 25.4296L27.4406 25.4437L29.4797 25.4578L29.6297 25.3218C29.7516 25.2093 29.7797 25.1531 29.7797 24.9843C29.7797 24.8156 29.7516 24.7593 29.6297 24.6468C29.5406 24.5671 29.4281 24.5156 29.3437 24.5156H29.2031V22.8703V21.225L29.0672 21.089L28.9312 20.9531H27.4734H26.0203L25.8891 21.0656ZM28.2656 23.2031V24.5156H27.4687H26.6719V23.2031V21.8906H27.4687H28.2656V23.2031Z" fill="white"/>
<path d="M31.6822 21.0891L31.5463 21.225V22.8703V24.5156H31.4057C31.3213 24.5156 31.2088 24.5672 31.1197 24.6469C30.9979 24.7594 30.9697 24.8156 30.9697 24.9844C30.9697 25.1531 30.9979 25.2094 31.1197 25.3219L31.265 25.4531H33.2854H35.3057L35.4416 25.3172C35.7135 25.0453 35.5729 24.5953 35.2025 24.5344L35.0197 24.5062L35.0057 22.8422L34.9916 21.1781L34.8604 21.0656L34.7291 20.9531H33.276H31.8182L31.6822 21.0891ZM34.0775 23.2031V24.5156H33.2807H32.4838V23.2031V21.8906H33.2807H34.0775V23.2031Z" fill="white"/>
<path d="M36.8391 22.5891C36.7406 22.6922 36.7031 22.7719 36.7031 22.8984C36.7031 23.1422 36.9094 23.3438 37.1578 23.3438C37.3734 23.3438 37.5141 23.2547 37.5938 23.0672C37.7812 22.6078 37.1953 22.2375 36.8391 22.5891Z" fill="white"/>
<path d="M3.324 43.942H6.866V43.004H2.19V50.942H3.016C4.892 50.942 6.166 50.886 7.664 50.564L7.566 49.612C6.194 49.906 5.004 49.976 3.324 49.99V43.942ZM11.304 41.478V46.518H9.526V41.758H8.448V53.406H9.526V47.456H11.304V54.036H12.41V41.478H11.304ZM23.8049 46.938H21.6769V47.876H23.8049V49.584H24.9669V41.478H23.8049V44.502H21.6909V45.426H23.8049V46.938ZM21.6769 42.864H18.7929V41.366H17.6449V42.864H14.6489V43.788H21.6769V42.864ZM16.4409 46.756C16.4409 45.888 17.1549 45.314 18.2049 45.314C19.2549 45.314 19.9689 45.888 19.9689 46.756C19.9689 47.638 19.2549 48.212 18.2049 48.212C17.1549 48.212 16.4409 47.638 16.4409 46.756ZM21.0469 46.756C21.0469 45.356 19.8709 44.432 18.2049 44.432C16.5249 44.432 15.3629 45.356 15.3629 46.756C15.3629 48.17 16.5249 49.094 18.2049 49.094C19.8709 49.094 21.0469 48.17 21.0469 46.756ZM20.8509 53.14C19.0029 53.14 17.8549 52.678 17.8549 51.88C17.8549 51.068 19.0029 50.62 20.8509 50.62C22.6989 50.62 23.8329 51.068 23.8329 51.88C23.8329 52.678 22.6989 53.14 20.8509 53.14ZM20.8509 49.738C18.2469 49.738 16.6649 50.508 16.6649 51.88C16.6649 53.238 18.2469 54.022 20.8509 54.022C23.4409 54.022 25.0229 53.238 25.0229 51.88C25.0229 50.508 23.4409 49.738 20.8509 49.738ZM29.1238 43.662H32.6378V49.92H29.1238V43.662ZM28.0038 50.844H33.7578V42.738H28.0038V50.844ZM39.2318 46.49H37.1598V41.492H36.0118V54.036H37.1598V47.456H39.2318V46.49ZM50.4587 48.254H42.9967V46.266H50.0527V45.356H42.9967V43.494H50.3327V42.57H41.8347V49.178H50.4587V48.254ZM40.3647 51.474V52.412H51.7607V51.474H40.3647Z" fill="#3F3D56"/>
</svg>
