<svg width="54" height="55" viewBox="0 0 54 55" fill="none" xmlns="http://www.w3.org/2000/svg">
<rect x="9" width="36" height="36" rx="18" fill="#D9D9D9"/>
<g clip-path="url(#clip0_496_1318)">
<path d="M27.586 6.06552C27.4594 6.10302 27.2578 6.1874 27.1406 6.25302C26.8172 6.43584 24.4594 8.82177 24.3047 9.12646C23.8406 10.0311 24.2063 11.1374 25.125 11.5968C25.65 11.8593 26.2406 11.864 26.761 11.6155C27.0938 11.4561 29.5125 9.04209 29.6906 8.69521C30.1641 7.7624 29.7985 6.6749 28.8563 6.21084C28.4531 6.00927 27.975 5.95771 27.586 6.06552ZM28.3969 7.00771C28.8797 7.21396 29.0953 7.75771 28.8797 8.22646C28.8328 8.32959 28.6078 8.59209 28.3875 8.8124L27.9844 9.21084L27.3422 8.56396L26.6953 7.92177L27.0938 7.51865C27.6469 6.95615 27.9656 6.82959 28.3969 7.00771ZM26.6719 9.25771L27.3047 9.89052L26.9063 10.2936C26.686 10.514 26.4235 10.739 26.3203 10.7858C25.5844 11.128 24.7922 10.3733 25.1016 9.61865C25.1625 9.47334 25.9406 8.6249 26.0156 8.6249C26.0297 8.6249 26.325 8.91084 26.6719 9.25771Z" fill="white"/>
<path d="M15.961 8.61562C15.5204 8.76562 15.2017 9.10312 15.0657 9.54375C14.9626 9.88594 14.9673 15.0469 15.0751 15.4453C15.1782 15.8578 15.4313 16.2703 15.7501 16.5609L16.0313 16.8141V22.9312V29.0531L15.6517 29.0719C15.2907 29.0859 15.2673 29.0953 15.1313 29.2453C15.0142 29.3766 14.9954 29.4281 15.0188 29.5687C15.0329 29.6625 15.0985 29.7891 15.1642 29.8547L15.2813 29.9766L26.9767 29.9906L38.672 30L38.822 29.8641C38.9485 29.7516 38.9767 29.6953 38.9767 29.5312C38.9767 29.3672 38.9485 29.3109 38.822 29.1984C38.6813 29.0719 38.6392 29.0625 38.3204 29.0625H37.9688V22.9359V16.8141L38.2501 16.5609C38.4095 16.4156 38.6017 16.1812 38.6954 16.0125C39.0048 15.4594 39.0048 15.4641 38.9907 12.3703C38.9767 9.63281 38.9767 9.58125 38.8782 9.37031C38.747 9.08906 38.4423 8.78437 38.161 8.65312C37.9501 8.55937 37.8798 8.55469 35.7938 8.54062C33.5298 8.52656 33.4454 8.53125 33.3048 8.7375C33.2251 8.85 33.211 9.10781 33.2813 9.23438C33.3892 9.44062 33.4454 9.44531 35.6579 9.46875L37.7813 9.49219L37.9079 9.62344L38.0392 9.75L38.0532 11.25L38.0673 12.75H27.0001H15.9376V11.2734V9.79688L16.0735 9.64687L16.2095 9.49219L19.336 9.46875L22.4626 9.44531L22.5751 9.31406C22.7298 9.13594 22.7298 8.86406 22.5751 8.68594L22.4626 8.55469L19.3267 8.54531C16.4532 8.53594 16.1767 8.54062 15.961 8.61562ZM18.8438 14.3906C18.8438 14.9766 18.8298 15.1312 18.7501 15.3422C18.6282 15.6656 18.3985 15.9328 18.1126 16.0781C17.911 16.1812 17.822 16.1953 17.3907 16.1953C16.9595 16.1953 16.8704 16.1812 16.6688 16.0781C16.3829 15.9328 16.1532 15.6656 16.0313 15.3422C15.9517 15.1312 15.9376 14.9766 15.9376 14.3906V13.6875H17.3907H18.8438V14.3906ZM22.6876 14.3906C22.6876 14.9766 22.6735 15.1312 22.5938 15.3422C22.472 15.6656 22.2423 15.9328 21.9563 16.0781C21.7548 16.1812 21.6657 16.1953 21.2345 16.1953C20.8032 16.1953 20.7142 16.1812 20.5126 16.0781C20.2267 15.9328 19.997 15.6656 19.8751 15.3422C19.7954 15.1312 19.7813 14.9766 19.7813 14.3906V13.6875H21.2345H22.6876V14.3906ZM26.5313 14.3906C26.5313 14.9766 26.5173 15.1312 26.4376 15.3422C26.3157 15.6656 26.086 15.9328 25.8001 16.0781C25.5985 16.1812 25.5095 16.1953 25.0782 16.1953C24.647 16.1953 24.5579 16.1812 24.3563 16.0781C24.0704 15.9328 23.8407 15.6656 23.7188 15.3422C23.6392 15.1312 23.6251 14.9766 23.6251 14.3906V13.6875H25.0782H26.5313V14.3906ZM30.3751 14.3906C30.3751 14.9766 30.361 15.1312 30.2813 15.3422C30.1595 15.6656 29.9298 15.9328 29.6438 16.0781C29.4423 16.1812 29.3532 16.1953 28.922 16.1953C28.4907 16.1953 28.4017 16.1812 28.2001 16.0781C27.9142 15.9328 27.6845 15.6656 27.5626 15.3422C27.4829 15.1312 27.4688 14.9766 27.4688 14.3906V13.6875H28.922H30.3751V14.3906ZM34.2188 14.3906C34.2188 14.9766 34.2048 15.1312 34.1251 15.3422C34.0032 15.6656 33.7735 15.9328 33.4876 16.0781C33.286 16.1812 33.197 16.1953 32.7657 16.1953C32.3345 16.1953 32.2454 16.1812 32.0438 16.0781C31.7579 15.9328 31.5282 15.6656 31.4063 15.3422C31.3267 15.1312 31.3126 14.9766 31.3126 14.3906V13.6875H32.7657H34.2188V14.3906ZM38.0626 14.3906C38.0626 14.9766 38.0485 15.1312 37.9688 15.3422C37.847 15.6656 37.6173 15.9328 37.3313 16.0781C37.1298 16.1812 37.0407 16.1953 36.6095 16.1953C36.1782 16.1953 36.0891 16.1812 35.8876 16.0781C35.6017 15.9328 35.372 15.6656 35.2501 15.3422C35.1704 15.1312 35.1563 14.9766 35.1563 14.3906V13.6875H36.6095H38.0626V14.3906ZM19.5704 16.5422C20.0251 16.9687 20.522 17.1562 21.2345 17.1562C21.947 17.1562 22.4438 16.9734 22.9079 16.5375L23.1563 16.2984L23.4048 16.5375C23.8595 16.9641 24.3751 17.1562 25.0735 17.1562C25.7954 17.1562 26.2876 16.9734 26.7517 16.5375L27.0001 16.2984L27.2485 16.5375C27.7032 16.9641 28.2188 17.1562 28.9173 17.1562C29.6392 17.1562 30.1313 16.9734 30.5954 16.5375L30.8438 16.2984L31.0923 16.5375C31.547 16.9641 32.0626 17.1562 32.761 17.1562C33.4829 17.1562 33.9751 16.9734 34.4391 16.5375L34.6876 16.2984L34.936 16.5375C35.3907 16.9641 35.9063 17.1562 36.5954 17.1562H37.0313V18.0469V18.9375L32.9954 18.9469L28.9595 18.9609L28.8235 19.1156L28.6876 19.2703L28.697 22.8047L28.711 26.3437L28.8423 26.4703L28.9688 26.6016L33.0001 26.6156L37.0313 26.625V27.8438V29.0625H31.922H26.8126L26.8032 24.1359L26.7892 19.2094L26.6345 19.0734L26.4798 18.9375L22.6642 18.9469L18.8438 18.9609L18.7173 19.0922L18.586 19.2188L18.572 24.1406L18.5626 29.0625H17.7657H16.9688V23.1094V17.1562H17.4048C17.6392 17.1562 17.9438 17.1281 18.0751 17.0906C18.4267 16.9969 18.8485 16.7578 19.0829 16.5187C19.1954 16.4062 19.2938 16.3125 19.3079 16.3125C19.3173 16.3125 19.4345 16.4156 19.5704 16.5422ZM25.8751 24.4688V29.0625H22.6876H19.5001V24.4688V19.875H22.6876H25.8751V24.4688ZM37.0313 22.7812V25.6875H33.3282H29.6251V22.7812V19.875H33.3282H37.0313V22.7812Z" fill="white"/>
<path d="M21.1599 21.1735C21.1036 21.1829 21.0099 21.2438 20.9489 21.3094L20.8364 21.4313L20.8224 23.5219C20.8177 25.1344 20.8271 25.6454 20.8739 25.7344C20.9021 25.8 21.0099 25.8891 21.1083 25.936C21.2771 26.0204 21.2864 26.0204 21.4552 25.936C21.5536 25.8891 21.6614 25.8 21.6896 25.7344C21.7364 25.6454 21.7458 25.1344 21.7411 23.5219L21.7271 21.4219L21.6099 21.3094C21.488 21.1922 21.3239 21.1454 21.1599 21.1735Z" fill="white"/>
<path d="M24.084 24.1359C23.7699 24.4172 23.9528 24.9141 24.3746 24.9141C24.7965 24.9141 24.9793 24.4172 24.6653 24.1359C24.5715 24.0516 24.4637 24 24.3746 24C24.2856 24 24.1778 24.0516 24.084 24.1359Z" fill="white"/>
<path d="M20.9859 26.9718C20.564 27.3655 21.089 28.0171 21.5484 27.6749C21.9 27.4124 21.7171 26.8593 21.2812 26.8593C21.164 26.8593 21.0703 26.8968 20.9859 26.9718Z" fill="white"/>
<path d="M33.2014 20.6109C33.1452 20.6203 33.042 20.6953 32.9764 20.7703C32.8639 20.9109 32.8592 20.9344 32.8592 21.6141V22.3125H32.1561C31.453 22.3125 31.453 22.3125 31.3077 22.4438C31.1342 22.5984 31.1061 22.8375 31.2373 23.0344C31.3592 23.2219 31.4858 23.25 32.203 23.25H32.8545L32.8686 23.9813L32.8827 24.7125L33.0139 24.825C33.0983 24.8953 33.2061 24.9375 33.3092 24.9375C33.7123 24.9375 33.7967 24.7547 33.7967 23.8828V23.25H34.453C35.1514 23.25 35.3342 23.2078 35.4373 23.0203C35.5217 22.8563 35.4936 22.6078 35.3717 22.4672L35.2592 22.3359L34.528 22.3219L33.7967 22.3078V21.6516C33.7967 20.9016 33.7498 20.7516 33.492 20.6438C33.403 20.6063 33.3233 20.5828 33.3186 20.5828C33.3092 20.5875 33.2577 20.6016 33.2014 20.6109Z" fill="white"/>
</g>
<path d="M16.1 45.202C16.1 44.012 16.996 43.2 18.256 43.2C19.502 43.2 20.412 44.012 20.412 45.202C20.412 46.378 19.502 47.204 18.256 47.204C16.996 47.204 16.1 46.378 16.1 45.202ZM21.532 45.202C21.532 43.438 20.146 42.234 18.256 42.234C16.352 42.234 14.98 43.438 14.98 45.202C14.98 46.952 16.352 48.17 18.256 48.17C20.146 48.17 21.532 46.952 21.532 45.202ZM16.324 50.466H23.338V54.036H24.486V49.528H16.324V50.466ZM26.306 44.348V43.396H24.486V41.492H23.338V48.94H24.486V47.022H26.306V46.084H24.486V44.348H26.306ZM38.5169 47.498V46.56H36.7389C37.0469 45.076 37.0469 43.928 37.0469 42.99V42.08H28.5769V43.004H35.9129C35.9129 43.942 35.9129 45.048 35.5769 46.56H27.1209V47.498H32.2309V49.794H28.3249V50.718H35.9689V54.022H37.1169V49.794H33.3789V47.498H38.5169Z" fill="#3F3D56"/>
<defs>
<clipPath id="clip0_496_1318">
<rect width="24" height="24" fill="white" transform="translate(15 6)"/>
</clipPath>
</defs>
</svg>
