<svg width="36" height="36" viewBox="0 0 36 36" fill="none" xmlns="http://www.w3.org/2000/svg">
<rect width="36" height="36" rx="18" fill="#00C9A7"/>
<g clip-path="url(#clip0_497_2011)">
<path d="M18.586 6.06552C18.4594 6.10302 18.2578 6.1874 18.1406 6.25302C17.8172 6.43584 15.4594 8.82177 15.3047 9.12646C14.8406 10.0311 15.2063 11.1374 16.125 11.5968C16.65 11.8593 17.2406 11.864 17.761 11.6155C18.0938 11.4561 20.5125 9.04209 20.6906 8.69521C21.1641 7.7624 20.7985 6.6749 19.8563 6.21084C19.4531 6.00927 18.975 5.95771 18.586 6.06552ZM19.3969 7.00771C19.8797 7.21396 20.0953 7.75771 19.8797 8.22646C19.8328 8.32959 19.6078 8.59209 19.3875 8.8124L18.9844 9.21084L18.3422 8.56396L17.6953 7.92177L18.0938 7.51865C18.6469 6.95615 18.9656 6.82959 19.3969 7.00771ZM17.6719 9.25771L18.3047 9.89052L17.9063 10.2936C17.686 10.514 17.4235 10.739 17.3203 10.7858C16.5844 11.128 15.7922 10.3733 16.1016 9.61865C16.1625 9.47334 16.9406 8.6249 17.0156 8.6249C17.0297 8.6249 17.325 8.91084 17.6719 9.25771Z" fill="white"/>
<path d="M6.96103 8.61562C6.5204 8.76562 6.20165 9.10312 6.06571 9.54375C5.96259 9.88594 5.96728 15.0469 6.07509 15.4453C6.17821 15.8578 6.43134 16.2703 6.75009 16.5609L7.03134 16.8141V22.9312V29.0531L6.65165 29.0719C6.29071 29.0859 6.26728 29.0953 6.13134 29.2453C6.01415 29.3766 5.9954 29.4281 6.01884 29.5687C6.0329 29.6625 6.09853 29.7891 6.16415 29.8547L6.28134 29.9766L17.9767 29.9906L29.672 30L29.822 29.8641C29.9485 29.7516 29.9767 29.6953 29.9767 29.5312C29.9767 29.3672 29.9485 29.3109 29.822 29.1984C29.6813 29.0719 29.6392 29.0625 29.3204 29.0625H28.9688V22.9359V16.8141L29.2501 16.5609C29.4095 16.4156 29.6017 16.1812 29.6954 16.0125C30.0048 15.4594 30.0048 15.4641 29.9907 12.3703C29.9767 9.63281 29.9767 9.58125 29.8782 9.37031C29.747 9.08906 29.4423 8.78437 29.161 8.65312C28.9501 8.55937 28.8798 8.55469 26.7938 8.54062C24.5298 8.52656 24.4454 8.53125 24.3048 8.7375C24.2251 8.85 24.211 9.10781 24.2813 9.23438C24.3892 9.44062 24.4454 9.44531 26.6579 9.46875L28.7813 9.49219L28.9079 9.62344L29.0392 9.75L29.0532 11.25L29.0673 12.75H18.0001H6.93759V11.2734V9.79688L7.07353 9.64687L7.20946 9.49219L10.336 9.46875L13.4626 9.44531L13.5751 9.31406C13.7298 9.13594 13.7298 8.86406 13.5751 8.68594L13.4626 8.55469L10.3267 8.54531C7.45321 8.53594 7.17665 8.54062 6.96103 8.61562ZM9.84384 14.3906C9.84384 14.9766 9.82978 15.1312 9.75009 15.3422C9.62821 15.6656 9.39853 15.9328 9.11259 16.0781C8.91103 16.1812 8.82196 16.1953 8.39071 16.1953C7.95946 16.1953 7.8704 16.1812 7.66884 16.0781C7.3829 15.9328 7.15321 15.6656 7.03134 15.3422C6.95165 15.1312 6.93759 14.9766 6.93759 14.3906V13.6875H8.39071H9.84384V14.3906ZM13.6876 14.3906C13.6876 14.9766 13.6735 15.1312 13.5938 15.3422C13.472 15.6656 13.2423 15.9328 12.9563 16.0781C12.7548 16.1812 12.6657 16.1953 12.2345 16.1953C11.8032 16.1953 11.7142 16.1812 11.5126 16.0781C11.2267 15.9328 10.997 15.6656 10.8751 15.3422C10.7954 15.1312 10.7813 14.9766 10.7813 14.3906V13.6875H12.2345H13.6876V14.3906ZM17.5313 14.3906C17.5313 14.9766 17.5173 15.1312 17.4376 15.3422C17.3157 15.6656 17.086 15.9328 16.8001 16.0781C16.5985 16.1812 16.5095 16.1953 16.0782 16.1953C15.647 16.1953 15.5579 16.1812 15.3563 16.0781C15.0704 15.9328 14.8407 15.6656 14.7188 15.3422C14.6392 15.1312 14.6251 14.9766 14.6251 14.3906V13.6875H16.0782H17.5313V14.3906ZM21.3751 14.3906C21.3751 14.9766 21.361 15.1312 21.2813 15.3422C21.1595 15.6656 20.9298 15.9328 20.6438 16.0781C20.4423 16.1812 20.3532 16.1953 19.922 16.1953C19.4907 16.1953 19.4017 16.1812 19.2001 16.0781C18.9142 15.9328 18.6845 15.6656 18.5626 15.3422C18.4829 15.1312 18.4688 14.9766 18.4688 14.3906V13.6875H19.922H21.3751V14.3906ZM25.2188 14.3906C25.2188 14.9766 25.2048 15.1312 25.1251 15.3422C25.0032 15.6656 24.7735 15.9328 24.4876 16.0781C24.286 16.1812 24.197 16.1953 23.7657 16.1953C23.3345 16.1953 23.2454 16.1812 23.0438 16.0781C22.7579 15.9328 22.5282 15.6656 22.4063 15.3422C22.3267 15.1312 22.3126 14.9766 22.3126 14.3906V13.6875H23.7657H25.2188V14.3906ZM29.0626 14.3906C29.0626 14.9766 29.0485 15.1312 28.9688 15.3422C28.847 15.6656 28.6173 15.9328 28.3313 16.0781C28.1298 16.1812 28.0407 16.1953 27.6095 16.1953C27.1782 16.1953 27.0891 16.1812 26.8876 16.0781C26.6017 15.9328 26.372 15.6656 26.2501 15.3422C26.1704 15.1312 26.1563 14.9766 26.1563 14.3906V13.6875H27.6095H29.0626V14.3906ZM10.5704 16.5422C11.0251 16.9687 11.522 17.1562 12.2345 17.1562C12.947 17.1562 13.4438 16.9734 13.9079 16.5375L14.1563 16.2984L14.4048 16.5375C14.8595 16.9641 15.3751 17.1562 16.0735 17.1562C16.7954 17.1562 17.2876 16.9734 17.7517 16.5375L18.0001 16.2984L18.2485 16.5375C18.7032 16.9641 19.2188 17.1562 19.9173 17.1562C20.6392 17.1562 21.1313 16.9734 21.5954 16.5375L21.8438 16.2984L22.0923 16.5375C22.547 16.9641 23.0626 17.1562 23.761 17.1562C24.4829 17.1562 24.9751 16.9734 25.4391 16.5375L25.6876 16.2984L25.936 16.5375C26.3907 16.9641 26.9063 17.1562 27.5954 17.1562H28.0313V18.0469V18.9375L23.9954 18.9469L19.9595 18.9609L19.8235 19.1156L19.6876 19.2703L19.697 22.8047L19.711 26.3437L19.8423 26.4703L19.9688 26.6016L24.0001 26.6156L28.0313 26.625V27.8438V29.0625H22.922H17.8126L17.8032 24.1359L17.7892 19.2094L17.6345 19.0734L17.4798 18.9375L13.6642 18.9469L9.84384 18.9609L9.71728 19.0922L9.58603 19.2188L9.57196 24.1406L9.56259 29.0625H8.76571H7.96884V23.1094V17.1562H8.40478C8.63915 17.1562 8.94384 17.1281 9.07509 17.0906C9.42665 16.9969 9.84853 16.7578 10.0829 16.5187C10.1954 16.4062 10.2938 16.3125 10.3079 16.3125C10.3173 16.3125 10.4345 16.4156 10.5704 16.5422ZM16.8751 24.4688V29.0625H13.6876H10.5001V24.4688V19.875H13.6876H16.8751V24.4688ZM28.0313 22.7812V25.6875H24.3282H20.6251V22.7812V19.875H24.3282H28.0313V22.7812Z" fill="white"/>
<path d="M12.1599 21.1735C12.1036 21.1829 12.0099 21.2438 11.9489 21.3094L11.8364 21.4313L11.8224 23.5219C11.8177 25.1344 11.8271 25.6454 11.8739 25.7344C11.9021 25.8 12.0099 25.8891 12.1083 25.936C12.2771 26.0204 12.2864 26.0204 12.4552 25.936C12.5536 25.8891 12.6614 25.8 12.6896 25.7344C12.7364 25.6454 12.7458 25.1344 12.7411 23.5219L12.7271 21.4219L12.6099 21.3094C12.488 21.1922 12.3239 21.1454 12.1599 21.1735Z" fill="white"/>
<path d="M15.084 24.1359C14.7699 24.4172 14.9528 24.9141 15.3746 24.9141C15.7965 24.9141 15.9793 24.4172 15.6653 24.1359C15.5715 24.0516 15.4637 24 15.3746 24C15.2856 24 15.1778 24.0516 15.084 24.1359Z" fill="white"/>
<path d="M11.9859 26.9718C11.564 27.3655 12.089 28.0171 12.5484 27.6749C12.9 27.4124 12.7171 26.8593 12.2812 26.8593C12.164 26.8593 12.0703 26.8968 11.9859 26.9718Z" fill="white"/>
<path d="M24.2014 20.6109C24.1452 20.6203 24.042 20.6953 23.9764 20.7703C23.8639 20.9109 23.8592 20.9344 23.8592 21.6141V22.3125H23.1561C22.453 22.3125 22.453 22.3125 22.3077 22.4438C22.1342 22.5984 22.1061 22.8375 22.2373 23.0344C22.3592 23.2219 22.4858 23.25 23.203 23.25H23.8545L23.8686 23.9813L23.8827 24.7125L24.0139 24.825C24.0983 24.8953 24.2061 24.9375 24.3092 24.9375C24.7123 24.9375 24.7967 24.7547 24.7967 23.8828V23.25H25.453C26.1514 23.25 26.3342 23.2078 26.4373 23.0203C26.5217 22.8563 26.4936 22.6078 26.3717 22.4672L26.2592 22.3359L25.528 22.3219L24.7967 22.3078V21.6516C24.7967 20.9016 24.7498 20.7516 24.492 20.6438C24.403 20.6063 24.3233 20.5828 24.3186 20.5828C24.3092 20.5875 24.2577 20.6016 24.2014 20.6109Z" fill="white"/>
</g>
<defs>
<clipPath id="clip0_497_2011">
<rect width="24" height="24" fill="white" transform="translate(6 6)"/>
</clipPath>
</defs>
</svg>
