<svg width="36" height="36" viewBox="0 0 36 36" fill="none" xmlns="http://www.w3.org/2000/svg">
<rect width="36" height="36" rx="18" fill="#FFC75F"/>
<path d="M6.23923 6.06562C6.00017 6.19687 6.00485 6.13125 6.00485 9.39844C6.00017 12.8203 6.00017 12.825 6.32829 13.4906C6.55798 13.95 7.00329 14.4234 7.44392 14.6719L7.73454 14.8359L7.74392 21.8906L7.75798 28.9453L7.85642 29.1609C8.00173 29.4703 8.22204 29.6953 8.52204 29.8453C8.74235 29.9531 8.85017 29.9766 9.14079 29.9766C9.72673 29.9766 10.1814 29.6859 10.4252 29.1609L10.5236 28.9453L10.5377 21.8906L10.5517 14.8359L10.8424 14.6719C11.2783 14.4234 11.7236 13.95 11.9533 13.4906C12.2814 12.825 12.2814 12.8156 12.2814 9.40781C12.2814 6.1125 12.2861 6.17344 12.0236 6.05625C11.8689 5.98594 11.7564 5.98594 11.6017 6.05625C11.3439 6.17344 11.3439 6.15 11.3439 8.95312V11.5312H10.922H10.5002V8.95312C10.5002 7.05937 10.4861 6.34687 10.4439 6.25781C10.383 6.12187 10.1861 6 10.0314 6C9.87673 6 9.67985 6.12187 9.61892 6.25781C9.57673 6.34687 9.56267 7.05937 9.56267 8.95312V11.5312H9.14079H8.71892V8.95312C8.71892 7.05937 8.70485 6.34687 8.66267 6.25781C8.56423 6.0375 8.27829 5.94375 8.03923 6.05625C7.78142 6.17344 7.78142 6.15 7.78142 8.95312V11.5312H7.35954H6.93767V8.95312C6.93767 7.05937 6.9236 6.34687 6.88142 6.25781C6.77829 6.03281 6.46892 5.93906 6.23923 6.06562ZM11.283 12.6281C11.2033 13.1297 10.6642 13.7625 10.1439 13.9641C9.99392 14.025 9.8111 14.1328 9.74079 14.2078L9.60954 14.3437V21.5203C9.60954 29.3203 9.6236 28.8844 9.35173 29.0062C9.19704 29.0766 9.08454 29.0766 8.92985 29.0062C8.65798 28.8844 8.67204 29.3203 8.67204 21.5203V14.3531L8.55017 14.2078C8.48454 14.1281 8.40485 14.0625 8.37204 14.0625C8.22673 14.0625 7.73454 13.7625 7.51423 13.5422C7.26579 13.2937 7.04079 12.8953 6.9986 12.6281L6.97048 12.4688H9.14079H11.3111L11.283 12.6281Z" fill="white"/>
<path d="M29.1286 6.18281C28.7021 6.46875 28.0974 7.0125 27.6943 7.47187C26.7052 8.5875 26.0255 9.98438 25.7255 11.4937C25.6224 12.0094 25.6224 12.1266 25.6036 15.6609C25.5896 19.6781 25.5849 19.6266 25.8802 20.2125C25.988 20.4234 26.1896 20.6719 26.6068 21.0938L27.188 21.6844L27.1974 25.3172C27.2115 28.8937 27.2115 28.95 27.3099 29.1609C27.4552 29.4703 27.6755 29.6953 27.9755 29.8453C28.1958 29.9531 28.3036 29.9766 28.5943 29.9766C29.1802 29.9766 29.6349 29.6859 29.8786 29.1609L29.9771 28.9453L29.9911 17.6719C30.0005 9.23906 29.9865 6.36562 29.949 6.26719C29.888 6.12187 29.6911 6 29.5177 6C29.4521 6 29.2786 6.08437 29.1286 6.18281ZM29.0115 28.7953C28.9505 28.9359 28.7536 29.0625 28.5943 29.0625C28.4583 29.0625 28.238 28.9406 28.1911 28.8422C28.1677 28.7953 28.1396 27.075 28.1255 25.0219L28.1021 21.2859L27.4411 20.6156C27.0099 20.175 26.7427 19.8656 26.6677 19.7109L26.5552 19.4766L26.5411 16.0359C26.5318 13.1859 26.5411 12.4969 26.6021 12.0516C26.8083 10.4437 27.5255 8.96719 28.6411 7.83281L29.0396 7.42969L29.0536 18.0469C29.063 25.9688 29.049 28.6969 29.0115 28.7953Z" fill="white"/>
<path d="M16.9688 9.09844C16.1063 9.19687 15.0422 9.49687 14.2734 9.8625C13.8047 10.0828 13.6875 10.2 13.6875 10.4437C13.6875 10.6594 13.9031 10.875 14.1141 10.875C14.1984 10.875 14.5406 10.7625 14.8781 10.6219C16.2375 10.0547 17.625 9.86719 19.0453 10.0547C20.7469 10.2797 22.2047 10.9687 23.4797 12.1641C23.9203 12.5719 23.9719 12.6094 24.1453 12.6094C24.4172 12.6094 24.6094 12.4125 24.6094 12.1359C24.6094 11.9531 24.5859 11.9156 24.2578 11.5969C22.8 10.1812 20.9578 9.31875 18.9281 9.09844C18.4031 9.0375 17.4844 9.04219 16.9688 9.09844Z" fill="white"/>
<path d="M17.3207 11.3719C16.2941 11.4844 15.1551 11.9063 14.2551 12.5063C13.7301 12.8532 12.8535 13.7297 12.5066 14.25C12.0004 15.0141 11.6676 15.7969 11.4754 16.6829C11.3301 17.325 11.3348 18.6657 11.4754 19.3172C12.0566 21.975 14.0395 23.9532 16.702 24.525C17.3863 24.6704 18.6145 24.6704 19.2941 24.525C19.9785 24.3797 20.4379 24.2157 21.052 23.8969C22.8379 22.9829 24.0895 21.3235 24.5254 19.2985C24.6613 18.661 24.6707 17.4329 24.5441 16.8047C24.127 14.6954 22.8191 12.9704 20.9301 12.0329C20.0395 11.5922 19.2238 11.3954 18.1879 11.3672C17.8129 11.3579 17.4238 11.3625 17.3207 11.3719ZM18.8488 12.3516C20.6816 12.6282 22.2754 13.786 23.1238 15.4688C23.3582 15.9375 23.5691 16.6032 23.6488 17.1516C24.1176 20.2594 21.9613 23.1797 18.8441 23.6532C16.3738 24.0235 13.927 22.7204 12.8441 20.461C11.5645 17.7844 12.5441 14.6063 15.1176 13.0688C16.2051 12.4172 17.5645 12.1547 18.8488 12.3516Z" fill="white"/>
<path d="M17.7844 13.7344C17.6297 13.7954 17.5312 13.9688 17.5312 14.1704C17.5312 14.6391 18.1875 14.7985 18.4031 14.386C18.6141 13.9735 18.2156 13.5563 17.7844 13.7344Z" fill="white"/>
<path d="M16.06 14.161C14.8131 14.7891 13.9319 16.0266 13.7397 17.4141C13.6553 18.0235 13.6647 18.1266 13.8475 18.3094C14.0256 18.4876 14.1756 18.511 14.3866 18.3985C14.5506 18.3141 14.6022 18.1782 14.6631 17.6438C14.7194 17.1516 14.8788 16.6547 15.1038 16.2751C15.3381 15.8719 15.9428 15.2954 16.3834 15.0516C16.5897 14.9344 16.7959 14.8126 16.8381 14.7751C16.96 14.6719 16.9928 14.4282 16.9038 14.2594C16.7538 13.9735 16.4866 13.9407 16.06 14.161Z" fill="white"/>
<path d="M24.5068 22.8188C24.4646 22.8375 24.1787 23.1141 23.8787 23.4328C22.6646 24.7032 21.4458 25.4157 19.8146 25.8047C17.8646 26.2688 15.7083 25.9453 13.9927 24.9375C13.7302 24.7828 13.5146 24.6891 13.4208 24.6891C13.0974 24.6797 12.863 25.0172 12.9849 25.3172C13.0599 25.4907 13.3177 25.6641 13.9927 26.0016C17.7708 27.8953 22.3599 26.8875 24.999 23.5875C25.0787 23.4844 25.1255 23.3672 25.1255 23.2688C25.1255 22.9782 24.7552 22.711 24.5068 22.8188Z" fill="white"/>
<path d="M11.7706 23.5968C11.7097 23.6296 11.63 23.7093 11.5972 23.7702C11.3347 24.2437 11.9534 24.7124 12.3331 24.3327C12.7128 23.953 12.2441 23.3343 11.7706 23.5968Z" fill="white"/>
</svg>
