<svg width="54" height="55" viewBox="0 0 54 55" fill="none" xmlns="http://www.w3.org/2000/svg">
<rect x="9" width="36" height="36" rx="18" fill="#FFC75F"/>
<path d="M15.2392 6.06562C15.0002 6.19687 15.0049 6.13125 15.0049 9.39844C15.0002 12.8203 15.0002 12.825 15.3283 13.4906C15.558 13.95 16.0033 14.4234 16.4439 14.6719L16.7345 14.8359L16.7439 21.8906L16.758 28.9453L16.8564 29.1609C17.0017 29.4703 17.222 29.6953 17.522 29.8453C17.7424 29.9531 17.8502 29.9766 18.1408 29.9766C18.7267 29.9766 19.1814 29.6859 19.4252 29.1609L19.5236 28.9453L19.5377 21.8906L19.5517 14.8359L19.8424 14.6719C20.2783 14.4234 20.7236 13.95 20.9533 13.4906C21.2814 12.825 21.2814 12.8156 21.2814 9.40781C21.2814 6.1125 21.2861 6.17344 21.0236 6.05625C20.8689 5.98594 20.7564 5.98594 20.6017 6.05625C20.3439 6.17344 20.3439 6.15 20.3439 8.95312V11.5312H19.922H19.5002V8.95312C19.5002 7.05937 19.4861 6.34687 19.4439 6.25781C19.383 6.12187 19.1861 6 19.0314 6C18.8767 6 18.6799 6.12187 18.6189 6.25781C18.5767 6.34687 18.5627 7.05937 18.5627 8.95312V11.5312H18.1408H17.7189V8.95312C17.7189 7.05937 17.7049 6.34687 17.6627 6.25781C17.5642 6.0375 17.2783 5.94375 17.0392 6.05625C16.7814 6.17344 16.7814 6.15 16.7814 8.95312V11.5312H16.3595H15.9377V8.95312C15.9377 7.05937 15.9236 6.34687 15.8814 6.25781C15.7783 6.03281 15.4689 5.93906 15.2392 6.06562ZM20.283 12.6281C20.2033 13.1297 19.6642 13.7625 19.1439 13.9641C18.9939 14.025 18.8111 14.1328 18.7408 14.2078L18.6095 14.3437V21.5203C18.6095 29.3203 18.6236 28.8844 18.3517 29.0062C18.197 29.0766 18.0845 29.0766 17.9299 29.0062C17.658 28.8844 17.672 29.3203 17.672 21.5203V14.3531L17.5502 14.2078C17.4845 14.1281 17.4049 14.0625 17.372 14.0625C17.2267 14.0625 16.7345 13.7625 16.5142 13.5422C16.2658 13.2937 16.0408 12.8953 15.9986 12.6281L15.9705 12.4687H18.1408H20.3111L20.283 12.6281Z" fill="white"/>
<path d="M38.1286 6.18281C37.7021 6.46875 37.0974 7.0125 36.6943 7.47187C35.7052 8.5875 35.0255 9.98437 34.7255 11.4937C34.6224 12.0094 34.6224 12.1266 34.6036 15.6609C34.5896 19.6781 34.5849 19.6266 34.8802 20.2125C34.988 20.4234 35.1896 20.6719 35.6068 21.0937L36.188 21.6844L36.1974 25.3172C36.2115 28.8937 36.2115 28.95 36.3099 29.1609C36.4552 29.4703 36.6755 29.6953 36.9755 29.8453C37.1958 29.9531 37.3036 29.9766 37.5943 29.9766C38.1802 29.9766 38.6349 29.6859 38.8786 29.1609L38.9771 28.9453L38.9911 17.6719C39.0005 9.23906 38.9865 6.36562 38.949 6.26719C38.888 6.12187 38.6911 6 38.5177 6C38.4521 6 38.2786 6.08437 38.1286 6.18281ZM38.0115 28.7953C37.9505 28.9359 37.7536 29.0625 37.5943 29.0625C37.4583 29.0625 37.238 28.9406 37.1911 28.8422C37.1677 28.7953 37.1396 27.075 37.1255 25.0219L37.1021 21.2859L36.4411 20.6156C36.0099 20.175 35.7427 19.8656 35.6677 19.7109L35.5552 19.4766L35.5411 16.0359C35.5318 13.1859 35.5411 12.4969 35.6021 12.0516C35.8083 10.4437 36.5255 8.96719 37.6411 7.83281L38.0396 7.42969L38.0536 18.0469C38.063 25.9687 38.049 28.6969 38.0115 28.7953Z" fill="white"/>
<path d="M25.9688 9.09844C25.1063 9.19687 24.0422 9.49687 23.2734 9.8625C22.8047 10.0828 22.6875 10.2 22.6875 10.4437C22.6875 10.6594 22.9031 10.875 23.1141 10.875C23.1984 10.875 23.5406 10.7625 23.8781 10.6219C25.2375 10.0547 26.625 9.86719 28.0453 10.0547C29.7469 10.2797 31.2047 10.9687 32.4797 12.1641C32.9203 12.5719 32.9719 12.6094 33.1453 12.6094C33.4172 12.6094 33.6094 12.4125 33.6094 12.1359C33.6094 11.9531 33.5859 11.9156 33.2578 11.5969C31.8 10.1812 29.9578 9.31875 27.9281 9.09844C27.4031 9.0375 26.4844 9.04219 25.9688 9.09844Z" fill="white"/>
<path d="M26.3207 11.3719C25.2941 11.4844 24.1551 11.9063 23.2551 12.5063C22.7301 12.8532 21.8535 13.7297 21.5066 14.25C21.0004 15.0141 20.6676 15.7969 20.4754 16.6829C20.3301 17.325 20.3348 18.6657 20.4754 19.3172C21.0566 21.975 23.0395 23.9532 25.702 24.525C26.3863 24.6704 27.6145 24.6704 28.2941 24.525C28.9785 24.3797 29.4379 24.2157 30.052 23.8969C31.8379 22.9829 33.0895 21.3235 33.5254 19.2985C33.6613 18.661 33.6707 17.4329 33.5441 16.8047C33.127 14.6954 31.8191 12.9704 29.9301 12.0329C29.0395 11.5922 28.2238 11.3954 27.1879 11.3672C26.8129 11.3579 26.4238 11.3625 26.3207 11.3719ZM27.8488 12.3516C29.6816 12.6282 31.2754 13.786 32.1238 15.4688C32.3582 15.9375 32.5691 16.6032 32.6488 17.1516C33.1176 20.2594 30.9613 23.1797 27.8441 23.6532C25.3738 24.0235 22.927 22.7204 21.8441 20.461C20.5645 17.7844 21.5441 14.6063 24.1176 13.0688C25.2051 12.4172 26.5645 12.1547 27.8488 12.3516Z" fill="white"/>
<path d="M26.7844 13.7344C26.6297 13.7954 26.5312 13.9688 26.5312 14.1704C26.5312 14.6391 27.1875 14.7985 27.4031 14.386C27.6141 13.9735 27.2156 13.5563 26.7844 13.7344Z" fill="white"/>
<path d="M25.06 14.161C23.8131 14.7891 22.9319 16.0266 22.7397 17.4141C22.6553 18.0235 22.6647 18.1266 22.8475 18.3094C23.0256 18.4876 23.1756 18.511 23.3866 18.3985C23.5506 18.3141 23.6022 18.1782 23.6631 17.6438C23.7194 17.1516 23.8788 16.6547 24.1038 16.2751C24.3381 15.8719 24.9428 15.2954 25.3834 15.0516C25.5897 14.9344 25.7959 14.8126 25.8381 14.7751C25.96 14.6719 25.9928 14.4282 25.9038 14.2594C25.7538 13.9735 25.4866 13.9407 25.06 14.161Z" fill="white"/>
<path d="M33.5068 22.8188C33.4646 22.8375 33.1787 23.1141 32.8787 23.4328C31.6646 24.7032 30.4458 25.4157 28.8146 25.8047C26.8646 26.2688 24.7083 25.9453 22.9927 24.9375C22.7302 24.7828 22.5146 24.6891 22.4208 24.6891C22.0974 24.6797 21.863 25.0172 21.9849 25.3172C22.0599 25.4907 22.3177 25.6641 22.9927 26.0016C26.7708 27.8953 31.3599 26.8875 33.999 23.5875C34.0787 23.4844 34.1255 23.3672 34.1255 23.2688C34.1255 22.9782 33.7552 22.711 33.5068 22.8188Z" fill="white"/>
<path d="M20.7706 23.5968C20.7097 23.6296 20.63 23.7093 20.5972 23.7702C20.3347 24.2437 20.9534 24.7124 21.3331 24.3327C21.7128 23.953 21.2441 23.3343 20.7706 23.5968Z" fill="white"/>
<path d="M14.412 41.758C11.696 41.758 10.002 42.64 10.002 44.138C10.002 45.622 11.696 46.504 14.412 46.504C17.128 46.504 18.822 45.622 18.822 44.138C18.822 42.64 17.128 41.758 14.412 41.758ZM14.412 42.668C16.4 42.668 17.646 43.214 17.646 44.138C17.646 45.062 16.4 45.608 14.412 45.608C12.424 45.608 11.178 45.062 11.178 44.138C11.178 43.214 12.424 42.668 14.412 42.668ZM10.142 49.738V53.868H18.71V49.738H10.142ZM17.59 50.648V52.944H11.262V50.648H17.59ZM8.742 47.582V48.506H20.096V47.582H8.742ZM28.6949 47.386C26.8329 46.742 25.5449 45.104 25.5449 43.298V42.066H24.3969V43.298C24.3969 45.174 23.1229 46.924 21.2329 47.61L21.8209 48.52C23.2909 47.96 24.4389 46.798 24.9849 45.314C25.5449 46.7 26.6789 47.778 28.1209 48.296L28.6949 47.386ZM23.0249 50.606H30.2769V54.05H31.4249V49.682H23.0249V50.606ZM30.2769 41.492V49.038H31.4249V41.492H30.2769ZM40.9058 47.526C39.0858 46.882 37.8538 45.314 37.8538 43.676V43.214H40.6118V42.276H33.9058V43.214H36.7058V43.69C36.7058 45.468 35.4038 47.134 33.5418 47.806L34.1438 48.702C35.6138 48.17 36.7618 47.022 37.3078 45.58C37.8538 46.868 38.9318 47.918 40.3318 48.422L40.9058 47.526ZM36.8038 50.354H42.7258V52.944H36.8038V50.354ZM35.6838 53.868H43.8458V49.444H35.6838V53.868ZM42.6838 41.478V44.628H40.2058V45.58H42.6838V48.828H43.8458V41.478H42.6838Z" fill="#3F3D56"/>
</svg>
