<svg width="36" height="36" viewBox="0 0 36 36" fill="none" xmlns="http://www.w3.org/2000/svg">
<rect width="36" height="36" rx="18" fill="#FF6F91"/>
<path d="M13.7812 8.68586C13.5563 8.75617 13.2516 9.07492 13.1813 9.30929C13.1531 9.41711 13.125 9.64211 13.125 9.81554V10.1249H10.3266C7.69688 10.1249 7.51406 10.1343 7.33594 10.214C7.0875 10.3265 6.94687 10.4718 6.83906 10.7062C6.75937 10.8843 6.75 11.0437 6.75 12.7499C6.75 14.4421 6.75937 14.6155 6.83906 14.789C6.93281 15.0046 7.20938 15.2671 7.38281 15.3093L7.5 15.3374V20.9483V26.5546L7.6125 26.789C7.73906 27.0655 7.82813 27.1499 8.10938 27.2765C8.32031 27.3702 8.36719 27.3749 18 27.3749H27.6797L27.9141 27.2624C28.1906 27.1358 28.275 27.0468 28.4016 26.7655C28.4953 26.5593 28.5 26.4843 28.5 20.9483V15.3374L28.6172 15.3093C28.7906 15.2671 29.0672 15.0046 29.1609 14.789C29.2406 14.6202 29.25 14.4374 29.25 12.7452V10.8843L29.1188 10.6359C29.0156 10.4343 28.9406 10.3593 28.7391 10.2562L28.4906 10.1249H25.6828H22.875V9.81554C22.875 9.64211 22.8469 9.41711 22.8188 9.30929C22.7438 9.06086 22.4391 8.75617 22.1906 8.68117C21.9281 8.60617 14.0297 8.60617 13.7812 8.68586ZM22.0406 9.45461C22.1203 9.52492 22.125 9.67961 22.125 12.3655C22.125 14.939 22.1156 15.2109 22.0453 15.2905C21.975 15.3702 21.7875 15.3749 18.0094 15.3749C14.3859 15.3749 14.0391 15.3702 13.9594 15.2952C13.8797 15.2249 13.875 15.0702 13.875 12.3843C13.875 9.81086 13.8844 9.53898 13.9547 9.45929C14.025 9.37961 14.2125 9.37492 17.9906 9.37492C21.6141 9.37492 21.9609 9.37961 22.0406 9.45461ZM13.125 11.2499V11.6249H10.3125H7.5V11.3062C7.5 11.1187 7.52344 10.964 7.55625 10.9312C7.59844 10.889 8.2875 10.8749 10.3688 10.8749H13.125V11.2499ZM28.4438 10.9312C28.4766 10.964 28.5 11.1187 28.5 11.3062V11.6249H25.6875H22.875V11.2499V10.8749H25.6313C27.7125 10.8749 28.4016 10.889 28.4438 10.9312ZM13.125 12.7499V13.1249H10.3125H7.5V12.7499V12.3749H10.3125H13.125V12.7499ZM28.5 12.7499V13.1249H25.6875H22.875V12.7499V12.3749H25.6875H28.5V12.7499ZM13.125 14.2499V14.6249H10.3688C8.2875 14.6249 7.59844 14.6109 7.55625 14.5687C7.52344 14.5359 7.5 14.3812 7.5 14.1937V13.8749H10.3125H13.125V14.2499ZM28.5 14.1937C28.5 14.3812 28.4766 14.5359 28.4438 14.5687C28.4016 14.6109 27.7125 14.6249 25.6313 14.6249H22.875V14.2499V13.8749H25.6875H28.5V14.1937ZM13.2891 15.6234C13.4016 15.8155 13.4812 15.8952 13.6828 15.9937L13.9406 16.1249H18H22.0594L22.3172 15.9937C22.5188 15.8952 22.5984 15.8155 22.7109 15.6234L22.8516 15.3796L25.3031 15.3749H27.75V20.9155C27.75 27.2483 27.8016 26.6249 27.2953 26.6249H27V22.3686C27 18.1921 26.9953 18.1124 26.9016 17.9061C26.775 17.6249 26.6484 17.4936 26.3672 17.3624C26.1328 17.2499 26.1234 17.2499 24.4031 17.2499C23.175 17.2499 22.6172 17.2686 22.4813 17.3061C22.2281 17.3811 21.8813 17.728 21.8063 17.9811C21.7641 18.1265 21.75 19.2093 21.75 22.4015V26.6249H15.0844C8.94844 26.6249 8.41406 26.6202 8.33438 26.5452C8.25469 26.4749 8.25 26.2358 8.25 20.9202V15.3749H10.7016L13.1484 15.3796L13.2891 15.6234ZM24 22.3124V26.6249H23.25H22.5V22.4202V18.2155L22.6031 18.1077C22.6969 18.0046 22.7344 17.9999 23.3531 17.9999H24V22.3124ZM26.1422 18.103L26.25 18.2015V22.4155V26.6249H25.5H24.75V22.3124V17.9999H25.3922C25.9875 17.9999 26.0391 18.0093 26.1422 18.103Z" fill="white"/>
<path d="M9.60898 17.3108C9.38867 17.3812 9.12617 17.6577 9.05586 17.8874C8.97617 18.164 8.97617 23.8358 9.05586 24.1124C9.13086 24.3562 9.39336 24.6187 9.63711 24.6937C9.9043 24.7733 13.7152 24.7733 13.9777 24.6937C14.2121 24.6233 14.4981 24.3374 14.5684 24.103C14.6481 23.8358 14.6481 18.1593 14.5684 17.8874C14.4934 17.6437 14.2309 17.3812 13.9871 17.3062C13.7293 17.2312 9.85273 17.2358 9.60898 17.3108ZM13.8184 18.0562C13.8981 18.1358 13.8981 23.864 13.8184 23.9437C13.7387 24.0233 9.88555 24.0233 9.80586 23.9437C9.76367 23.9015 9.74961 23.1796 9.74961 20.9765C9.74961 19.3733 9.76367 18.0468 9.78242 18.0327C9.79648 18.014 10.7012 17.9999 11.7887 17.9999C13.2606 17.9999 13.7762 18.014 13.8184 18.0562Z" fill="white"/>
<path d="M15.9844 17.3108C15.7641 17.3812 15.5016 17.6577 15.4312 17.8874C15.3891 18.0327 15.375 18.8296 15.375 20.9999C15.375 23.1702 15.3891 23.9671 15.4312 24.1124C15.5062 24.3562 15.7687 24.6187 16.0125 24.6937C16.2797 24.7733 20.0906 24.7733 20.3531 24.6937C20.5875 24.6233 20.8734 24.3374 20.9438 24.103C21.0234 23.8358 21.0234 18.1593 20.9438 17.8874C20.8688 17.6437 20.6063 17.3812 20.3625 17.3062C20.1047 17.2312 16.2281 17.2358 15.9844 17.3108ZM20.1938 18.0562C20.2734 18.1358 20.2734 23.864 20.1938 23.9437C20.1141 24.0233 16.2609 24.0233 16.1813 23.9437C16.1391 23.9015 16.125 23.1796 16.125 20.9765C16.125 19.3733 16.1391 18.0468 16.1578 18.0327C16.1719 18.014 17.0766 17.9999 18.1641 17.9999C19.6359 17.9999 20.1516 18.014 20.1938 18.0562Z" fill="white"/>
<path d="M15.2147 14H17.6947V13.38H16.8947C16.7197 13.38 16.4747 13.4 16.2897 13.42C16.9647 12.76 17.5197 12.04 17.5197 11.37C17.5197 10.68 17.0547 10.23 16.3547 10.23C15.8497 10.23 15.5197 10.425 15.1797 10.79L15.5797 11.19C15.7697 10.985 15.9897 10.81 16.2597 10.81C16.6147 10.81 16.8147 11.035 16.8147 11.41C16.8147 11.98 16.2197 12.675 15.2147 13.575V14ZM18.764 12.48L19.339 11.56C19.444 11.36 19.544 11.155 19.634 10.955H19.654C19.644 11.175 19.629 11.51 19.629 11.725V12.48H18.764ZM19.629 14H20.314V13.04H20.749V12.48H20.314V10.295H19.429L18.049 12.54V13.04H19.629V14Z" fill="white"/>
</svg>
