<svg width="54" height="55" viewBox="0 0 54 55" fill="none" xmlns="http://www.w3.org/2000/svg">
<rect x="9" width="36" height="36" rx="18" fill="#FF6F91"/>
<path d="M22.7812 8.68586C22.5563 8.75617 22.2516 9.07492 22.1813 9.30929C22.1531 9.41711 22.125 9.64211 22.125 9.81554V10.1249H19.3266C16.6969 10.1249 16.5141 10.1343 16.3359 10.214C16.0875 10.3265 15.9469 10.4718 15.8391 10.7062C15.7594 10.8843 15.75 11.0437 15.75 12.7499C15.75 14.4421 15.7594 14.6155 15.8391 14.789C15.9328 15.0046 16.2094 15.2671 16.3828 15.3093L16.5 15.3374V20.9483V26.5546L16.6125 26.789C16.7391 27.0655 16.8281 27.1499 17.1094 27.2765C17.3203 27.3702 17.3672 27.3749 27 27.3749H36.6797L36.9141 27.2624C37.1906 27.1358 37.275 27.0468 37.4016 26.7655C37.4953 26.5593 37.5 26.4843 37.5 20.9483V15.3374L37.6172 15.3093C37.7906 15.2671 38.0672 15.0046 38.1609 14.789C38.2406 14.6202 38.25 14.4374 38.25 12.7452V10.8843L38.1188 10.6359C38.0156 10.4343 37.9406 10.3593 37.7391 10.2562L37.4906 10.1249H34.6828H31.875V9.81554C31.875 9.64211 31.8469 9.41711 31.8188 9.30929C31.7438 9.06086 31.4391 8.75617 31.1906 8.68117C30.9281 8.60617 23.0297 8.60617 22.7812 8.68586ZM31.0406 9.45461C31.1203 9.52492 31.125 9.67961 31.125 12.3655C31.125 14.939 31.1156 15.2109 31.0453 15.2905C30.975 15.3702 30.7875 15.3749 27.0094 15.3749C23.3859 15.3749 23.0391 15.3702 22.9594 15.2952C22.8797 15.2249 22.875 15.0702 22.875 12.3843C22.875 9.81086 22.8844 9.53898 22.9547 9.45929C23.025 9.37961 23.2125 9.37492 26.9906 9.37492C30.6141 9.37492 30.9609 9.37961 31.0406 9.45461ZM22.125 11.2499V11.6249H19.3125H16.5V11.3062C16.5 11.1187 16.5234 10.964 16.5562 10.9312C16.5984 10.889 17.2875 10.8749 19.3688 10.8749H22.125V11.2499ZM37.4438 10.9312C37.4766 10.964 37.5 11.1187 37.5 11.3062V11.6249H34.6875H31.875V11.2499V10.8749H34.6313C36.7125 10.8749 37.4016 10.889 37.4438 10.9312ZM22.125 12.7499V13.1249H19.3125H16.5V12.7499V12.3749H19.3125H22.125V12.7499ZM37.5 12.7499V13.1249H34.6875H31.875V12.7499V12.3749H34.6875H37.5V12.7499ZM22.125 14.2499V14.6249H19.3688C17.2875 14.6249 16.5984 14.6109 16.5562 14.5687C16.5234 14.5359 16.5 14.3812 16.5 14.1937V13.8749H19.3125H22.125V14.2499ZM37.5 14.1937C37.5 14.3812 37.4766 14.5359 37.4438 14.5687C37.4016 14.6109 36.7125 14.6249 34.6313 14.6249H31.875V14.2499V13.8749H34.6875H37.5V14.1937ZM22.2891 15.6234C22.4016 15.8155 22.4812 15.8952 22.6828 15.9937L22.9406 16.1249H27H31.0594L31.3172 15.9937C31.5188 15.8952 31.5984 15.8155 31.7109 15.6234L31.8516 15.3796L34.3031 15.3749H36.75V20.9155C36.75 27.2483 36.8016 26.6249 36.2953 26.6249H36V22.3686C36 18.1921 35.9953 18.1124 35.9016 17.9061C35.775 17.6249 35.6484 17.4936 35.3672 17.3624C35.1328 17.2499 35.1234 17.2499 33.4031 17.2499C32.175 17.2499 31.6172 17.2686 31.4813 17.3061C31.2281 17.3811 30.8813 17.728 30.8063 17.9811C30.7641 18.1265 30.75 19.2093 30.75 22.4015V26.6249H24.0844C17.9484 26.6249 17.4141 26.6202 17.3344 26.5452C17.2547 26.4749 17.25 26.2358 17.25 20.9202V15.3749H19.7016L22.1484 15.3796L22.2891 15.6234ZM33 22.3124V26.6249H32.25H31.5V22.4202V18.2155L31.6031 18.1077C31.6969 18.0046 31.7344 17.9999 32.3531 17.9999H33V22.3124ZM35.1422 18.103L35.25 18.2015V22.4155V26.6249H34.5H33.75V22.3124V17.9999H34.3922C34.9875 17.9999 35.0391 18.0093 35.1422 18.103Z" fill="white"/>
<path d="M18.609 17.3108C18.3887 17.3812 18.1262 17.6577 18.0559 17.8874C17.9762 18.164 17.9762 23.8358 18.0559 24.1124C18.1309 24.3562 18.3934 24.6187 18.6371 24.6937C18.9043 24.7733 22.7152 24.7733 22.9777 24.6937C23.2121 24.6233 23.4981 24.3374 23.5684 24.103C23.6481 23.8358 23.6481 18.1593 23.5684 17.8874C23.4934 17.6437 23.2309 17.3812 22.9871 17.3062C22.7293 17.2312 18.8527 17.2358 18.609 17.3108ZM22.8184 18.0562C22.8981 18.1358 22.8981 23.864 22.8184 23.9437C22.7387 24.0233 18.8856 24.0233 18.8059 23.9437C18.7637 23.9015 18.7496 23.1796 18.7496 20.9765C18.7496 19.3733 18.7637 18.0468 18.7824 18.0327C18.7965 18.014 19.7012 17.9999 20.7887 17.9999C22.2606 17.9999 22.7762 18.014 22.8184 18.0562Z" fill="white"/>
<path d="M24.9844 17.3108C24.7641 17.3812 24.5016 17.6577 24.4312 17.8874C24.3891 18.0327 24.375 18.8296 24.375 20.9999C24.375 23.1702 24.3891 23.9671 24.4312 24.1124C24.5062 24.3562 24.7687 24.6187 25.0125 24.6937C25.2797 24.7733 29.0906 24.7733 29.3531 24.6937C29.5875 24.6233 29.8734 24.3374 29.9438 24.103C30.0234 23.8358 30.0234 18.1593 29.9438 17.8874C29.8688 17.6437 29.6063 17.3812 29.3625 17.3062C29.1047 17.2312 25.2281 17.2358 24.9844 17.3108ZM29.1938 18.0562C29.2734 18.1358 29.2734 23.864 29.1938 23.9437C29.1141 24.0233 25.2609 24.0233 25.1813 23.9437C25.1391 23.9015 25.125 23.1796 25.125 20.9765C25.125 19.3733 25.1391 18.0468 25.1578 18.0327C25.1719 18.014 26.0766 17.9999 27.1641 17.9999C28.6359 17.9999 29.1516 18.014 29.1938 18.0562Z" fill="white"/>
<path d="M24.2147 14H26.6947V13.38H25.8947C25.7197 13.38 25.4747 13.4 25.2897 13.42C25.9647 12.76 26.5197 12.04 26.5197 11.37C26.5197 10.68 26.0547 10.23 25.3547 10.23C24.8497 10.23 24.5197 10.425 24.1797 10.79L24.5797 11.19C24.7697 10.985 24.9897 10.81 25.2597 10.81C25.6147 10.81 25.8147 11.035 25.8147 11.41C25.8147 11.98 25.2197 12.675 24.2147 13.575V14ZM27.764 12.48L28.339 11.56C28.444 11.36 28.544 11.155 28.634 10.955H28.654C28.644 11.175 28.629 11.51 28.629 11.725V12.48H27.764ZM28.629 14H29.314V13.04H29.749V12.48H29.314V10.295H28.429L27.049 12.54V13.04H28.629V14Z" fill="white"/>
<path d="M17.926 50.816H19.088V41.492H17.926V43.872H15.826V44.796H17.926V46.266H15.826V47.204H17.926V50.816ZM11.472 43.424H13.362V47.876C12.732 47.904 12.088 47.932 11.472 47.946V43.424ZM16.12 47.652C15.602 47.708 15.042 47.764 14.482 47.806V43.424H15.728V42.5H9.12V43.424H10.366V47.96C9.806 47.974 9.26 47.974 8.784 47.974L8.91 48.926C10.94 48.926 13.782 48.884 16.19 48.506L16.12 47.652ZM12.186 52.818V50.06H11.038V53.756H19.41V52.818H12.186ZM25.1949 42.402C23.2489 42.402 21.8349 43.592 21.8349 45.356C21.8349 47.106 23.2489 48.31 25.1949 48.31C27.1549 48.31 28.5549 47.106 28.5549 45.356C28.5549 43.592 27.1549 42.402 25.1949 42.402ZM25.1949 43.382C26.4969 43.382 27.4349 44.18 27.4349 45.356C27.4349 46.518 26.4969 47.33 25.1949 47.33C23.9069 47.33 22.9549 46.518 22.9549 45.356C22.9549 44.18 23.9069 43.382 25.1949 43.382ZM30.2069 41.478V54.064H31.3549V41.478H30.2069ZM21.3449 51.306C23.6129 51.306 26.6509 51.278 29.4789 50.76L29.3809 49.906C26.6369 50.326 23.4869 50.34 21.2049 50.34L21.3449 51.306ZM40.9058 47.526C39.0858 46.882 37.8538 45.314 37.8538 43.676V43.214H40.6118V42.276H33.9058V43.214H36.7058V43.69C36.7058 45.468 35.4038 47.134 33.5418 47.806L34.1438 48.702C35.6138 48.17 36.7618 47.022 37.3078 45.58C37.8538 46.868 38.9318 47.918 40.3318 48.422L40.9058 47.526ZM36.8038 50.354H42.7258V52.944H36.8038V50.354ZM35.6838 53.868H43.8458V49.444H35.6838V53.868ZM42.6838 41.478V44.628H40.2058V45.58H42.6838V48.828H43.8458V41.478H42.6838Z" fill="#3F3D56"/>
</svg>
