<svg width="54" height="55" viewBox="0 0 54 55" fill="none" xmlns="http://www.w3.org/2000/svg">
<rect x="9" width="36" height="36" rx="18" fill="#D9D9D9"/>
<g clip-path="url(#clip0_496_1237)">
<path d="M20.8831 6.07492C19.5002 6.37492 18.4456 7.44367 18.1643 8.84054C18.1034 9.13585 18.094 9.44054 18.1034 10.2562L18.1174 11.2968L18.2393 11.414C18.3049 11.4796 18.4362 11.5452 18.5299 11.564C18.6799 11.5874 18.7221 11.5687 18.8674 11.4234L19.0315 11.2593V10.2327C19.0315 9.48742 19.0502 9.13117 19.1018 8.91085C19.3174 7.99679 20.0909 7.22335 21.0049 7.00773C21.4549 6.9046 32.5456 6.9046 32.9956 7.00773C33.6799 7.17179 34.3362 7.67804 34.6596 8.2921C34.9831 8.90617 34.969 8.59679 34.969 14.9062L34.9643 20.6015L33.1268 22.1343L31.2893 23.6718H30.6237H29.9534V23.2968C29.9534 22.7484 29.8268 22.5468 29.4846 22.5468C29.1424 22.5468 29.0159 22.7484 29.0159 23.2968V23.6718H28.3127H27.6096V23.3718C27.6096 23.2077 27.5956 23.0109 27.5815 22.9265C27.5065 22.5468 27.0331 22.4062 26.794 22.6921C26.6815 22.8234 26.6721 22.8702 26.6721 23.2546V23.6718H25.9456H25.219V23.2452C25.219 22.8374 25.2143 22.814 25.0831 22.6827C24.844 22.4437 24.4409 22.528 24.3331 22.8374C24.3049 22.9171 24.2815 23.1374 24.2815 23.3249V23.6718H23.494H22.7112L20.8737 22.1343L19.0362 20.6015L19.0315 17.9812V15.3655L18.8674 15.2015C18.7221 15.0562 18.6799 15.0374 18.5299 15.0609C18.4362 15.0796 18.3049 15.1452 18.2393 15.2109L18.1174 15.328L18.1034 18.0984C18.094 20.5359 18.0987 20.8827 18.1643 21.014C18.2065 21.0984 18.4081 21.2999 18.6096 21.464L18.9846 21.7687L18.7549 22.1905C17.6674 24.2343 15.0377 29.3718 15.0143 29.503C14.9909 29.6484 15.0096 29.6905 15.1549 29.8359C15.2581 29.939 15.3659 29.9999 15.4409 29.9999C15.7596 29.9999 15.7174 30.0702 17.7377 26.1702C18.7924 24.1405 19.669 22.4577 19.6924 22.4343C19.7252 22.3968 20.3346 22.8609 20.3393 22.9312C20.344 22.9499 19.7815 24.4265 19.0971 26.2124C17.7424 29.7562 17.7706 29.6437 18.0518 29.878C18.2159 30.0187 18.3752 30.0327 18.5627 29.9202C18.7081 29.8359 18.7409 29.7702 19.0456 28.9687L19.2518 28.4296L25.3034 28.4062L31.3596 28.3827L31.4862 28.2562C31.6784 28.064 31.669 27.7874 31.4627 27.6046L31.3127 27.4687H25.4768C22.2659 27.4687 19.6409 27.4593 19.6409 27.4452C19.6409 27.4312 19.7159 27.2202 19.8096 26.9765L19.9831 26.5312H27.0002H34.0174L34.5706 27.9702C34.8752 28.7671 35.1612 29.5124 35.2127 29.6296C35.3627 29.9905 35.6862 30.103 35.9487 29.878C36.2299 29.6437 36.2581 29.7562 34.9034 26.2124C34.219 24.4265 33.6565 22.9499 33.6612 22.9312C33.6659 22.8609 34.2752 22.3968 34.3081 22.4343C34.3315 22.4577 35.2081 24.1405 36.2627 26.1702C38.2831 30.0702 38.2409 29.9999 38.5596 29.9999C38.6346 29.9999 38.7424 29.939 38.8456 29.8359C38.9909 29.6905 39.0096 29.6484 38.9862 29.503C38.9627 29.3718 36.3331 24.2343 35.2456 22.1905L35.0159 21.7687L35.3909 21.464C35.5924 21.2999 35.794 21.0984 35.8362 21.014C35.9018 20.878 35.9065 20.2452 35.8924 14.8734C35.8831 9.27179 35.8737 8.86398 35.794 8.60148C35.4331 7.38273 34.5237 6.47335 33.3049 6.11242C33.0424 6.03273 32.6487 6.02335 27.1174 6.01398C22.0127 6.00929 21.169 6.01398 20.8831 6.07492ZM21.694 24.0421C21.994 24.2952 22.2893 24.5249 22.3456 24.5577C22.4909 24.6327 31.5096 24.6327 31.6549 24.5577C31.7112 24.5249 32.0065 24.2905 32.3112 24.0374C32.6159 23.7796 32.8737 23.578 32.8831 23.5827C32.8924 23.5921 33.0565 24.014 33.2487 24.5155C33.4409 25.0171 33.6143 25.4671 33.6331 25.5093C33.6659 25.589 33.3284 25.5937 27.0002 25.5937C23.3346 25.5937 20.344 25.5749 20.3534 25.5562C20.3627 25.5327 20.5362 25.078 20.7377 24.5484C20.944 24.014 21.1174 23.578 21.1268 23.578C21.1362 23.578 21.394 23.7843 21.694 24.0421Z" fill="white"/>
<path d="M21.3046 9.45938C20.8405 9.61875 20.4889 10.0078 20.3905 10.4672C20.353 10.6359 20.3436 11.4281 20.353 12.9844C20.3671 15.1969 20.3717 15.2625 20.4655 15.4734C20.5967 15.7547 20.9014 16.0594 21.1827 16.1906L21.3983 16.2891H26.9999H32.6014L32.8171 16.1906C33.0983 16.0594 33.403 15.7547 33.5342 15.4734C33.6327 15.2625 33.6327 15.2156 33.6327 12.8438C33.6327 10.4719 33.6327 10.425 33.5342 10.2141C33.403 9.93281 33.0983 9.62813 32.8171 9.49688L32.6014 9.39844L27.0702 9.38906C21.9186 9.37969 21.5249 9.38438 21.3046 9.45938ZM26.5311 12.8438V15.3797L24.0467 15.3656L21.5624 15.3516L21.4358 15.2203L21.3046 15.0938V12.8484C21.3046 10.6688 21.3092 10.5984 21.3983 10.5C21.4499 10.4438 21.5342 10.3781 21.5858 10.3547C21.6374 10.3359 22.7717 10.3172 24.1077 10.3172L26.5311 10.3125V12.8438ZM32.5639 10.4672L32.6952 10.5938V12.8438V15.0938L32.5639 15.2203L32.4374 15.3516L29.953 15.3656L27.4686 15.3797V12.8438V10.3078L29.953 10.3219L32.4374 10.3359L32.5639 10.4672Z" fill="white"/>
<path d="M18.4224 12.8015C18.0568 12.9468 17.9912 13.3547 18.3006 13.6031C18.5302 13.7906 18.9381 13.6406 19.0131 13.3406C19.0927 13.0125 18.7318 12.6797 18.4224 12.8015Z" fill="white"/>
<path d="M21.5484 17.5781C21.0938 17.6953 20.6953 18.0234 20.4891 18.464C20.3859 18.6843 20.3672 18.7921 20.3672 19.1249C20.3672 19.4578 20.3859 19.5656 20.4891 19.7859C20.6484 20.1281 20.9391 20.414 21.2766 20.5687C21.6562 20.7468 22.1813 20.7468 22.5516 20.5734C23.8172 19.9781 23.8219 18.2624 22.5609 17.6859C22.275 17.5546 21.8344 17.5078 21.5484 17.5781ZM22.1906 18.5343C22.5609 18.689 22.6875 19.1906 22.4391 19.5187C22.0594 20.0109 21.2813 19.7484 21.2813 19.1249C21.2813 18.6421 21.7406 18.3468 22.1906 18.5343Z" fill="white"/>
<path d="M24.5771 17.5781C24.4271 17.6391 24.3099 17.8453 24.3146 18.0375C24.3193 18.1641 24.3568 18.2391 24.4646 18.3375L24.6099 18.4687H27.099C29.8224 18.4687 29.7896 18.4734 29.9068 18.1922C29.9818 18.0094 29.9302 17.8078 29.7849 17.6672L29.663 17.5547L27.174 17.5453C25.7865 17.5406 24.6333 17.5547 24.5771 17.5781Z" fill="white"/>
<path d="M31.6318 17.6014C31.3459 17.6811 31.1303 17.8124 30.9006 18.0655C30.6615 18.328 30.5865 18.4733 30.5115 18.8342C30.399 19.3686 30.5772 19.8936 30.999 20.2827C31.2662 20.5264 31.4115 20.6014 31.7725 20.6764C32.0068 20.728 32.1193 20.728 32.3537 20.6764C32.7147 20.6014 32.86 20.5264 33.1272 20.2827C33.549 19.8936 33.7272 19.3686 33.6147 18.8342C33.5397 18.4733 33.4647 18.328 33.2256 18.0655C32.799 17.6014 32.2272 17.4374 31.6318 17.6014ZM32.3818 18.5624C32.7006 18.7592 32.8084 19.1436 32.6256 19.4436C32.3584 19.8842 31.7678 19.8842 31.5006 19.4436C31.1678 18.8952 31.8334 18.2295 32.3818 18.5624Z" fill="white"/>
<path d="M24.5866 19.8234C24.296 19.9453 24.2163 20.3484 24.4413 20.5687L24.5632 20.6953L27.0944 20.7093L29.621 20.7234L29.7757 20.5828C29.9023 20.4703 29.9304 20.414 29.9304 20.25C29.9304 20.0859 29.9023 20.0296 29.7757 19.9171L29.6257 19.7812L27.1507 19.7859C25.7913 19.7859 24.6382 19.8046 24.5866 19.8234Z" fill="white"/>
<path d="M32.8037 27.6047C32.4897 27.8859 32.6725 28.3828 33.0944 28.3828C33.5162 28.3828 33.699 27.8859 33.385 27.6047C33.1881 27.4266 33.0006 27.4266 32.8037 27.6047Z" fill="white"/>
</g>
<path d="M13.222 43.718H16.176V42.766H9.162V43.718H12.074V45.314C12.074 47.484 10.548 49.85 8.742 50.704L9.414 51.628C10.842 50.9 12.074 49.318 12.648 47.484C13.25 49.206 14.482 50.648 15.938 51.32L16.582 50.396C14.734 49.612 13.222 47.442 13.222 45.314V43.718ZM17.87 41.492V54.036H19.018V41.492H17.87ZM24.8029 50.284C23.6689 50.284 22.8429 49.472 22.8429 48.352C22.8429 47.218 23.6689 46.406 24.8029 46.406C25.9509 46.406 26.7769 47.218 26.7769 48.352C26.7769 49.472 25.9509 50.284 24.8029 50.284ZM24.8029 45.454C23.0389 45.454 21.7649 46.658 21.7649 48.352C21.7649 50.06 23.0389 51.236 24.8029 51.236C26.5949 51.236 27.8689 50.06 27.8689 48.352C27.8689 46.658 26.5949 45.454 24.8029 45.454ZM25.3629 41.632H24.2149V43.494H21.0509V44.418H28.4569V43.494H25.3629V41.632ZM32.8529 46.644H30.7949V41.492H29.6469V54.036H30.7949V47.61H32.8529V46.644ZM40.1918 44.6V45.538H42.6838V48.072H43.8318V41.492H42.6838V44.6H40.1918ZM40.9898 46.952C39.1418 46.518 37.7838 45.342 37.7838 43.942V43.648H40.5558V42.724H37.7838V41.422H36.6358V42.724H33.8498V43.648H36.6358V43.942C36.6358 45.426 35.3198 46.7 33.4578 47.19L33.9758 48.086C35.4878 47.666 36.6778 46.756 37.2238 45.538C37.8258 46.644 39.0018 47.456 40.4998 47.834L40.9898 46.952ZM36.9018 53V51.642H43.8318V48.674H35.7398V49.57H42.6978V50.788H35.7678V53.896H44.3078V53H36.9018Z" fill="#3F3D56"/>
<defs>
<clipPath id="clip0_496_1237">
<rect width="24" height="24" fill="white" transform="translate(15 6)"/>
</clipPath>
</defs>
</svg>
