<svg width="36" height="36" viewBox="0 0 36 36" fill="none" xmlns="http://www.w3.org/2000/svg">
<rect width="36" height="36" rx="18" fill="#845EC2"/>
<g clip-path="url(#clip0_497_1932)">
<path d="M11.8831 6.07492C10.5002 6.37492 9.44556 7.44367 9.16431 8.84054C9.10337 9.13585 9.094 9.44054 9.10337 10.2562L9.11744 11.2968L9.23931 11.414C9.30494 11.4796 9.43619 11.5452 9.52994 11.564C9.67994 11.5874 9.72212 11.5687 9.86744 11.4234L10.0315 11.2593V10.2327C10.0315 9.48742 10.0502 9.13117 10.1018 8.91085C10.3174 7.99679 11.0909 7.22335 12.0049 7.00773C12.4549 6.9046 23.5456 6.9046 23.9956 7.00773C24.6799 7.17179 25.3362 7.67804 25.6596 8.2921C25.9831 8.90617 25.969 8.59679 25.969 14.9062L25.9643 20.6015L24.1268 22.1343L22.2893 23.6718H21.6237H20.9534V23.2968C20.9534 22.7484 20.8268 22.5468 20.4846 22.5468C20.1424 22.5468 20.0159 22.7484 20.0159 23.2968V23.6718H19.3127H18.6096V23.3718C18.6096 23.2077 18.5956 23.0109 18.5815 22.9265C18.5065 22.5468 18.0331 22.4062 17.794 22.6921C17.6815 22.8234 17.6721 22.8702 17.6721 23.2546V23.6718H16.9456H16.219V23.2452C16.219 22.8374 16.2143 22.814 16.0831 22.6827C15.844 22.4437 15.4409 22.528 15.3331 22.8374C15.3049 22.9171 15.2815 23.1374 15.2815 23.3249V23.6718H14.494H13.7112L11.8737 22.1343L10.0362 20.6015L10.0315 17.9812V15.3655L9.86744 15.2015C9.72212 15.0562 9.67994 15.0374 9.52994 15.0609C9.43619 15.0796 9.30494 15.1452 9.23931 15.2109L9.11744 15.328L9.10337 18.0984C9.094 20.5359 9.09869 20.8827 9.16431 21.014C9.2065 21.0984 9.40806 21.2999 9.60962 21.464L9.98462 21.7687L9.75494 22.1905C8.66744 24.2343 6.03775 29.3718 6.01431 29.503C5.99087 29.6484 6.00962 29.6905 6.15494 29.8359C6.25806 29.939 6.36587 29.9999 6.44087 29.9999C6.75962 29.9999 6.71744 30.0702 8.73775 26.1702C9.79244 24.1405 10.669 22.4577 10.6924 22.4343C10.7252 22.3968 11.3346 22.8609 11.3393 22.9312C11.344 22.9499 10.7815 24.4265 10.0971 26.2124C8.74244 29.7562 8.77056 29.6437 9.05181 29.878C9.21587 30.0187 9.37525 30.0327 9.56275 29.9202C9.70806 29.8359 9.74087 29.7702 10.0456 28.9687L10.2518 28.4296L16.3034 28.4062L22.3596 28.3827L22.4862 28.2562C22.6784 28.064 22.669 27.7874 22.4627 27.6046L22.3127 27.4687H16.4768C13.2659 27.4687 10.6409 27.4593 10.6409 27.4452C10.6409 27.4312 10.7159 27.2202 10.8096 26.9765L10.9831 26.5312H18.0002H25.0174L25.5706 27.9702C25.8752 28.7671 26.1612 29.5124 26.2127 29.6296C26.3627 29.9905 26.6862 30.103 26.9487 29.878C27.2299 29.6437 27.2581 29.7562 25.9034 26.2124C25.219 24.4265 24.6565 22.9499 24.6612 22.9312C24.6659 22.8609 25.2752 22.3968 25.3081 22.4343C25.3315 22.4577 26.2081 24.1405 27.2627 26.1702C29.2831 30.0702 29.2409 29.9999 29.5596 29.9999C29.6346 29.9999 29.7424 29.939 29.8456 29.8359C29.9909 29.6905 30.0096 29.6484 29.9862 29.503C29.9627 29.3718 27.3331 24.2343 26.2456 22.1905L26.0159 21.7687L26.3909 21.464C26.5924 21.2999 26.794 21.0984 26.8362 21.014C26.9018 20.878 26.9065 20.2452 26.8924 14.8734C26.8831 9.27179 26.8737 8.86398 26.794 8.60148C26.4331 7.38273 25.5237 6.47335 24.3049 6.11242C24.0424 6.03273 23.6487 6.02335 18.1174 6.01398C13.0127 6.00929 12.169 6.01398 11.8831 6.07492ZM12.694 24.0421C12.994 24.2952 13.2893 24.5249 13.3456 24.5577C13.4909 24.6327 22.5096 24.6327 22.6549 24.5577C22.7112 24.5249 23.0065 24.2905 23.3112 24.0374C23.6159 23.7796 23.8737 23.578 23.8831 23.5827C23.8924 23.5921 24.0565 24.014 24.2487 24.5155C24.4409 25.0171 24.6143 25.4671 24.6331 25.5093C24.6659 25.589 24.3284 25.5937 18.0002 25.5937C14.3346 25.5937 11.344 25.5749 11.3534 25.5562C11.3627 25.5327 11.5362 25.078 11.7377 24.5484C11.944 24.014 12.1174 23.578 12.1268 23.578C12.1362 23.578 12.394 23.7843 12.694 24.0421Z" fill="white"/>
<path d="M12.3046 9.45938C11.8405 9.61875 11.4889 10.0078 11.3905 10.4672C11.353 10.6359 11.3436 11.4281 11.353 12.9844C11.3671 15.1969 11.3717 15.2625 11.4655 15.4734C11.5967 15.7547 11.9014 16.0594 12.1827 16.1906L12.3983 16.2891H17.9999H23.6014L23.8171 16.1906C24.0983 16.0594 24.403 15.7547 24.5342 15.4734C24.6327 15.2625 24.6327 15.2156 24.6327 12.8438C24.6327 10.4719 24.6327 10.425 24.5342 10.2141C24.403 9.93281 24.0983 9.62813 23.8171 9.49688L23.6014 9.39844L18.0702 9.38906C12.9186 9.37969 12.5249 9.38438 12.3046 9.45938ZM17.5311 12.8438V15.3797L15.0467 15.3656L12.5624 15.3516L12.4358 15.2203L12.3046 15.0938V12.8484C12.3046 10.6688 12.3092 10.5984 12.3983 10.5C12.4499 10.4438 12.5342 10.3781 12.5858 10.3547C12.6374 10.3359 13.7717 10.3172 15.1077 10.3172L17.5311 10.3125V12.8438ZM23.5639 10.4672L23.6952 10.5938V12.8438V15.0938L23.5639 15.2203L23.4374 15.3516L20.953 15.3656L18.4686 15.3797V12.8438V10.3078L20.953 10.3219L23.4374 10.3359L23.5639 10.4672Z" fill="white"/>
<path d="M9.42244 12.8015C9.05681 12.9468 8.99119 13.3547 9.30056 13.6031C9.53025 13.7906 9.93806 13.6406 10.0131 13.3406C10.0927 13.0125 9.73181 12.6797 9.42244 12.8015Z" fill="white"/>
<path d="M12.5484 17.5781C12.0938 17.6953 11.6953 18.0234 11.4891 18.464C11.3859 18.6843 11.3672 18.7921 11.3672 19.1249C11.3672 19.4578 11.3859 19.5656 11.4891 19.7859C11.6484 20.1281 11.9391 20.414 12.2766 20.5687C12.6562 20.7468 13.1813 20.7468 13.5516 20.5734C14.8172 19.9781 14.8219 18.2624 13.5609 17.6859C13.275 17.5546 12.8344 17.5078 12.5484 17.5781ZM13.1906 18.5343C13.5609 18.689 13.6875 19.1906 13.4391 19.5187C13.0594 20.0109 12.2813 19.7484 12.2813 19.1249C12.2813 18.6421 12.7406 18.3468 13.1906 18.5343Z" fill="white"/>
<path d="M15.5771 17.5781C15.4271 17.6391 15.3099 17.8453 15.3146 18.0375C15.3193 18.1641 15.3568 18.2391 15.4646 18.3375L15.6099 18.4687H18.099C20.8224 18.4687 20.7896 18.4734 20.9068 18.1922C20.9818 18.0094 20.9302 17.8078 20.7849 17.6672L20.663 17.5547L18.174 17.5453C16.7865 17.5406 15.6333 17.5547 15.5771 17.5781Z" fill="white"/>
<path d="M22.6318 17.6014C22.3459 17.6811 22.1303 17.8124 21.9006 18.0655C21.6615 18.328 21.5865 18.4733 21.5115 18.8342C21.399 19.3686 21.5772 19.8936 21.999 20.2827C22.2662 20.5264 22.4115 20.6014 22.7725 20.6764C23.0068 20.728 23.1193 20.728 23.3537 20.6764C23.7147 20.6014 23.86 20.5264 24.1272 20.2827C24.549 19.8936 24.7272 19.3686 24.6147 18.8342C24.5397 18.4733 24.4647 18.328 24.2256 18.0655C23.799 17.6014 23.2272 17.4374 22.6318 17.6014ZM23.3818 18.5624C23.7006 18.7592 23.8084 19.1436 23.6256 19.4436C23.3584 19.8842 22.7678 19.8842 22.5006 19.4436C22.1678 18.8952 22.8334 18.2295 23.3818 18.5624Z" fill="white"/>
<path d="M15.5866 19.8234C15.296 19.9453 15.2163 20.3484 15.4413 20.5687L15.5632 20.6953L18.0944 20.7093L20.621 20.7234L20.7757 20.5828C20.9023 20.4703 20.9304 20.414 20.9304 20.25C20.9304 20.0859 20.9023 20.0296 20.7757 19.9171L20.6257 19.7812L18.1507 19.7859C16.7913 19.7859 15.6382 19.8046 15.5866 19.8234Z" fill="white"/>
<path d="M23.8037 27.6047C23.4897 27.8859 23.6725 28.3828 24.0944 28.3828C24.5162 28.3828 24.699 27.8859 24.385 27.6047C24.1881 27.4266 24.0006 27.4266 23.8037 27.6047Z" fill="white"/>
</g>
<defs>
<clipPath id="clip0_497_1932">
<rect width="24" height="24" fill="white" transform="translate(6 6)"/>
</clipPath>
</defs>
</svg>
