<svg width="54" height="55" viewBox="0 0 54 55" fill="none" xmlns="http://www.w3.org/2000/svg">
<rect x="9" width="36" height="36" rx="18" fill="#D9D9D9"/>
<g clip-path="url(#clip0_496_1329)">
<path d="M22.1717 6.06092C21.5904 6.2203 21.0982 6.7828 21.0186 7.37342L20.9904 7.57967L20.592 7.6078C19.9029 7.64998 19.4107 7.97811 19.1436 8.56405L19.0311 8.81248H17.8639C16.8279 8.81248 16.6639 8.82186 16.392 8.90623C15.8295 9.07967 15.3701 9.51561 15.1123 10.125C15.0279 10.3312 15.0232 10.589 15.0092 19.2422C14.9998 25.9406 15.0092 28.214 15.0514 28.4062C15.2061 29.1469 15.7779 29.7328 16.5232 29.9297C16.767 29.9906 17.967 30 26.7936 30C37.6967 30 36.9795 30.0187 37.3451 29.7375C37.4295 29.6765 37.5561 29.5219 37.6264 29.4L37.7576 29.1797L37.7811 26.3906L37.8045 23.6015L38.0904 23.5734C38.4467 23.5406 38.6811 23.4047 38.8357 23.1375C38.9811 22.8844 39.0279 22.5844 38.9529 22.3125C38.9061 22.139 38.7982 22.0031 38.3389 21.539L37.7857 20.9765L37.7717 19.3359C37.7576 17.7 37.7576 17.6953 37.6498 17.5406C37.4389 17.25 37.2701 17.2031 36.3982 17.2031C35.7186 17.2031 35.5967 17.2125 35.4373 17.2969C35.1654 17.4375 35.0436 17.6344 35.0248 17.9906C35.0107 18.15 34.9873 18.2812 34.9639 18.2719C34.9404 18.2625 34.5326 17.8828 34.0545 17.4234C33.5154 16.9078 33.1076 16.5515 32.9857 16.5C32.6389 16.3406 32.2873 16.3922 31.9592 16.65L31.7857 16.7859L31.7717 13.5375L31.7576 10.289L31.6076 9.97499C31.4014 9.53436 31.0967 9.22499 30.6607 9.00936L30.3092 8.83592L29.0201 8.81248L27.7357 8.78905L27.6701 8.59217C27.5904 8.36248 27.2904 8.00624 27.0467 7.85155C26.7982 7.69686 26.4186 7.59373 26.0811 7.59373H25.7951L25.7717 7.36405C25.7248 6.88124 25.3873 6.41717 24.8998 6.17811L24.5904 6.02342L23.4842 6.01405C22.7154 6.00467 22.317 6.01873 22.1717 6.06092ZM24.5482 6.8953C24.867 7.04998 24.9514 7.20936 24.9842 7.72499C25.0123 8.1328 25.0264 8.17967 25.1436 8.27811C25.2607 8.38124 25.3123 8.39061 25.7951 8.39061C26.367 8.39061 26.5967 8.46092 26.7982 8.67655C26.967 8.86405 26.9998 9.02342 26.9998 9.73124V10.4062H23.3904H19.7811V9.75936C19.7857 8.59686 19.9686 8.3953 21.0139 8.39061C21.5389 8.39061 21.5717 8.38592 21.6795 8.27342C21.7826 8.17498 21.7967 8.11873 21.7967 7.80936C21.7967 7.41092 21.8436 7.25155 22.0217 7.05936C22.2467 6.8203 22.3498 6.80155 23.3857 6.79686C24.267 6.79686 24.3607 6.80623 24.5482 6.8953ZM18.9842 10.0406C18.9889 10.6922 19.1061 10.9453 19.4764 11.114C19.6545 11.1984 19.8748 11.2031 23.3998 11.2031C25.9264 11.2031 27.1779 11.189 27.267 11.1515C27.4451 11.0859 27.6561 10.8844 27.7311 10.7015C27.7732 10.6078 27.7967 10.3734 27.7967 10.0781V9.60936H28.9357C29.9342 9.60936 30.0936 9.62342 30.2576 9.69842C30.5436 9.82967 30.7498 10.0265 30.8717 10.289L30.9842 10.5234L30.9795 14.0625L30.9748 17.6015L28.6967 19.7812C26.2732 22.0969 26.2029 22.1765 26.2029 22.5937C26.2029 23.1234 26.5779 23.5312 27.1029 23.5687C27.2576 23.5828 27.3889 23.6156 27.4029 23.6437C27.4123 23.6719 27.4264 24.9328 27.4311 26.4515L27.4451 29.2031L22.0545 29.1937C16.8982 29.1797 16.6545 29.175 16.4998 29.0906C16.2701 28.9687 16.0404 28.7437 15.9232 28.5234L15.8201 28.3359V19.4062V10.4765L15.9607 10.2281C16.0967 9.97499 16.3451 9.76405 16.617 9.66561C16.7014 9.63749 17.2076 9.61405 17.8732 9.61405L18.9842 9.60936V10.0406ZM33.8576 18.3375C34.5092 18.9656 35.7514 20.1609 36.6232 20.9953C37.4904 21.8297 38.2029 22.5469 38.2029 22.589C38.2029 22.6312 38.1795 22.6922 38.1467 22.725C38.1045 22.7672 36.8014 22.7812 32.5732 22.7812C27.5857 22.7812 27.0561 22.7719 27.0279 22.7062C27.0139 22.664 26.9998 22.6031 26.9998 22.5703C26.9998 22.4859 32.5123 17.2031 32.6014 17.2031C32.6389 17.2031 33.2014 17.714 33.8576 18.3375ZM36.9842 19.1109V20.2219L36.7639 20.0156C36.6373 19.8984 36.3748 19.65 36.1779 19.4531L35.8123 19.1015V18.5531V18H36.3982H36.9842V19.1109ZM36.9842 26.2453C36.9842 27.7125 36.9701 28.95 36.9561 28.9922C36.8857 29.175 36.7029 29.2031 35.6248 29.2031H34.5936V27.8765C34.5936 27.15 34.5701 26.4609 34.542 26.3484C34.3123 25.3453 33.2951 24.6609 32.292 24.8344C31.5326 24.9656 30.9186 25.4859 30.7029 26.1844C30.6186 26.4656 30.6092 26.6203 30.6092 27.8531V29.2078L29.5029 29.1937C28.4061 29.1797 28.3967 29.1797 28.3076 29.0672C28.2232 28.964 28.2186 28.8469 28.2186 26.2687V23.5781H32.6014H36.9842V26.2453ZM33.1217 25.725C33.3654 25.8515 33.5811 26.0859 33.6982 26.3437C33.7873 26.5406 33.7967 26.6484 33.7967 27.8765V29.2031H32.6014H31.4061V27.9094C31.4061 27.0515 31.4248 26.55 31.4623 26.4281C31.5607 26.1047 31.9217 25.7578 32.2967 25.6359C32.4842 25.575 32.9201 25.6219 33.1217 25.725Z" fill="white"/>
<path d="M21.9937 8.84531C21.9141 8.87344 21.7969 9.1125 21.7969 9.23438C21.7969 9.29062 21.8578 9.39844 21.9328 9.47344L22.0687 9.60938H23.3672C24.6844 9.60938 24.7922 9.59531 24.9234 9.42656C25.0219 9.3 24.9937 9.05625 24.8672 8.92969L24.7547 8.8125L23.4047 8.81719C22.6641 8.81719 22.0266 8.83125 21.9937 8.84531Z" fill="white"/>
<path d="M18.0422 12.5531C17.7656 12.6937 17.5219 12.9984 17.4375 13.3031C17.4094 13.4015 17.3906 14.0437 17.3906 14.7937C17.3906 16.289 17.4188 16.4718 17.7047 16.7859C17.7984 16.889 17.9625 17.0203 18.0656 17.0765C18.2484 17.1749 18.3234 17.1796 19.7016 17.1937C21.3234 17.2078 21.4406 17.1937 21.7828 16.8984C21.8859 16.8093 22.0219 16.6359 22.0828 16.514C22.1906 16.2984 22.1953 16.2421 22.2094 15.0234L22.2281 13.7578L22.5984 13.3781C22.8 13.1671 22.9734 12.9562 22.9734 12.9093C22.9922 12.6046 22.8516 12.4218 22.5938 12.4218C22.4531 12.4218 22.3875 12.4593 22.1953 12.6562L21.9656 12.8906L21.7969 12.7265C21.4922 12.4265 21.45 12.4218 19.7859 12.4218H18.2906L18.0422 12.5531ZM21.2813 13.3359L21.3938 13.4578L20.625 14.2265C20.1984 14.6531 19.8328 14.9999 19.8047 14.9999C19.7812 14.9999 19.6266 14.8687 19.4672 14.7093C19.2141 14.4609 19.1484 14.4187 19.0031 14.4187C18.7875 14.4187 18.6094 14.6062 18.6094 14.8265C18.6094 14.9484 18.6844 15.0468 19.1156 15.4781C19.8234 16.1859 19.7766 16.1953 20.6719 15.3046C21.0469 14.9296 21.3703 14.6249 21.3891 14.6249C21.4078 14.6249 21.4219 14.9296 21.4219 15.3046C21.4219 16.0687 21.3703 16.2796 21.1641 16.3593C21.0938 16.3874 20.4938 16.4062 19.7578 16.4062H18.4734L18.3422 16.2937L18.2109 16.1812L18.1969 14.8968C18.1875 14.1937 18.1969 13.5703 18.2109 13.5093C18.225 13.4531 18.2766 13.364 18.3281 13.3124C18.4172 13.2234 18.4922 13.2187 19.7953 13.2187H21.1734L21.2813 13.3359Z" fill="white"/>
<path d="M24.0234 13.65C23.7844 13.7859 23.7375 14.0859 23.9297 14.2734L24.0422 14.3906H26.8031H29.564L29.6719 14.2734C29.8312 14.1 29.8265 13.8516 29.6531 13.7062L29.5265 13.5937H26.8219C24.8765 13.5984 24.089 13.6125 24.0234 13.65Z" fill="white"/>
<path d="M23.9575 15.3094C23.77 15.4641 23.7559 15.6984 23.9294 15.8672L24.0419 15.9844H25.8044H27.5669L27.6794 15.8672C27.8294 15.7219 27.8294 15.5156 27.6841 15.3422L27.5716 15.2109L25.8372 15.1969L24.1028 15.1828L23.9575 15.3094Z" fill="white"/>
<path d="M18.2813 18.0422C17.8875 18.1641 17.5734 18.4781 17.4656 18.8484C17.4047 19.0453 17.3906 19.3547 17.3906 20.4094C17.3906 21.1594 17.4094 21.8016 17.4375 21.9C17.5219 22.2047 17.7656 22.5094 18.0422 22.65L18.2906 22.7812H19.8C21.4922 22.7812 21.5156 22.7766 21.8531 22.425C22.1813 22.0828 22.1906 22.0172 22.2094 20.6016L22.2234 19.3359L22.5984 18.9562C22.8938 18.6609 22.9734 18.5484 22.9781 18.4406C22.9875 18.1547 22.7672 17.9625 22.5 18.0234C22.4297 18.0375 22.2844 18.1453 22.1719 18.2578L21.9703 18.4641L21.8109 18.3281C21.4594 18.0187 21.4969 18.0234 19.875 18.0141C19.0641 18.0094 18.3469 18.0234 18.2813 18.0422ZM21.2672 18.9187L21.3891 19.0406L20.5969 19.8328L19.8094 20.6203L19.4953 20.3203C19.2234 20.0578 19.1578 20.0156 19.0125 20.0156C18.7875 20.0156 18.6094 20.1844 18.6094 20.4C18.6094 20.5312 18.6797 20.625 19.1438 21.0844C19.8375 21.7781 19.7625 21.7922 20.6719 20.8828C21.0469 20.5078 21.3703 20.2031 21.3891 20.2031C21.4125 20.2031 21.4219 20.55 21.4125 20.9719C21.3984 21.7125 21.3938 21.7453 21.2859 21.8625L21.1734 21.9844H19.8047C18.4969 21.9844 18.4359 21.9797 18.3375 21.8906C18.2813 21.8391 18.225 21.7453 18.2109 21.6891C18.1969 21.6328 18.1875 21.0094 18.1969 20.3062L18.2109 19.0219L18.3422 18.9094L18.4734 18.7969H19.8094H21.1453L21.2672 18.9187Z" fill="white"/>
<path d="M23.9295 19.3359C23.7701 19.4906 23.7701 19.725 23.9342 19.8797L24.0561 19.9922L25.5373 20.0062C26.3529 20.0156 27.0936 20.0062 27.1779 19.9922C27.3982 19.95 27.5154 19.8187 27.5154 19.6031C27.5154 19.4765 27.4826 19.3922 27.4076 19.3219C27.2998 19.2187 27.2764 19.2187 25.6686 19.2187H24.042L23.9295 19.3359Z" fill="white"/>
<path d="M23.9299 20.9297C23.8033 21.0562 23.7752 21.3 23.8736 21.4266C23.9955 21.5812 24.1315 21.6094 24.844 21.6094C25.758 21.6094 25.8752 21.5578 25.8752 21.1641C25.8752 21.0516 25.8424 20.9812 25.7533 20.9109C25.6361 20.8219 25.5658 20.8125 24.8346 20.8125C24.0565 20.8125 24.0424 20.8125 23.9299 20.9297Z" fill="white"/>
<path d="M18.3792 23.6249C17.9339 23.7187 17.5823 24.0327 17.4558 24.4499C17.3573 24.7827 17.362 27.2155 17.4651 27.5577C17.5636 27.8999 17.8964 28.2327 18.2386 28.3312C18.5854 28.4343 21.0089 28.439 21.3558 28.3358C21.6558 28.2468 21.9089 28.0312 22.0683 27.7312L22.1948 27.4921L22.2089 26.2265L22.2276 24.9608L22.5979 24.5812C22.7995 24.3702 22.9729 24.1593 22.9729 24.1124C22.9917 23.8077 22.8511 23.6249 22.5933 23.6249C22.4573 23.6249 22.387 23.6624 22.2183 23.8358C22.1058 23.953 21.9886 24.0468 21.9604 24.0468C21.9323 24.0468 21.8573 23.9905 21.7917 23.9249C21.7308 23.8546 21.5854 23.7562 21.4683 23.6999C21.2714 23.6062 21.1729 23.6015 19.9214 23.5921C19.1854 23.5874 18.4917 23.6015 18.3792 23.6249ZM21.2808 24.539L21.3933 24.6608L20.6245 25.4296C20.1979 25.8562 19.8323 26.203 19.8042 26.203C19.7808 26.203 19.6308 26.0765 19.4761 25.9218C19.1151 25.5655 18.9558 25.5233 18.7495 25.7249C18.6511 25.828 18.6089 25.9124 18.6089 26.0202C18.6089 26.1562 18.6792 26.2452 19.1151 26.6812C19.8276 27.3937 19.7714 27.403 20.7042 26.4749L21.4214 25.7624V26.4749C21.4214 27.2858 21.3792 27.464 21.1542 27.5577C21.0558 27.5999 20.662 27.6093 19.7198 27.5999C18.4448 27.5858 18.4214 27.5858 18.3183 27.478C18.2104 27.3749 18.2104 27.3515 18.1964 26.0952C18.187 25.3968 18.1964 24.7733 18.2104 24.7124C18.2245 24.6562 18.2761 24.5671 18.3276 24.5155C18.4167 24.4265 18.4917 24.4218 19.7948 24.4218H21.1729L21.2808 24.539Z" fill="white"/>
<path d="M24.0229 24.8531C23.7792 24.9844 23.7323 25.2844 23.9292 25.4766L24.0417 25.5938H25.1948H26.3479L26.4604 25.4766C26.6198 25.3219 26.6198 25.0687 26.4604 24.9141L26.3479 24.7969H25.2323C24.5151 24.7969 24.0839 24.8203 24.0229 24.8531Z" fill="white"/>
<path d="M24.0234 26.4469C23.7844 26.5828 23.7375 26.8828 23.9297 27.0703L24.0422 27.1875H25.1859C26.2734 27.1875 26.339 27.1828 26.4562 27.0891C26.5453 27.0187 26.5781 26.9484 26.5781 26.8359C26.5781 26.4141 26.4984 26.3906 25.1859 26.3906C24.4687 26.3953 24.0844 26.4094 24.0234 26.4469Z" fill="white"/>
</g>
<path d="M7.45 47.134H3.894V45.062H7.45V47.134ZM8.57 42.276H7.45V44.166H3.894V42.276H2.76V48.058H8.57V42.276ZM7.996 53.126C6.12 53.126 5 52.594 5 51.698C5 50.802 6.12 50.284 7.996 50.284C9.844 50.284 10.978 50.802 10.978 51.698C10.978 52.594 9.844 53.126 7.996 53.126ZM7.996 49.36C5.434 49.36 3.852 50.214 3.852 51.698C3.852 53.182 5.434 54.036 7.996 54.036C10.544 54.036 12.126 53.182 12.126 51.698C12.126 50.214 10.544 49.36 7.996 49.36ZM11.986 44.642V41.478H10.838V49.038H11.986V45.594H13.848V44.642H11.986ZM23.3849 45.552H17.1969V42.99H23.3849V45.552ZM24.5189 42.066H16.0769V46.476H24.5189V42.066ZM17.1969 50.172H16.0489V53.756H24.7289V52.818H17.1969V50.172ZM14.5929 47.904V48.828H19.8149V51.362H20.9629V48.828H26.0029V47.904H14.5929ZM28.5258 43.844H31.1578V49.752H28.5258V43.844ZM27.4478 50.662H32.2218V42.934H27.4478V50.662ZM36.5758 41.478V46.448H34.8818V41.758H33.8038V53.406H34.8818V47.386H36.5758V54.022H37.6678V41.478H36.5758ZM48.1287 44.81H41.9687V42.808H48.1287V44.81ZM49.2627 41.898H40.8487V45.72H49.2627V41.898ZM50.7327 47.694V46.77H39.3647V47.694H44.4747V48.926H40.7367V49.794H48.1427V50.914H40.7787V53.896H49.6547V53H41.8987V51.754H49.2767V48.926H45.6227V47.694H50.7327Z" fill="#3F3D56"/>
<defs>
<clipPath id="clip0_496_1329">
<rect width="24" height="24" fill="white" transform="translate(15 6)"/>
</clipPath>
</defs>
</svg>
