<svg width="36" height="36" viewBox="0 0 36 36" fill="none" xmlns="http://www.w3.org/2000/svg">
<rect width="36" height="36" rx="18" fill="#2C73D2"/>
<g clip-path="url(#clip0_497_2022)">
<path d="M13.1717 6.06092C12.5904 6.2203 12.0982 6.7828 12.0186 7.37342L11.9904 7.57967L11.592 7.6078C10.9029 7.64998 10.4107 7.97811 10.1436 8.56405L10.0311 8.81248H8.86387C7.82793 8.81248 7.66387 8.82186 7.39199 8.90623C6.82949 9.07967 6.37012 9.51561 6.11231 10.125C6.02793 10.3312 6.02324 10.589 6.00918 19.2422C5.99981 25.9406 6.00918 28.214 6.05137 28.4062C6.20606 29.1469 6.77793 29.7328 7.52324 29.9297C7.76699 29.9906 8.96699 30 17.7936 30C28.6967 30 27.9795 30.0187 28.3451 29.7375C28.4295 29.6765 28.5561 29.5219 28.6264 29.4L28.7576 29.1797L28.7811 26.3906L28.8045 23.6015L29.0904 23.5734C29.4467 23.5406 29.6811 23.4047 29.8357 23.1375C29.9811 22.8844 30.0279 22.5844 29.9529 22.3125C29.9061 22.139 29.7982 22.0031 29.3389 21.539L28.7857 20.9765L28.7717 19.3359C28.7576 17.7 28.7576 17.6953 28.6498 17.5406C28.4389 17.25 28.2701 17.2031 27.3982 17.2031C26.7186 17.2031 26.5967 17.2125 26.4373 17.2969C26.1654 17.4375 26.0436 17.6344 26.0248 17.9906C26.0107 18.15 25.9873 18.2812 25.9639 18.2719C25.9404 18.2625 25.5326 17.8828 25.0545 17.4234C24.5154 16.9078 24.1076 16.5515 23.9857 16.5C23.6389 16.3406 23.2873 16.3922 22.9592 16.65L22.7857 16.7859L22.7717 13.5375L22.7576 10.289L22.6076 9.97499C22.4014 9.53436 22.0967 9.22499 21.6607 9.00936L21.3092 8.83592L20.0201 8.81248L18.7357 8.78905L18.6701 8.59217C18.5904 8.36248 18.2904 8.00624 18.0467 7.85155C17.7982 7.69686 17.4186 7.59373 17.0811 7.59373H16.7951L16.7717 7.36405C16.7248 6.88124 16.3873 6.41717 15.8998 6.17811L15.5904 6.02342L14.4842 6.01405C13.7154 6.00467 13.317 6.01873 13.1717 6.06092ZM15.5482 6.8953C15.867 7.04998 15.9514 7.20936 15.9842 7.72499C16.0123 8.1328 16.0264 8.17967 16.1436 8.27811C16.2607 8.38124 16.3123 8.39061 16.7951 8.39061C17.367 8.39061 17.5967 8.46092 17.7982 8.67655C17.967 8.86405 17.9998 9.02342 17.9998 9.73124V10.4062H14.3904H10.7811V9.75936C10.7857 8.59686 10.9686 8.3953 12.0139 8.39061C12.5389 8.39061 12.5717 8.38592 12.6795 8.27342C12.7826 8.17498 12.7967 8.11873 12.7967 7.80936C12.7967 7.41092 12.8436 7.25155 13.0217 7.05936C13.2467 6.8203 13.3498 6.80155 14.3857 6.79686C15.267 6.79686 15.3607 6.80623 15.5482 6.8953ZM9.98418 10.0406C9.98887 10.6922 10.1061 10.9453 10.4764 11.114C10.6545 11.1984 10.8748 11.2031 14.3998 11.2031C16.9264 11.2031 18.1779 11.189 18.267 11.1515C18.4451 11.0859 18.6561 10.8844 18.7311 10.7015C18.7732 10.6078 18.7967 10.3734 18.7967 10.0781V9.60936H19.9357C20.9342 9.60936 21.0936 9.62342 21.2576 9.69842C21.5436 9.82967 21.7498 10.0265 21.8717 10.289L21.9842 10.5234L21.9795 14.0625L21.9748 17.6015L19.6967 19.7812C17.2732 22.0969 17.2029 22.1765 17.2029 22.5937C17.2029 23.1234 17.5779 23.5312 18.1029 23.5687C18.2576 23.5828 18.3889 23.6156 18.4029 23.6437C18.4123 23.6719 18.4264 24.9328 18.4311 26.4515L18.4451 29.2031L13.0545 29.1937C7.89824 29.1797 7.65449 29.175 7.49981 29.0906C7.27012 28.9687 7.04043 28.7437 6.92324 28.5234L6.82012 28.3359V19.4062V10.4765L6.96074 10.2281C7.09668 9.97499 7.34512 9.76405 7.61699 9.66561C7.70137 9.63749 8.20762 9.61405 8.87324 9.61405L9.98418 9.60936V10.0406ZM24.8576 18.3375C25.5092 18.9656 26.7514 20.1609 27.6232 20.9953C28.4904 21.8297 29.2029 22.5469 29.2029 22.589C29.2029 22.6312 29.1795 22.6922 29.1467 22.725C29.1045 22.7672 27.8014 22.7812 23.5732 22.7812C18.5857 22.7812 18.0561 22.7719 18.0279 22.7062C18.0139 22.664 17.9998 22.6031 17.9998 22.5703C17.9998 22.4859 23.5123 17.2031 23.6014 17.2031C23.6389 17.2031 24.2014 17.714 24.8576 18.3375ZM27.9842 19.1109V20.2219L27.7639 20.0156C27.6373 19.8984 27.3748 19.65 27.1779 19.4531L26.8123 19.1015V18.5531V18H27.3982H27.9842V19.1109ZM27.9842 26.2453C27.9842 27.7125 27.9701 28.95 27.9561 28.9922C27.8857 29.175 27.7029 29.2031 26.6248 29.2031H25.5936V27.8765C25.5936 27.15 25.5701 26.4609 25.542 26.3484C25.3123 25.3453 24.2951 24.6609 23.292 24.8344C22.5326 24.9656 21.9186 25.4859 21.7029 26.1844C21.6186 26.4656 21.6092 26.6203 21.6092 27.8531V29.2078L20.5029 29.1937C19.4061 29.1797 19.3967 29.1797 19.3076 29.0672C19.2232 28.964 19.2186 28.8469 19.2186 26.2687V23.5781H23.6014H27.9842V26.2453ZM24.1217 25.725C24.3654 25.8515 24.5811 26.0859 24.6982 26.3437C24.7873 26.5406 24.7967 26.6484 24.7967 27.8765V29.2031H23.6014H22.4061V27.9094C22.4061 27.0515 22.4248 26.55 22.4623 26.4281C22.5607 26.1047 22.9217 25.7578 23.2967 25.6359C23.4842 25.575 23.9201 25.6219 24.1217 25.725Z" fill="white"/>
<path d="M12.9937 8.84531C12.9141 8.87344 12.7969 9.1125 12.7969 9.23438C12.7969 9.29062 12.8578 9.39844 12.9328 9.47344L13.0687 9.60938H14.3672C15.6844 9.60938 15.7922 9.59531 15.9234 9.42656C16.0219 9.3 15.9937 9.05625 15.8672 8.92969L15.7547 8.8125L14.4047 8.81719C13.6641 8.81719 13.0266 8.83125 12.9937 8.84531Z" fill="white"/>
<path d="M9.04219 12.5531C8.76562 12.6937 8.52188 12.9984 8.4375 13.3031C8.40938 13.4015 8.39062 14.0437 8.39062 14.7937C8.39062 16.289 8.41875 16.4718 8.70469 16.7859C8.79844 16.889 8.9625 17.0203 9.06563 17.0765C9.24844 17.1749 9.32344 17.1796 10.7016 17.1937C12.3234 17.2078 12.4406 17.1937 12.7828 16.8984C12.8859 16.8093 13.0219 16.6359 13.0828 16.514C13.1906 16.2984 13.1953 16.2421 13.2094 15.0234L13.2281 13.7578L13.5984 13.3781C13.8 13.1671 13.9734 12.9562 13.9734 12.9093C13.9922 12.6046 13.8516 12.4218 13.5938 12.4218C13.4531 12.4218 13.3875 12.4593 13.1953 12.6562L12.9656 12.8906L12.7969 12.7265C12.4922 12.4265 12.45 12.4218 10.7859 12.4218H9.29063L9.04219 12.5531ZM12.2813 13.3359L12.3938 13.4578L11.625 14.2265C11.1984 14.6531 10.8328 14.9999 10.8047 14.9999C10.7812 14.9999 10.6266 14.8687 10.4672 14.7093C10.2141 14.4609 10.1484 14.4187 10.0031 14.4187C9.7875 14.4187 9.60938 14.6062 9.60938 14.8265C9.60938 14.9484 9.68438 15.0468 10.1156 15.4781C10.8234 16.1859 10.7766 16.1953 11.6719 15.3046C12.0469 14.9296 12.3703 14.6249 12.3891 14.6249C12.4078 14.6249 12.4219 14.9296 12.4219 15.3046C12.4219 16.0687 12.3703 16.2796 12.1641 16.3593C12.0938 16.3874 11.4938 16.4062 10.7578 16.4062H9.47344L9.34219 16.2937L9.21094 16.1812L9.19688 14.8968C9.1875 14.1937 9.19688 13.5703 9.21094 13.5093C9.225 13.4531 9.27656 13.364 9.32813 13.3124C9.41719 13.2234 9.49219 13.2187 10.7953 13.2187H12.1734L12.2813 13.3359Z" fill="white"/>
<path d="M15.0234 13.65C14.7844 13.7859 14.7375 14.0859 14.9297 14.2734L15.0422 14.3906H17.8031H20.564L20.6719 14.2734C20.8312 14.1 20.8265 13.8516 20.6531 13.7062L20.5265 13.5937H17.8219C15.8765 13.5984 15.089 13.6125 15.0234 13.65Z" fill="white"/>
<path d="M14.9575 15.3094C14.77 15.4641 14.7559 15.6984 14.9294 15.8672L15.0419 15.9844H16.8044H18.5669L18.6794 15.8672C18.8294 15.7219 18.8294 15.5156 18.6841 15.3422L18.5716 15.2109L16.8372 15.1969L15.1028 15.1828L14.9575 15.3094Z" fill="white"/>
<path d="M9.28125 18.0422C8.8875 18.1641 8.57344 18.4781 8.46563 18.8484C8.40469 19.0453 8.39062 19.3547 8.39062 20.4094C8.39062 21.1594 8.40938 21.8016 8.4375 21.9C8.52188 22.2047 8.76562 22.5094 9.04219 22.65L9.29063 22.7812H10.8C12.4922 22.7812 12.5156 22.7766 12.8531 22.425C13.1813 22.0828 13.1906 22.0172 13.2094 20.6016L13.2234 19.3359L13.5984 18.9562C13.8938 18.6609 13.9734 18.5484 13.9781 18.4406C13.9875 18.1547 13.7672 17.9625 13.5 18.0234C13.4297 18.0375 13.2844 18.1453 13.1719 18.2578L12.9703 18.4641L12.8109 18.3281C12.4594 18.0187 12.4969 18.0234 10.875 18.0141C10.0641 18.0094 9.34688 18.0234 9.28125 18.0422ZM12.2672 18.9187L12.3891 19.0406L11.5969 19.8328L10.8094 20.6203L10.4953 20.3203C10.2234 20.0578 10.1578 20.0156 10.0125 20.0156C9.7875 20.0156 9.60938 20.1844 9.60938 20.4C9.60938 20.5312 9.67969 20.625 10.1438 21.0844C10.8375 21.7781 10.7625 21.7922 11.6719 20.8828C12.0469 20.5078 12.3703 20.2031 12.3891 20.2031C12.4125 20.2031 12.4219 20.55 12.4125 20.9719C12.3984 21.7125 12.3938 21.7453 12.2859 21.8625L12.1734 21.9844H10.8047C9.49688 21.9844 9.43594 21.9797 9.3375 21.8906C9.28125 21.8391 9.225 21.7453 9.21094 21.6891C9.19688 21.6328 9.1875 21.0094 9.19688 20.3062L9.21094 19.0219L9.34219 18.9094L9.47344 18.7969H10.8094H12.1453L12.2672 18.9187Z" fill="white"/>
<path d="M14.9295 19.3359C14.7701 19.4906 14.7701 19.725 14.9342 19.8797L15.0561 19.9922L16.5373 20.0062C17.3529 20.0156 18.0936 20.0062 18.1779 19.9922C18.3982 19.95 18.5154 19.8187 18.5154 19.6031C18.5154 19.4765 18.4826 19.3922 18.4076 19.3219C18.2998 19.2187 18.2764 19.2187 16.6686 19.2187H15.042L14.9295 19.3359Z" fill="white"/>
<path d="M14.9299 20.9297C14.8033 21.0562 14.7752 21.3 14.8736 21.4266C14.9955 21.5812 15.1315 21.6094 15.844 21.6094C16.758 21.6094 16.8752 21.5578 16.8752 21.1641C16.8752 21.0516 16.8424 20.9812 16.7533 20.9109C16.6361 20.8219 16.5658 20.8125 15.8346 20.8125C15.0565 20.8125 15.0424 20.8125 14.9299 20.9297Z" fill="white"/>
<path d="M9.37919 23.6249C8.93388 23.7187 8.58232 24.0327 8.45576 24.4499C8.35732 24.7827 8.36201 27.2155 8.46513 27.5577C8.56357 27.8999 8.89638 28.2327 9.23857 28.3312C9.58544 28.4343 12.0089 28.439 12.3558 28.3358C12.6558 28.2468 12.9089 28.0312 13.0683 27.7312L13.1948 27.4921L13.2089 26.2265L13.2276 24.9608L13.5979 24.5812C13.7995 24.3702 13.9729 24.1593 13.9729 24.1124C13.9917 23.8077 13.8511 23.6249 13.5933 23.6249C13.4573 23.6249 13.387 23.6624 13.2183 23.8358C13.1058 23.953 12.9886 24.0468 12.9604 24.0468C12.9323 24.0468 12.8573 23.9905 12.7917 23.9249C12.7308 23.8546 12.5854 23.7562 12.4683 23.6999C12.2714 23.6062 12.1729 23.6015 10.9214 23.5921C10.1854 23.5874 9.49169 23.6015 9.37919 23.6249ZM12.2808 24.539L12.3933 24.6608L11.6245 25.4296C11.1979 25.8562 10.8323 26.203 10.8042 26.203C10.7808 26.203 10.6308 26.0765 10.4761 25.9218C10.1151 25.5655 9.95576 25.5233 9.74951 25.7249C9.65107 25.828 9.60888 25.9124 9.60888 26.0202C9.60888 26.1562 9.67919 26.2452 10.1151 26.6812C10.8276 27.3937 10.7714 27.403 11.7042 26.4749L12.4214 25.7624V26.4749C12.4214 27.2858 12.3792 27.464 12.1542 27.5577C12.0558 27.5999 11.662 27.6093 10.7198 27.5999C9.44482 27.5858 9.42138 27.5858 9.31826 27.478C9.21044 27.3749 9.21044 27.3515 9.19638 26.0952C9.18701 25.3968 9.19638 24.7733 9.21044 24.7124C9.22451 24.6562 9.27607 24.5671 9.32763 24.5155C9.41669 24.4265 9.49169 24.4218 10.7948 24.4218H12.1729L12.2808 24.539Z" fill="white"/>
<path d="M15.0229 24.8531C14.7792 24.9844 14.7323 25.2844 14.9292 25.4766L15.0417 25.5938H16.1948H17.3479L17.4604 25.4766C17.6198 25.3219 17.6198 25.0687 17.4604 24.9141L17.3479 24.7969H16.2323C15.5151 24.7969 15.0839 24.8203 15.0229 24.8531Z" fill="white"/>
<path d="M15.0234 26.4469C14.7844 26.5828 14.7375 26.8828 14.9297 27.0703L15.0422 27.1875H16.1859C17.2734 27.1875 17.339 27.1828 17.4562 27.0891C17.5453 27.0187 17.5781 26.9484 17.5781 26.8359C17.5781 26.4141 17.4984 26.3906 16.1859 26.3906C15.4687 26.3953 15.0844 26.4094 15.0234 26.4469Z" fill="white"/>
</g>
<defs>
<clipPath id="clip0_497_2022">
<rect width="24" height="24" fill="white" transform="translate(6 6)"/>
</clipPath>
</defs>
</svg>
